<?xml version="1.0" encoding="UTF-8" standalone="no"?>
<!-- Created with Inkscape (http://www.inkscape.org/) -->

<svg
   version="1.1"
   id="svg2"
   width="527.88239"
   height="184.35361"
   viewBox="0 0 527.88238 184.35361"
   xmlns="http://www.w3.org/2000/svg"
   xmlns:svg="http://www.w3.org/2000/svg">
  <defs
     id="defs6">
    <clipPath
       clipPathUnits="userSpaceOnUse"
       id="clipPath16">
      <path
         d="M 0,311.811 H 623.622 V 0 H 0 Z"
         id="path14" />
    </clipPath>
  </defs>
  <g
     id="g8"
     transform="matrix(1.3333333,0,0,-1.3333333,-150.21559,300.42785)">
    <g
       id="g10">
      <g
         id="g12"
         clip-path="url(#clipPath16)">
        <g
           id="g18"
           transform="translate(121.4707,87.0557)">
          <path
             d="m 0,0 c 4.863,0 8.809,3.941 8.809,8.816 0,4.864 -3.946,8.805 -8.809,8.805 -4.863,0 -8.809,-3.941 -8.809,-8.805 C -8.809,3.941 -4.863,0 0,0"
             style="fill:#8dc63f;fill-opacity:1;fill-rule:nonzero;stroke:none"
             id="path20" />
        </g>
        <g
           id="g22"
           transform="translate(159.127,87.0557)">
          <path
             d="m 0,0 c 4.867,0 8.809,3.941 8.809,8.816 0,4.864 -3.942,8.805 -8.809,8.805 -4.863,0 -8.809,-3.941 -8.809,-8.805 C -8.809,3.941 -4.863,0 0,0"
             style="fill:#8dc63f;fill-opacity:1;fill-rule:nonzero;stroke:none"
             id="path24" />
        </g>
        <g
           id="g26"
           transform="translate(196.7832,87.0557)">
          <path
             d="m 0,0 c 4.863,0 8.809,3.941 8.809,8.816 0,4.864 -3.946,8.805 -8.809,8.805 -4.863,0 -8.809,-3.941 -8.809,-8.805 C -8.809,3.941 -4.863,0 0,0"
             style="fill:#8dc63f;fill-opacity:1;fill-rule:nonzero;stroke:none"
             id="path28" />
        </g>
        <g
           id="g30"
           transform="translate(424.9795,209.7744)">
          <path
             d="m 0,0 c -6.367,0 -15.289,-3.313 -19.367,-11.344 h -0.258 v 9.43 h -11.848 v -63.969 h 12.106 v 34.785 c 0,12.489 3.312,15.297 5.094,17.082 5.097,5.094 11.73,4.711 11.73,4.711 10.191,0 14.645,-5.738 14.645,-16.312 v -40.266 h 12.105 v 44.219 C 24.207,-1.145 4.465,0 0,0"
             style="fill:#8d8a8a;fill-opacity:1;fill-rule:nonzero;stroke:none"
             id="path32" />
        </g>
        <g
           id="g34"
           transform="translate(206.9551,209.7744)">
          <path
             d="m 0,0 c -6.367,0 -15.289,-3.313 -19.367,-11.344 h -0.258 v 9.43 h -11.848 v -63.969 h 12.106 v 34.785 c 0,12.489 3.312,15.297 5.094,17.082 5.097,5.094 11.73,4.711 11.73,4.711 10.191,0 14.648,-5.738 14.648,-16.312 v -40.266 h 12.102 v 44.219 C 24.207,-1.145 4.457,0 0,0"
             style="fill:#8d8a8a;fill-opacity:1;fill-rule:nonzero;stroke:none"
             id="path36" />
        </g>
        <g
           id="g38"
           transform="translate(359.8652,209.7744)">
          <path
             d="m 0,0 c -6.367,0 -15.297,-3.313 -19.367,-11.344 h -0.258 v 9.43 h -11.848 v -63.969 h 12.106 v 34.785 c 0,12.489 3.312,15.297 5.097,17.082 5.094,5.094 11.719,4.711 11.719,4.711 10.199,0 14.657,-5.738 14.657,-16.312 v -40.266 h 12.102 v 44.219 C 24.208,-1.145 4.457,0 0,0"
             style="fill:#8d8a8a;fill-opacity:1;fill-rule:nonzero;stroke:none"
             id="path40" />
        </g>
        <g
           id="g42"
           transform="translate(154.8379,153.4502)">
          <path
             d="m 0,0 h 0.254 c 0.129,-2.93 0.387,-5.738 0.641,-8.664 0.121,-1.531 2.289,-0.891 3.441,-0.891 h 8.152 C 12.102,-4.211 11.977,1.141 11.977,3.949 v 30.586 c 0,17.84 -12.993,21.781 -26.122,21.781 -12.617,0 -23.578,-4.964 -24.207,-18.98 h 12.743 c 0.129,6.621 5.855,10.191 11.976,10.191 12.231,0 13.406,-5.882 13.496,-15.992 h 0.016 v -10.93 c 0.09,-11.558 -2.801,-23.289 -16.695,-23.289 -7.137,0 -12.618,3.954 -12.618,11.86 0,9.304 9.809,11.976 17.2,12.359 h 2.265 v 8.406 h -1.121 c -15.16,0 -31.086,-5.222 -31.086,-23.191 0,-12.488 11.215,-18.223 22.297,-18.223 8.789,0 15.926,3.438 19.879,11.473"
             style="fill:#8d8a8a;fill-opacity:1;fill-rule:nonzero;stroke:none"
             id="path44" />
        </g>
        <g
           id="g46"
           transform="translate(508.0615,187.9814)">
          <path
             d="m 0,0 c 0,17.84 -13,21.793 -26.121,21.793 -12.617,0 -23.578,-4.969 -24.219,-18.992 h 12.746 C -37.465,9.434 -31.73,13 -25.609,13 c 12.105,0 13.382,-5.75 13.496,-15.664 h 0.015 V -14.27 c 0.032,-11.449 -2.945,-22.937 -16.703,-22.937 -7.137,0 -12.617,3.953 -12.617,11.848 0,9.304 9.816,11.976 17.207,12.359 h 2.266 v 8.41 h -1.121 c -15.161,0 -31.086,-5.226 -31.086,-23.183 0,-12.489 11.207,-18.227 22.293,-18.227 8.793,0 15.929,3.441 19.882,11.465 h 0.254 c 0.129,-2.93 0.375,-5.727 0.633,-8.664 0.129,-1.528 2.297,-0.887 3.449,-0.887 H 0.512 C 0.125,-38.734 0,-33.383 0,-30.582 Z"
             style="fill:#8d8a8a;fill-opacity:1;fill-rule:nonzero;stroke:none"
             id="path48" />
        </g>
        <g
           id="g50"
           transform="translate(267.6074,152.0479)">
          <path
             d="m 0,0 c -1.91,-0.512 -4.453,-0.77 -6.367,-0.77 -4.336,0 -7.903,2.168 -7.903,6.762 V 47.273 L 0.512,47.145 v 9.046 L -14.27,55.816 V 73.273 L -26.375,69.449 V 55.816 l -10.961,0.375 v -9.046 l 10.961,0.128 V 6.625 c 0,-8.535 0.633,-8.793 2.801,-11.848 2.039,-2.8 5.222,-3.824 7.136,-4.211 2.934,-0.504 5.231,-0.629 8.161,-0.629 2.8,0 5.48,0.629 8.277,0.758 z"
             style="fill:#8d8a8a;fill-opacity:1;fill-rule:nonzero;stroke:none"
             id="path52" />
        </g>
        <g
           id="g54"
           transform="translate(322.4004,163.7705)">
          <path
             d="m 0,0 h -12.742 c -1.399,-9.305 -6.113,-13 -15.543,-13 -11.793,0 -16.504,10.559 -16.137,21.273 l -0.058,0.407 0.195,10.922 v 0.277 c 0.597,9.68 6.469,17.328 16,17.328 11.719,0 16.566,-8.277 16.312,-18.984 H -34.637 V 9.816 H 0.762 v 5.985 c 0,17.711 -9.039,29.816 -28.16,30.199 -20.258,0 -29.688,-15.672 -29.688,-34.406 0,-18.856 8.152,-33.387 28.672,-33.387 15.289,0 26.504,7.266 28.414,21.793"
             style="fill:#d2232a;fill-opacity:1;fill-rule:nonzero;stroke:none"
             id="path56" />
        </g>
        <g
           id="g58"
           transform="translate(251.0488,88.6416)">
          <path
             d="m 0,0 h 4.527 v 9.887 h 9.047 V 0 h 4.528 v 22.559 h -4.528 v -9.11 H 4.527 v 9.11 H 0 Z m 36.102,8.145 c 0,-6.04 3.433,-8.528 9.218,-8.528 5.782,0 9.215,2.488 9.215,8.528 V 22.559 H 50.008 V 9.535 c 0,-3.847 -1.235,-6.367 -4.688,-6.367 -3.457,0 -4.691,2.52 -4.691,6.367 V 22.559 H 36.102 Z M 72.313,0 h 4.324 v 16.871 h 0.074 L 85.336,0 h 5.527 V 22.559 H 86.535 V 5.688 h -0.066 l -8.598,16.871 h -5.558 z m 54.399,22.016 c -1.938,0.578 -4.008,0.937 -6.625,0.937 -7.665,0 -12.376,-4.336 -12.376,-12.058 0,-7.629 5.07,-11.278 12.376,-11.278 2.426,0 4.914,0.512 7.305,1.16 V 12.93 h -9.114 V 9.375 h 4.785 V 3.488 c -0.777,-0.191 -1.742,-0.32 -2.976,-0.32 -4.817,0 -7.665,3.457 -7.665,8.047 0,4.625 2.914,8.176 8.184,8.176 1.809,0 4.075,-0.383 5.817,-1.192 z m 24.769,2 h 2.68 l 4.43,4.718 h -4.43 z m 5.813,-15.289 h -6.59 l 3.262,9.312 h 0.066 z M 142.751,0 h 4.687 l 1.969,5.176 h 9.153 L 160.497,0 h 5.008 l -8.856,22.559 h -5.105 z m 42.73,19.008 h 1.485 c 2.265,0 4.785,-0.223 4.785,-2.945 0,-2.805 -2.551,-3.133 -4.785,-3.133 h -1.485 z M 180.958,0 h 4.523 v 9.375 h 1.454 c 1.914,0 2.488,-0.648 3.136,-2.328 L 192.79,0 h 5.043 l -3.625,8.824 c -0.449,1 -1.16,2.231 -2.391,2.328 v 0.063 c 2.879,0.394 4.653,2.586 4.653,5.242 0,6.27 -5.782,6.102 -10.629,6.102 h -4.883 z m 32.68,0 h 4.531 v 22.559 h -4.531 z m 34.523,8.727 h -6.594 l 3.266,9.312 h 0.063 z M 233.614,0 h 4.688 l 1.969,5.176 h 9.152 L 251.36,0 h 5.016 l -8.855,22.559 h -5.114 z"
             style="fill:#000000;fill-opacity:1;fill-rule:nonzero;stroke:none"
             id="path60" />
        </g>
      </g>
    </g>
  </g>
</svg>
