<svg width="147" height="41" viewBox="0 0 147 41" fill="none" xmlns="http://www.w3.org/2000/svg">
<rect x="0.5" y="0.5" width="145.796" height="39.8216" rx="5.5" fill="black"/>
<rect x="0.5" y="0.5" width="145.796" height="39.8216" rx="5.5" stroke="#A6A6A6"/>
<path d="M27 25.6605H9C9.17887 24.0315 9.747 22.47 10.6582 21.1077C11.3586 20.0265 12.2957 19.1215 13.4033 18.4594L13.7109 18.2895L12.1961 15.7319C12.0848 15.5502 12.1433 15.3156 12.3221 15.2042C12.501 15.0985 12.735 15.1575 12.8408 15.3392L14.3994 17.9644C15.5537 17.5043 16.7873 17.2759 18.0293 17.2905C19.251 17.2759 20.4609 17.5043 21.5916 17.9644L23.1441 15.3392C23.2526 15.1575 23.49 15.099 23.6683 15.2132C23.8472 15.3246 23.8995 15.5592 23.7887 15.7375L22.2739 18.3036L22.6491 18.5117C23.7504 19.2002 24.6825 20.1261 25.371 21.2275C26.2322 22.569 26.7891 24.0816 27 25.6605ZM21.375 22.3002C21.375 22.7164 21.7119 23.05 22.1248 23.05C22.5377 23.05 22.8746 22.7159 22.8746 22.3002C22.8746 21.8873 22.5377 21.5504 22.1248 21.5504C21.7119 21.5504 21.375 21.8873 21.375 22.3002ZM13.1248 22.3002C13.1248 22.7164 13.4618 23.05 13.8746 23.05C14.2875 23.05 14.6244 22.7159 14.6244 22.3002C14.6244 21.8873 14.2875 21.5504 13.8746 21.5504C13.4618 21.5504 13.1248 21.8873 13.1248 22.3002Z" fill="white"/>
<path d="M39.7217 15.6782H36V9.71143H36.9268V14.8262H39.7217V15.6782Z" fill="white"/>
<path d="M44.5153 14.4625C44.3946 14.874 44.133 15.23 43.7763 15.4682C43.4196 15.7063 42.9905 15.8115 42.5641 15.7652C42.2675 15.773 41.9726 15.7162 41.7001 15.5987C41.4276 15.4812 41.184 15.3057 40.9861 15.0846C40.7882 14.8635 40.6407 14.6019 40.5541 14.3181C40.4674 14.0343 40.4435 13.735 40.484 13.441C40.4445 13.1461 40.4689 12.8462 40.5553 12.5615C40.6418 12.2768 40.7885 12.0141 40.9853 11.791C41.1822 11.5679 41.4247 11.3897 41.6964 11.2685C41.9681 11.1473 42.2627 11.0859 42.5602 11.0885C43.8131 11.0885 44.569 11.9445 44.569 13.3585V13.6685H41.3893V13.7183C41.3754 13.8836 41.3962 14.0499 41.4503 14.2066C41.5044 14.3634 41.5907 14.5071 41.7036 14.6286C41.8165 14.75 41.9536 14.8465 42.106 14.9119C42.2584 14.9773 42.4227 15.0102 42.5885 15.0083C42.8011 15.0338 43.0165 14.9956 43.2072 14.8984C43.398 14.8011 43.5555 14.6494 43.6598 14.4624L44.5153 14.4625ZM41.3893 13.0113H43.6637C43.6749 12.8602 43.6544 12.7084 43.6034 12.5657C43.5525 12.423 43.4722 12.2925 43.3679 12.1826C43.2635 12.0728 43.1373 11.986 42.9973 11.9278C42.8574 11.8696 42.7068 11.8413 42.5553 11.8448C42.4016 11.8429 42.2491 11.8717 42.1067 11.9297C41.9644 11.9876 41.835 12.0735 41.7264 12.1822C41.6177 12.2909 41.5319 12.4203 41.474 12.5627C41.4161 12.7051 41.3873 12.8576 41.3893 13.0113Z" fill="white"/>
<path d="M46.9658 10.0542V11.1958H47.9414V11.9443H46.9658V14.2598C46.9658 14.7314 47.1602 14.938 47.6025 14.938C47.7158 14.9376 47.8289 14.9308 47.9414 14.9175V15.6577C47.7818 15.6863 47.6201 15.7015 47.458 15.7031C46.4697 15.7031 46.0762 15.3554 46.0762 14.4873V11.9443H45.3613V11.1957H46.0762V10.0542H46.9658Z" fill="white"/>
<path d="M48.8421 13.4247C48.8138 13.1288 48.8476 12.8302 48.9415 12.5482C49.0353 12.2661 49.1871 12.0067 49.387 11.7868C49.5869 11.5668 49.8307 11.391 50.1025 11.2707C50.3744 11.1505 50.6683 11.0883 50.9656 11.0883C51.2629 11.0883 51.5569 11.1505 51.8287 11.2707C52.1006 11.391 52.3443 11.5668 52.5442 11.7868C52.7442 12.0067 52.8959 12.2661 52.9898 12.5482C53.0836 12.8302 53.1175 13.1288 53.0891 13.4247C53.118 13.7209 53.0845 14.0199 52.991 14.3024C52.8974 14.585 52.7457 14.8448 52.5457 15.0652C52.3457 15.2856 52.1018 15.4617 51.8297 15.5823C51.5576 15.7028 51.2632 15.7651 50.9656 15.7651C50.668 15.7651 50.3737 15.7028 50.1015 15.5823C49.8294 15.4617 49.5855 15.2856 49.3855 15.0652C49.1855 14.8448 49.0339 14.585 48.9403 14.3024C48.8467 14.0199 48.8132 13.7209 48.8421 13.4247ZM49.5325 10.0048C49.5329 9.89571 49.5656 9.78919 49.6264 9.69866C49.6873 9.60813 49.7736 9.53765 49.8744 9.49611C49.9753 9.45456 50.0862 9.44382 50.1932 9.46523C50.3001 9.48664 50.3983 9.53925 50.4754 9.61641C50.5525 9.69358 50.605 9.79184 50.6264 9.89882C50.6477 10.0058 50.6368 10.1167 50.5952 10.2175C50.5536 10.3183 50.483 10.4046 50.3924 10.4653C50.3018 10.5261 50.1953 10.5587 50.0862 10.559C50.0132 10.5599 49.9408 10.5461 49.8732 10.5186C49.8056 10.491 49.7442 10.4502 49.6926 10.3986C49.641 10.3469 49.6002 10.2855 49.5727 10.2179C49.5453 10.1502 49.5316 10.0778 49.5325 10.0048ZM52.1751 13.4247C52.1751 12.4486 51.7366 11.8778 50.9671 11.8778C50.1946 11.8778 49.7601 12.4486 49.7601 13.4247C49.7601 14.4086 50.1947 14.975 50.9671 14.975C51.7366 14.975 52.1751 14.4047 52.1751 13.4247ZM51.2981 10.0048C51.2973 9.93174 51.3109 9.85926 51.3383 9.79154C51.3657 9.72381 51.4063 9.6622 51.4576 9.61025C51.509 9.55831 51.5701 9.51707 51.6375 9.48892C51.705 9.46078 51.7773 9.44629 51.8503 9.44629C51.9234 9.44629 51.9957 9.46078 52.0631 9.48892C52.1305 9.51707 52.1917 9.55831 52.243 9.61025C52.2944 9.6622 52.335 9.72381 52.3623 9.79154C52.3897 9.85926 52.4034 9.93174 52.4026 10.0048C52.4029 10.0775 52.3888 10.1496 52.3612 10.2168C52.3336 10.2841 52.293 10.3453 52.2417 10.3968C52.1904 10.4483 52.1294 10.4892 52.0622 10.5171C51.9951 10.545 51.9231 10.5594 51.8503 10.5594C51.7776 10.5594 51.7056 10.545 51.6385 10.5171C51.5713 10.4892 51.5103 10.4483 51.459 10.3968C51.4077 10.3453 51.3671 10.2841 51.3394 10.2168C51.3118 10.1496 51.2978 10.0775 51.2981 10.0048Z" fill="white"/>
<path d="M54.3223 9.41748H55.2109V15.6782H54.3223V9.41748Z" fill="white"/>
<path d="M57.874 10.0542V11.1958H58.8496V11.9443H57.874V14.2598C57.874 14.7314 58.0684 14.938 58.5107 14.938C58.624 14.9376 58.7371 14.9308 58.8496 14.9175V15.6577C58.69 15.6863 58.5283 15.7014 58.3662 15.7031C57.3779 15.7031 56.9844 15.3554 56.9844 14.4873V11.9443H56.2695V11.1957H56.9844V10.0542H57.874Z" fill="white"/>
<path d="M60.0625 9.41748H60.9434V11.8989H61.0137C61.1319 11.6396 61.3271 11.423 61.5728 11.2787C61.8185 11.1343 62.1027 11.0692 62.3867 11.0923C62.6047 11.0804 62.8226 11.1168 63.0249 11.1989C63.2271 11.2809 63.4088 11.4066 63.5569 11.5669C63.705 11.7273 63.816 11.9183 63.8817 12.1264C63.9475 12.3346 63.9666 12.5547 63.9375 12.771V15.6782H63.0479V12.9902C63.0479 12.271 62.7129 11.9067 62.085 11.9067C61.9322 11.8942 61.7786 11.9152 61.6348 11.9683C61.491 12.0213 61.3606 12.1051 61.2526 12.2139C61.1446 12.3226 61.0617 12.4536 61.0096 12.5978C60.9575 12.7419 60.9376 12.8957 60.9512 13.0483V15.6782H60.0625L60.0625 9.41748Z" fill="white"/>
<path d="M69.1193 14.4625C68.9985 14.874 68.7369 15.23 68.3802 15.4682C68.0235 15.7063 67.5945 15.8115 67.1681 15.7652C66.8714 15.7731 66.5766 15.7163 66.304 15.5987C66.0315 15.4812 65.7878 15.3058 65.5898 15.0847C65.3919 14.8635 65.2444 14.602 65.1577 14.3181C65.0709 14.0343 65.047 13.735 65.0875 13.441C65.0481 13.1461 65.0724 12.8461 65.159 12.5614C65.2455 12.2768 65.3922 12.014 65.5891 11.7909C65.786 11.5679 66.0285 11.3897 66.3003 11.2685C66.572 11.1473 66.8666 11.0859 67.1642 11.0885C68.4171 11.0885 69.173 11.9445 69.173 13.3585V13.6685H65.9933V13.7183C65.9794 13.8836 66.0001 14.0499 66.0543 14.2066C66.1084 14.3634 66.1947 14.5071 66.3076 14.6286C66.4205 14.75 66.5575 14.8465 66.7099 14.9119C66.8623 14.9773 67.0267 15.0102 67.1925 15.0083C67.4051 15.0338 67.6204 14.9956 67.8112 14.8984C68.002 14.8011 68.1595 14.6494 68.2638 14.4624L69.1193 14.4625ZM65.9933 13.0113H68.2677C68.2789 12.8602 68.2584 12.7084 68.2074 12.5657C68.1564 12.423 68.0762 12.2925 67.9718 12.1826C67.8674 12.0728 67.7412 11.986 67.6013 11.9278C67.4613 11.8696 67.3108 11.8413 67.1593 11.8448C67.0056 11.8429 66.8531 11.8717 66.7107 11.9297C66.5683 11.9876 66.439 12.0735 66.3303 12.1822C66.2216 12.2909 66.1358 12.4203 66.078 12.5627C66.0201 12.7051 65.9913 12.8576 65.9933 13.0113Z" fill="white"/>
<path d="M71.5693 10.0542V11.1958H72.5449V11.9443H71.5693V14.2598C71.5693 14.7314 71.7637 14.938 72.2061 14.938C72.3193 14.9376 72.4325 14.9308 72.5449 14.9175V15.6577C72.3853 15.6863 72.2236 15.7015 72.0615 15.7031C71.0732 15.7031 70.6797 15.3554 70.6797 14.4873V11.9443H69.9648V11.1957H70.6797V10.0542H71.5693Z" fill="white"/>
<path d="M73.4456 13.4248C73.4173 13.1289 73.4511 12.8303 73.545 12.5482C73.6388 12.2662 73.7906 12.0068 73.9905 11.7868C74.1905 11.5669 74.4342 11.3911 74.706 11.2708C74.9779 11.1506 75.2719 11.0884 75.5691 11.0884C75.8664 11.0884 76.1604 11.1506 76.4322 11.2708C76.7041 11.3911 76.9478 11.5669 77.1477 11.7868C77.3477 12.0068 77.4994 12.2662 77.5933 12.5482C77.6871 12.8303 77.721 13.1289 77.6927 13.4248C77.7215 13.721 77.6881 14.02 77.5945 14.3025C77.5009 14.5851 77.3492 14.8449 77.1492 15.0653C76.9492 15.2857 76.7053 15.4618 76.4332 15.5824C76.1611 15.7029 75.8668 15.7652 75.5691 15.7652C75.2715 15.7652 74.9772 15.7029 74.7051 15.5824C74.4329 15.4618 74.189 15.2857 73.989 15.0653C73.789 14.8449 73.6374 14.5851 73.5438 14.3025C73.4502 14.02 73.4167 13.721 73.4456 13.4248ZM75.1331 9H76.0755L74.971 10.4224H74.1487L75.1331 9ZM76.7786 13.4248C76.7786 12.4487 76.3401 11.8779 75.5706 11.8779C74.7981 11.8779 74.3636 12.4487 74.3636 13.4248C74.3636 14.4087 74.7982 14.9751 75.5706 14.9751C76.3401 14.9751 76.7786 14.4048 76.7786 13.4248ZM76.8401 9H77.7835L76.679 10.4224H75.8567L76.8401 9Z" fill="white"/>
<path d="M128.229 31.6346V19.271H130.094V25.1751H130.245L135.431 19.271H137.779L132.792 24.837L137.797 31.6346H135.551L131.555 26.1108L130.094 27.7891V31.6346H128.229Z" fill="white"/>
<path d="M117.354 31.6346V19.271H121.76C122.722 19.271 123.519 19.4461 124.151 19.7962C124.783 20.1464 125.256 20.6253 125.57 21.233C125.884 21.8367 126.041 22.5169 126.041 23.2735C126.041 24.0341 125.882 24.7183 125.564 25.326C125.25 25.9297 124.775 26.4087 124.139 26.7628C123.507 27.113 122.712 27.288 121.754 27.288H118.724V25.7064H121.585C122.193 25.7064 122.686 25.6017 123.064 25.3924C123.443 25.1791 123.72 24.8894 123.898 24.5231C124.075 24.1569 124.163 23.7403 124.163 23.2735C124.163 22.8066 124.075 22.3921 123.898 22.0299C123.72 21.6677 123.441 21.3839 123.058 21.1787C122.68 20.9734 122.181 20.8708 121.561 20.8708H119.219V31.6346H117.354Z" fill="white"/>
<path d="M106.496 31.6346H104.516L108.965 19.271H111.12L115.569 31.6346H113.589L110.094 21.5167H109.997L106.496 31.6346ZM106.828 26.793H113.251V28.3626H106.828V26.793Z" fill="white"/>
<path d="M93.6355 31.8157C92.8869 31.8157 92.2188 31.6246 91.6312 31.2422C91.0476 30.8559 90.5888 30.3065 90.2548 29.5941C89.9248 28.8778 89.7598 28.0185 89.7598 27.0164C89.7598 26.0142 89.9268 25.157 90.2608 24.4446C90.5989 23.7323 91.0617 23.187 91.6493 22.8086C92.2369 22.4303 92.903 22.2412 93.6475 22.2412C94.2231 22.2412 94.6859 22.3378 95.036 22.5309C95.3902 22.7201 95.6639 22.9415 95.8571 23.195C96.0543 23.4486 96.2072 23.6719 96.3159 23.8651H96.4245V19.271H98.2296V31.6346H96.4668V30.1918H96.3159C96.2072 30.389 96.0502 30.6144 95.845 30.8679C95.6438 31.1215 95.3661 31.3428 95.0119 31.532C94.6577 31.7212 94.1989 31.8157 93.6355 31.8157ZM94.0339 30.2763C94.5531 30.2763 94.9918 30.1395 95.35 29.8658C95.7122 29.5881 95.9859 29.2038 96.171 28.7128C96.3601 28.2218 96.4547 27.6503 96.4547 26.9983C96.4547 26.3543 96.3622 25.7909 96.177 25.3079C95.9919 24.825 95.7202 24.4487 95.362 24.179C95.0038 23.9094 94.5611 23.7745 94.0339 23.7745C93.4906 23.7745 93.0378 23.9154 92.6756 24.1971C92.3134 24.4789 92.0397 24.8632 91.8546 25.3502C91.6735 25.8372 91.5829 26.3865 91.5829 26.9983C91.5829 27.6181 91.6755 28.1755 91.8606 28.6705C92.0458 29.1655 92.3194 29.5579 92.6816 29.8477C93.0479 30.1334 93.4986 30.2763 94.0339 30.2763Z" fill="white"/>
<path d="M85.9306 31.6345V22.3618H87.7356V31.6345H85.9306ZM86.8422 20.9311C86.5282 20.9311 86.2586 20.8264 86.0332 20.6171C85.8118 20.4038 85.7012 20.1503 85.7012 19.8565C85.7012 19.5587 85.8118 19.3051 86.0332 19.0958C86.2586 18.8825 86.5282 18.7759 86.8422 18.7759C87.1561 18.7759 87.4237 18.8825 87.6451 19.0958C87.8704 19.3051 87.9831 19.5587 87.9831 19.8565C87.9831 20.1503 87.8704 20.4038 87.6451 20.6171C87.4237 20.8264 87.1561 20.9311 86.8422 20.9311Z" fill="white"/>
<path d="M79.5939 31.8218C78.7246 31.8218 77.966 31.6226 77.318 31.2242C76.67 30.8257 76.167 30.2683 75.8088 29.5519C75.4506 28.8356 75.2715 27.9984 75.2715 27.0406C75.2715 26.0787 75.4506 25.2375 75.8088 24.5171C76.167 23.7967 76.67 23.2373 77.318 22.8389C77.966 22.4404 78.7246 22.2412 79.5939 22.2412C80.4632 22.2412 81.2219 22.4404 81.8699 22.8389C82.5178 23.2373 83.0209 23.7967 83.3791 24.5171C83.7373 25.2375 83.9164 26.0787 83.9164 27.0406C83.9164 27.9984 83.7373 28.8356 83.3791 29.5519C83.0209 30.2683 82.5178 30.8257 81.8699 31.2242C81.2219 31.6226 80.4632 31.8218 79.5939 31.8218ZM79.6 30.3066C80.1634 30.3066 80.6303 30.1576 81.0005 29.8598C81.3708 29.562 81.6445 29.1656 81.8216 28.6705C82.0027 28.1755 82.0932 27.6302 82.0932 27.0345C82.0932 26.4429 82.0027 25.8996 81.8216 25.4046C81.6445 24.9055 81.3708 24.5051 81.0005 24.2032C80.6303 23.9014 80.1634 23.7504 79.6 23.7504C79.0325 23.7504 78.5616 23.9014 78.1873 24.2032C77.8171 24.5051 77.5414 24.9055 77.3603 25.4046C77.1832 25.8996 77.0946 26.4429 77.0946 27.0345C77.0946 27.6302 77.1832 28.1755 77.3603 28.6705C77.5414 29.1656 77.8171 29.562 78.1873 29.8598C78.5616 30.1576 79.0325 30.3066 79.6 30.3066Z" fill="white"/>
<path d="M69.4961 31.6347V22.362H71.2408V23.835H71.3374C71.5064 23.336 71.8042 22.9436 72.2308 22.6578C72.6615 22.368 73.1484 22.2231 73.6918 22.2231C73.8045 22.2231 73.9373 22.2272 74.0902 22.2352C74.2472 22.2433 74.3699 22.2533 74.4585 22.2654V23.992C74.386 23.9718 74.2572 23.9497 74.0721 23.9256C73.887 23.8974 73.7018 23.8833 73.5167 23.8833C73.0901 23.8833 72.7098 23.9739 72.3757 24.155C72.0457 24.332 71.7841 24.5796 71.5909 24.8975C71.3977 25.2114 71.3011 25.5696 71.3011 25.9721V31.6347H69.4961Z" fill="white"/>
<path d="M62.3249 31.8157C61.5764 31.8157 60.9083 31.6246 60.3207 31.2422C59.7371 30.8559 59.2783 30.3065 58.9442 29.5941C58.6142 28.8778 58.4492 28.0185 58.4492 27.0164C58.4492 26.0142 58.6162 25.157 58.9503 24.4446C59.2884 23.7323 59.7512 23.187 60.3388 22.8086C60.9264 22.4303 61.5924 22.2412 62.337 22.2412C62.9125 22.2412 63.3754 22.3378 63.7255 22.5309C64.0797 22.7201 64.3533 22.9415 64.5465 23.195C64.7437 23.4486 64.8967 23.6719 65.0053 23.8651H65.114V19.271H66.919V31.6346H65.1562V30.1918H65.0053C64.8967 30.389 64.7397 30.6144 64.5344 30.8679C64.3332 31.1215 64.0555 31.3428 63.7013 31.532C63.3472 31.7212 62.8884 31.8157 62.3249 31.8157ZM62.7234 30.2763C63.2425 30.2763 63.6812 30.1395 64.0394 29.8658C64.4016 29.5881 64.6753 29.2038 64.8604 28.7128C65.0496 28.2218 65.1442 27.6503 65.1442 26.9983C65.1442 26.3543 65.0516 25.7909 64.8665 25.3079C64.6813 24.825 64.4097 24.4487 64.0515 24.179C63.6933 23.9094 63.2506 23.7745 62.7234 23.7745C62.18 23.7745 61.7273 23.9154 61.3651 24.1971C61.0028 24.4789 60.7292 24.8632 60.544 25.3502C60.3629 25.8372 60.2724 26.3865 60.2724 26.9983C60.2724 27.6181 60.3649 28.1755 60.5501 28.6705C60.7352 29.1655 61.0089 29.5579 61.3711 29.8477C61.7373 30.1334 62.1881 30.2763 62.7234 30.2763Z" fill="white"/>
<path d="M50.4984 26.129V31.6347H48.6934V22.3619H50.426V23.8712H50.5407C50.754 23.3802 51.088 22.9858 51.5428 22.6879C52.0016 22.3901 52.5791 22.2412 53.2754 22.2412C53.9073 22.2412 54.4606 22.374 54.9355 22.6396C55.4105 22.9012 55.7787 23.2916 56.0403 23.8108C56.3019 24.33 56.4327 24.9719 56.4327 25.7366V31.6347H54.6277V25.9539C54.6277 25.2818 54.4526 24.7566 54.1025 24.3783C53.7523 23.9959 53.2714 23.8048 52.6596 23.8048C52.2411 23.8048 51.8688 23.8953 51.5428 24.0764C51.2208 24.2575 50.9653 24.5232 50.7761 24.8733C50.591 25.2194 50.4984 25.638 50.4984 26.129Z" fill="white"/>
<path d="M37.9801 31.6346H36L40.4492 19.271H42.6044L47.0536 31.6346H45.0735L41.5781 21.5167H41.4815L37.9801 31.6346ZM38.3121 26.793H44.7354V28.3626H38.3121V26.793Z" fill="white"/>
</svg>
