<?xml version="1.0" encoding="UTF-8" standalone="no"?>
<!-- Created with Inkscape (http://www.inkscape.org/) -->

<svg
   version="1.1"
   id="svg2"
   width="432.41068"
   height="101.83145"
   viewBox="0 0 432.41067 101.83145"
   sodipodi:docname="barre.svg"
   xmlns:inkscape="http://www.inkscape.org/namespaces/inkscape"
   xmlns:sodipodi="http://sodipodi.sourceforge.net/DTD/sodipodi-0.dtd"
   xmlns="http://www.w3.org/2000/svg"
   xmlns:svg="http://www.w3.org/2000/svg">
  <defs
     id="defs6">
    <clipPath
       clipPathUnits="userSpaceOnUse"
       id="clipPath16">
      <path
         d="M 0,595.28 H 841.89 V 0 H 0 Z"
         id="path14" />
    </clipPath>
  </defs>
  <sodipodi:namedview
     id="namedview4"
     pagecolor="#ffffff"
     bordercolor="#000000"
     borderopacity="0.25"
     inkscape:showpageshadow="2"
     inkscape:pageopacity="0.0"
     inkscape:pagecheckerboard="0"
     inkscape:deskcolor="#d1d1d1"
     showgrid="false" />
  <g
     id="g8"
     inkscape:groupmode="layer"
     inkscape:label="barré logo"
     transform="matrix(1.3333333,0,0,-1.3333333,-316.62119,469.97279)">
    <g
       id="g10">
      <g
         id="g12"
         clip-path="url(#clipPath16)">
        <g
           id="g18"
           transform="translate(250.5039,289.1436)">
          <path
             d="m 0,0 c 1.308,-0.373 3.153,-0.723 5.537,-1.051 2.386,-0.328 5.35,-0.488 8.902,-0.488 7.01,0 12.617,2.31 16.825,6.937 4.205,4.628 6.306,11.192 6.306,19.696 0,3.738 0.114,10.73 -4.752,16.984 -1.792,2.304 -3.632,4.061 -6.329,5.358 -4.055,1.947 -5.464,1.942 -9.201,1.946 C 13.705,49.387 10.019,47.848 6.871,46.137 4.18,44.678 1.259,42.078 0,40.297 Z m 0,52.496 c 1.503,1.672 4.145,3.795 7.219,5.277 3.288,1.586 6.845,3.104 11.053,3.104 5.231,0 10.178,-0.852 14.244,-2.719 4.066,-1.869 7.191,-4.337 10.114,-7.595 8.158,-9.093 8.539,-19.86 8.539,-25.469 0,-5.885 -0.863,-11.192 -2.592,-15.908 C 46.848,4.465 44.392,0.465 41.215,-2.805 38.036,-6.076 34.208,-8.6 29.721,-10.371 c -4.485,-1.775 -9.533,-2.666 -15.139,-2.666 -6.078,0 -11.452,0.422 -16.125,1.262 -4.673,0.841 -8.504,1.685 -11.495,2.525 V 63.336 H 0 Z"
             style="fill:#231f20;fill-opacity:1;fill-rule:nonzero;stroke:none"
             id="path20" />
        </g>
        <g
           id="g22"
           transform="translate(346.6689,287.04)">
          <path
             d="m 0,0 c 3.083,0 5.818,0.07 8.198,0.209 2.387,0.141 4.372,0.398 5.961,0.773 v 21.729 c -0.936,0.469 -2.452,0.865 -4.556,1.191 -2.103,0.327 -4.65,0.491 -7.642,0.491 -1.961,0 -4.042,-0.139 -6.236,-0.42 -2.198,-0.28 -4.205,-0.868 -6.031,-1.75 -1.819,-0.891 -3.342,-2.104 -4.555,-3.645 -1.214,-1.543 -1.821,-3.576 -1.821,-6.101 0,-4.676 1.493,-7.92 4.484,-9.745 C -9.205,0.912 -5.142,0 0,0 m -1.122,65.328 c 5.234,0 9.649,-0.68 13.247,-2.033 3.598,-1.356 6.496,-3.272 8.693,-5.746 2.194,-2.479 3.761,-5.42 4.697,-8.832 0.932,-3.412 1.401,-7.176 1.401,-11.285 V -8.129 C 25.794,-8.32 24.229,-8.574 22.219,-8.902 20.21,-9.23 17.944,-9.533 15.418,-9.813 c -2.523,-0.281 -5.254,-0.537 -8.199,-0.771 -2.944,-0.232 -5.867,-0.35 -8.762,-0.35 -4.113,0 -7.899,0.418 -11.356,1.262 -3.458,0.84 -6.448,2.172 -8.972,3.996 -2.522,1.822 -4.484,4.227 -5.888,7.219 -1.401,2.988 -2.104,6.59 -2.104,10.795 0,4.017 0.819,7.478 2.456,10.373 1.633,2.896 3.854,5.234 6.659,7.01 2.804,1.773 6.074,3.084 9.814,3.924 3.735,0.841 7.662,1.263 11.774,1.263 1.307,0 2.665,-0.072 4.066,-0.211 1.404,-0.14 2.735,-0.326 3.995,-0.558 1.263,-0.237 2.361,-0.446 3.296,-0.633 0.931,-0.188 1.588,-0.326 1.962,-0.42 v 3.644 c 0,2.151 -0.235,4.276 -0.703,6.377 -0.468,2.104 -1.308,3.973 -2.523,5.61 -1.215,1.633 -2.871,2.943 -4.975,3.926 -2.102,0.98 -4.836,1.47 -8.202,1.47 -4.298,0 -8.062,-0.304 -11.285,-0.91 -3.223,-0.609 -5.63,-1.24 -7.219,-1.894 l -1.541,10.795 c 1.68,0.75 4.484,1.472 8.408,2.173 3.927,0.703 8.178,1.051 12.759,1.051"
             style="fill:#231f20;fill-opacity:1;fill-rule:nonzero;stroke:none"
             id="path24" />
        </g>
        <g
           id="g26"
           transform="translate(419.7559,350.5488)">
          <path
             d="m 0,0 c 1.121,0 2.406,-0.07 3.855,-0.213 1.448,-0.139 2.872,-0.328 4.274,-0.56 1.402,-0.233 2.687,-0.469 3.855,-0.702 1.168,-0.234 2.036,-0.445 2.596,-0.63 l -2.244,-11.354 c -1.027,0.371 -2.734,0.814 -5.117,1.33 -2.383,0.514 -5.448,0.77 -9.182,0.77 -2.432,0 -4.836,-0.256 -7.221,-0.77 -2.384,-0.516 -3.947,-0.865 -4.695,-1.053 v -61.26 h -13.038 v 69.815 c 3.083,1.119 6.915,2.17 11.495,3.152 C -10.844,-0.492 -5.703,0 0,0"
             style="fill:#231f20;fill-opacity:1;fill-rule:nonzero;stroke:none"
             id="path28" />
        </g>
        <g
           id="g30"
           transform="translate(476.8652,350.5488)">
          <path
             d="m 0,0 c 1.121,0 2.406,-0.07 3.857,-0.213 1.448,-0.139 2.873,-0.328 4.274,-0.56 1.404,-0.233 2.687,-0.469 3.857,-0.702 1.166,-0.234 2.032,-0.445 2.594,-0.63 l -2.244,-11.354 c -1.029,0.371 -2.736,0.814 -5.117,1.33 -2.381,0.514 -5.446,0.77 -9.184,0.77 -2.432,0 -4.834,-0.256 -7.219,-0.77 -2.382,-0.516 -3.949,-0.865 -4.695,-1.053 v -61.26 h -13.039 v 69.815 c 3.084,1.119 6.914,2.17 11.498,3.152 C -10.842,-0.492 -5.703,0 0,0"
             style="fill:#231f20;fill-opacity:1;fill-rule:nonzero;stroke:none"
             id="path32" />
        </g>
        <g
           id="g34"
           transform="translate(553.9219,343.3271)">
          <path
             d="M 0,0 C -4.084,4.775 -9.448,7.632 -16.315,8.685 L -18.031,-2.75 c 2.883,-0.871 5.924,-2.396 7.871,-4.818 3.033,-3.787 4.504,-8.623 4.414,-14.512 h -36.17 c 0.283,2.521 0.863,5 1.752,7.43 0.887,2.427 2.125,4.578 3.719,6.451 1.586,1.865 3.521,3.383 5.814,4.554 0.617,0.317 1.412,0.657 2.084,0.89 l -1.598,11.017 c -1.599,-0.377 -3.191,-0.84 -4.761,-1.461 -4.02,-1.594 -7.571,-3.977 -10.655,-7.151 -3.085,-3.179 -5.562,-7.175 -7.427,-11.988 -1.873,-4.812 -2.805,-10.441 -2.805,-16.891 0,-5.517 0.721,-10.585 2.17,-15.212 1.447,-4.627 3.668,-8.62 6.662,-11.987 2.988,-3.363 6.797,-6.004 11.426,-7.92 4.625,-1.914 10.113,-2.873 16.469,-2.873 5.048,0 9.556,0.471 13.529,1.405 3.973,0.929 6.752,1.822 8.342,2.662 l -1.823,10.933 c -1.589,-0.748 -3.949,-1.521 -7.08,-2.312 -3.132,-0.795 -6.986,-1.192 -11.564,-1.192 -8.133,0 -14.113,1.959 -17.945,5.889 -3.832,3.924 -6.026,9.672 -6.588,17.24 H 7.713 c 0.09,0.748 0.139,1.567 0.139,2.453 v 2.174 C 7.852,-15.445 5.234,-6.125 0,0"
             style="fill:#231f20;fill-opacity:1;fill-rule:nonzero;stroke:none"
             id="path36" />
        </g>
        <g
           id="g38"
           transform="translate(533.3281,333.8018)">
          <path
             d="m 0,0 h -5.361 l -2.295,18.166 c 0,0 2.234,0.391 4.75,0.469 2.515,0.078 5.297,-0.188 5.297,-0.188 z"
             style="fill:#ed2024;fill-opacity:1;fill-rule:nonzero;stroke:none"
             id="path40" />
        </g>
      </g>
    </g>
  </g>
</svg>
