<?xml version="1.0" encoding="UTF-8" standalone="no"?>
<!-- Created with Inkscape (http://www.inkscape.org/) -->

<svg
   version="1.1"
   id="svg2"
   width="516.16254"
   height="149.33333"
   viewBox="0 0 516.16254 149.33333"
   xmlns="http://www.w3.org/2000/svg"
   xmlns:svg="http://www.w3.org/2000/svg">
  <defs
     id="defs6">
    <clipPath
       clipPathUnits="userSpaceOnUse"
       id="clipPath56">
      <path
         d="m 1656.29,5196.05 h -494.87 v 545 z"
         id="path54" />
    </clipPath>
    <linearGradient
       x1="0"
       y1="0"
       x2="1"
       y2="0"
       gradientUnits="userSpaceOnUse"
       gradientTransform="matrix(-494.873,0,0,-494.873,2817.7001,5468.5598)"
       spreadMethod="pad"
       id="linearGradient62">
      <stop
         style="stop-opacity:1;stop-color:#da1e25"
         offset="0"
         id="stop58" />
      <stop
         style="stop-opacity:1;stop-color:#941a1f"
         offset="1"
         id="stop60" />
    </linearGradient>
    <clipPath
       clipPathUnits="userSpaceOnUse"
       id="clipPath112">
      <path
         d="m 1653.33,1396.05 h -494.87 v 545 z"
         id="path110" />
    </clipPath>
    <linearGradient
       x1="0"
       y1="0"
       x2="1"
       y2="0"
       gradientUnits="userSpaceOnUse"
       gradientTransform="matrix(-494.873,0,0,-494.873,2814.7501,1668.5598)"
       spreadMethod="pad"
       id="linearGradient118">
      <stop
         style="stop-opacity:1;stop-color:#da1e25"
         offset="0"
         id="stop114" />
      <stop
         style="stop-opacity:1;stop-color:#941a1f"
         offset="1"
         id="stop116" />
    </linearGradient>
  </defs>
  <g
     id="g8"
     transform="matrix(1.3333333,0,0,-1.3333333,-154.856,841.90798)">
    <g
       id="g10"
       transform="scale(0.1)">
      <path
         d="M 6120,0 H 0 V 3960 H 6120 V 0"
         style="fill:#201f1e;fill-opacity:1;fill-rule:nonzero;stroke:none"
         id="path12" />
      <path
         d="M 1951.87,5844.75 H 1855 v 466.72 h 96.87 v -466.72"
         style="fill:#201f1e;fill-opacity:1;fill-rule:nonzero;stroke:none"
         id="path14" />
      <path
         d="m 2314.07,6170.08 c 22.59,-18.67 33.9,-49.65 33.9,-92.92 v -232.41 h -92.46 v 209.92 c 0,18.16 -2.39,32.09 -7.23,41.81 -8.82,17.72 -25.58,26.58 -50.27,26.58 -30.42,0 -51.26,-12.97 -62.58,-38.94 -5.85,-13.71 -8.78,-31.23 -8.78,-52.56 v -186.81 h -90.25 v 344.5 h 87.4 v -50.36 c 11.53,17.75 22.49,30.52 32.77,38.33 18.52,13.93 41.97,20.89 70.33,20.89 35.51,0 64.58,-9.34 87.17,-28.03"
         style="fill:#201f1e;fill-opacity:1;fill-rule:nonzero;stroke:none"
         id="path16" />
      <path
         d="m 2391.11,6122.44 v 64.28 h 48.14 v 96.25 h 89.29 v -96.25 h 56.04 v -64.28 h -56.04 v -182.39 c 0,-14.14 1.78,-22.94 5.37,-26.43 3.58,-3.49 14.57,-5.23 32.95,-5.23 2.72,0 5.61,0.05 8.71,0.17 3.05,0.1 6.04,0.25 9.01,0.47 v -67.45 l -42.74,-1.58 c -42.65,-1.48 -71.78,5.9 -87.41,22.16 -10.12,10.34 -15.18,26.29 -15.18,47.82 v 212.46 h -48.14"
         style="fill:#201f1e;fill-opacity:1;fill-rule:nonzero;stroke:none"
         id="path18" />
      <path
         d="m 2727.61,6104.93 c -12.77,-13.14 -20.78,-30.95 -24.05,-53.41 h 155.46 c -1.64,23.95 -9.63,42.12 -24.03,54.53 -14.4,12.39 -32.23,18.61 -53.53,18.61 -23.15,0 -41.1,-6.58 -53.85,-19.73 z m 135,77.96 c 24.07,-10.78 43.96,-27.8 59.65,-51.06 14.1,-20.51 23.28,-44.29 27.48,-71.36 2.44,-15.84 3.42,-38.68 2.97,-68.48 h -251.38 c 1.41,-34.62 13.46,-58.91 36.1,-72.83 13.78,-8.67 30.38,-13 49.75,-13 20.55,0 37.25,5.29 50.11,15.84 7.01,5.71 13.22,13.63 18.58,23.75 H 2948 c -2.43,-20.47 -13.58,-41.27 -33.44,-62.37 -30.94,-33.56 -74.21,-50.35 -129.84,-50.35 -45.94,0 -86.48,14.15 -121.59,42.46 -35.12,28.31 -52.64,74.38 -52.64,138.19 0,59.78 15.85,105.62 47.54,137.53 31.67,31.89 72.83,47.86 123.4,47.86 30.05,0 57.11,-5.39 81.18,-16.18"
         style="fill:#201f1e;fill-opacity:1;fill-rule:nonzero;stroke:none"
         id="path20" />
      <path
         d="m 3197.23,6197.95 c 1.15,-0.1 3.75,-0.26 7.76,-0.47 v -92.44 c -5.72,0.62 -10.78,1.04 -15.22,1.25 -4.41,0.2 -8.03,0.32 -10.76,0.32 -36.3,0 -60.69,-11.82 -73.15,-35.46 -6.94,-13.3 -10.43,-33.79 -10.43,-61.44 v -164.96 h -90.88 v 345.13 h 86.11 v -60.16 c 13.95,23 26.08,38.73 36.44,47.17 16.86,14.15 38.83,21.22 65.86,21.22 1.67,0 3.08,-0.05 4.27,-0.16"
         style="fill:#201f1e;fill-opacity:1;fill-rule:nonzero;stroke:none"
         id="path22" />
      <path
         d="m 3448.54,6012.57 c -5.77,-3.6 -11.62,-6.49 -17.5,-8.71 -5.88,-2.22 -13.94,-4.28 -24.23,-6.18 l -20.52,-3.8 c -19.27,-3.37 -33.11,-7.5 -41.5,-12.35 -14.2,-8.24 -21.3,-21.01 -21.3,-38.3 0,-15.42 4.34,-26.56 13.02,-33.41 8.68,-6.87 19.23,-10.29 31.66,-10.29 19.73,0 37.88,5.71 54.49,17.1 16.64,11.39 25.25,32.18 25.88,62.37 z m -55.18,42.1 c 16.8,2.11 28.8,4.76 36.03,7.93 12.99,5.47 19.47,14.03 19.47,25.65 0,14.14 -4.96,23.9 -14.92,29.27 -9.94,5.39 -24.56,8.08 -43.8,8.08 -21.6,0 -36.93,-5.28 -45.9,-15.84 -6.42,-7.8 -10.72,-18.36 -12.86,-31.66 h -87.06 c 1.9,30.19 10.39,54.99 25.45,74.4 23.93,30.41 65.06,45.61 123.39,45.61 37.94,0 71.64,-7.49 101.11,-22.49 29.46,-14.97 44.19,-43.27 44.19,-84.84 v -158.32 c 0,-10.98 0.23,-24.28 0.65,-39.9 0.63,-11.82 2.4,-19.84 5.36,-24.07 2.96,-4.23 7.41,-7.7 13.32,-10.44 v -13.3 h -98.14 c -2.77,6.97 -4.67,13.52 -5.72,19.63 -1.06,6.11 -1.91,13.08 -2.53,20.9 -12.53,-13.52 -26.97,-25.01 -43.31,-34.51 -19.54,-11.19 -41.63,-16.79 -66.25,-16.79 -31.44,0 -57.38,8.93 -77.87,26.77 -20.47,17.82 -30.74,43.1 -30.74,75.82 0,42.43 16.48,73.14 49.46,92.14 18.08,10.35 44.64,17.73 79.73,22.16 l 30.94,3.8"
         style="fill:#201f1e;fill-opacity:1;fill-rule:nonzero;stroke:none"
         id="path24" />
      <path
         d="m 3822.58,6066.08 c -1.68,12.88 -6.02,24.48 -12.99,34.82 -10.17,13.95 -25.95,20.9 -47.31,20.9 -30.45,0 -51.3,-15.1 -62.51,-45.28 -5.95,-16 -8.91,-37.27 -8.91,-63.78 0,-25.29 2.96,-45.6 8.91,-60.97 10.79,-28.72 31.1,-43.06 60.92,-43.06 21.18,0 36.2,5.7 45.08,17.11 8.88,11.39 14.27,26.16 16.18,44.32 h 92.13 c -2.11,-27.44 -12.03,-53.42 -29.79,-77.89 -28.31,-39.47 -70.23,-59.22 -125.79,-59.22 -55.61,0 -96.48,16.47 -122.68,49.41 -26.21,32.93 -39.3,75.61 -39.3,128.07 0,59.21 14.48,105.28 43.4,138.2 28.98,32.93 68.89,49.4 119.82,49.4 43.31,0 78.75,-9.72 106.33,-29.13 27.59,-19.41 43.9,-53.72 48.96,-102.9 h -92.45"
         style="fill:#201f1e;fill-opacity:1;fill-rule:nonzero;stroke:none"
         id="path26" />
      <path
         d="m 3944.03,6122.44 v 64.28 h 48.14 v 96.25 h 89.3 v -96.25 h 56.03 v -64.28 h -56.03 v -182.39 c 0,-14.14 1.78,-22.94 5.37,-26.43 3.58,-3.49 14.56,-5.23 32.94,-5.23 2.73,0 5.62,0.05 8.71,0.17 3.06,0.1 6.05,0.25 9.01,0.47 v -67.45 l -42.74,-1.58 c -42.65,-1.48 -71.78,5.9 -87.4,22.16 -10.12,10.34 -15.19,26.29 -15.19,47.82 v 212.46 h -48.14"
         style="fill:#201f1e;fill-opacity:1;fill-rule:nonzero;stroke:none"
         id="path28" />
      <path
         d="m 4197.04,6189.88 h 91.51 v -345.13 h -91.51 z m 91.51,41.16 h -91.51 v 83.27 h 91.51 v -83.27"
         style="fill:#201f1e;fill-opacity:1;fill-rule:nonzero;stroke:none"
         id="path30" />
      <path
         d="m 4582.21,6189.88 h 96.89 l -124.62,-345.13 h -95.15 l -123.76,345.13 h 101.31 l 71.87,-254.57 73.46,254.57"
         style="fill:#201f1e;fill-opacity:1;fill-rule:nonzero;stroke:none"
         id="path32" />
      <path
         d="m 4807.43,6104.93 c -12.75,-13.14 -20.78,-30.95 -24.03,-53.41 h 155.46 c -1.65,23.95 -9.64,42.12 -24.05,54.53 -14.39,12.39 -32.21,18.61 -53.52,18.61 -23.15,0 -41.1,-6.58 -53.86,-19.73 z m 135.01,77.96 c 24.06,-10.78 43.96,-27.8 59.64,-51.06 14.1,-20.51 23.28,-44.29 27.49,-71.36 2.43,-15.84 3.42,-38.68 2.96,-68.48 h -251.37 c 1.42,-34.62 13.45,-58.91 36.11,-72.83 13.77,-8.67 30.38,-13 49.74,-13 20.55,0 37.26,5.29 50.11,15.84 7,5.71 13.21,13.63 18.57,23.75 h 92.13 c -2.43,-20.47 -13.57,-41.27 -33.44,-62.37 -30.93,-33.56 -74.2,-50.35 -129.84,-50.35 -45.93,0 -86.47,14.15 -121.59,42.46 -35.11,28.31 -52.64,74.38 -52.64,138.19 0,59.78 15.85,105.62 47.55,137.53 31.66,31.89 72.82,47.86 123.4,47.86 30.05,0 57.11,-5.39 81.18,-16.18"
         style="fill:#201f1e;fill-opacity:1;fill-rule:nonzero;stroke:none"
         id="path34" />
      <path
         d="m 2053.86,5261.13 c 38.99,0 66.81,11.19 83.42,33.56 10.45,14.14 15.68,31.24 15.68,51.3 0,33.76 -15.25,56.78 -45.7,69.01 -16.22,6.55 -37.62,9.82 -64.25,9.82 h -126.26 v -163.69 z m -21.27,214.66 c 26.85,0 47.77,3.71 62.69,11.09 23.45,11.6 35.19,32.52 35.19,62.7 0,30.4 -12.46,50.87 -37.42,61.42 -14.1,5.92 -34.98,8.86 -62.74,8.86 H 1916.75 V 5475.79 Z M 1855,5672.44 h 201.12 c 54.82,0 93.81,-16.26 116.97,-48.76 13.6,-19.22 20.38,-41.38 20.38,-66.51 0,-29.34 -8.32,-53.4 -24.99,-72.19 -8.69,-9.93 -21.11,-19 -37.39,-27.23 23.87,-9.09 41.69,-19.31 53.53,-30.71 20.88,-20.26 31.34,-48.24 31.34,-83.91 0,-29.97 -9.44,-57.1 -28.34,-81.37 -28.24,-36.32 -73.2,-54.46 -134.78,-54.46 H 1855 v 465.14"
         style="fill:#201f1e;fill-opacity:1;fill-rule:nonzero;stroke:none"
         id="path36" />
      <path
         d="m 2282.11,5546.41 h 54.16 v -58.58 c 4.43,11.41 15.28,25.29 32.62,41.65 17.29,16.35 37.24,24.52 59.83,24.52 1.06,0 2.86,-0.1 5.4,-0.31 2.53,-0.21 6.84,-0.63 12.95,-1.26 v -60.16 c -3.35,0.62 -6.47,1.05 -9.34,1.27 -2.83,0.19 -5.95,0.31 -9.33,0.31 -28.71,0 -50.77,-9.24 -66.16,-27.7 -15.42,-18.48 -23.12,-39.74 -23.12,-63.81 V 5207.3 h -57.01 v 339.11"
         style="fill:#201f1e;fill-opacity:1;fill-rule:nonzero;stroke:none"
         id="path38" />
      <path
         d="m 2703.11,5287.2 c 13.87,28.55 20.82,60.35 20.82,95.35 0,31.61 -5,57.35 -15.03,77.15 -15.88,31.2 -43.21,46.81 -82.04,46.81 -34.43,0 -59.48,-13.28 -75.13,-39.85 -15.66,-26.57 -23.48,-58.61 -23.48,-96.13 0,-36.05 7.82,-66.1 23.48,-90.14 15.65,-24.04 40.48,-36.05 74.5,-36.05 37.35,0 62.97,14.29 76.88,42.86 z m 35.38,225.37 c 29.95,-29.11 44.95,-71.92 44.95,-128.44 0,-54.63 -13.2,-99.76 -39.63,-135.41 -26.4,-35.63 -67.36,-53.45 -122.9,-53.45 -46.33,0 -83.13,15.76 -110.38,47.29 -27.26,31.54 -40.87,73.87 -40.87,127.01 0,56.96 14.36,102.3 43.07,136.03 28.71,33.75 67.28,50.63 115.71,50.63 43.4,0 80.06,-14.56 110.05,-43.66"
         style="fill:#201f1e;fill-opacity:1;fill-rule:nonzero;stroke:none"
         id="path40" />
      <path
         d="m 2848.05,5672.44 h 54.77 v -270.06 l 146.15,144.03 h 72.8 l -130.33,-126.08 137.63,-213.03 h -72.8 l -106.66,172.57 -46.79,-45.3 V 5207.3 h -54.77 v 465.14"
         style="fill:#201f1e;fill-opacity:1;fill-rule:nonzero;stroke:none"
         id="path42" />
      <path
         d="m 3386.12,5403.92 c -2.29,24.71 -7.62,44.44 -16,59.22 -15.49,27.44 -41.34,41.16 -77.54,41.16 -25.98,0 -47.74,-9.45 -65.29,-28.34 -17.6,-18.89 -26.9,-42.91 -27.95,-72.04 z m -20.38,133.15 c 22.42,-11.29 39.52,-25.91 51.29,-43.84 11.31,-17.1 18.88,-37.07 22.66,-59.87 3.35,-15.61 5.03,-40.52 5.03,-74.71 h -246.67 c 1.05,-34.51 9.11,-62.18 24.21,-83.03 15.08,-20.86 38.42,-31.28 70.05,-31.28 29.54,0 53.08,9.86 70.7,29.59 9.83,11.44 16.8,24.7 20.92,39.75 h 56.05 c -1.47,-12.45 -6.41,-26.33 -14.73,-41.63 -8.35,-15.3 -17.65,-27.81 -27.92,-37.53 -17.15,-16.88 -38.43,-28.28 -63.78,-34.19 -13.61,-3.37 -29.03,-5.06 -46.2,-5.06 -41.95,0 -77.5,15.35 -106.66,46.06 -29.17,30.72 -43.73,73.73 -43.73,129.04 0,54.45 14.66,98.67 44.06,132.67 29.36,33.98 67.73,50.96 115.18,50.96 23.9,0 47.08,-5.64 69.54,-16.93"
         style="fill:#201f1e;fill-opacity:1;fill-rule:nonzero;stroke:none"
         id="path44" />
      <path
         d="m 3512.06,5546.41 h 54.15 v -58.58 c 4.43,11.41 15.28,25.29 32.62,41.65 17.29,16.35 37.25,24.52 59.84,24.52 1.05,0 2.86,-0.1 5.39,-0.31 2.53,-0.21 6.84,-0.63 12.95,-1.26 v -60.16 c -3.35,0.62 -6.47,1.05 -9.33,1.27 -2.83,0.19 -5.95,0.31 -9.34,0.31 -28.7,0 -50.77,-9.24 -66.15,-27.7 -15.42,-18.48 -23.12,-39.74 -23.12,-63.81 V 5207.3 h -57.01 v 339.11"
         style="fill:#201f1e;fill-opacity:1;fill-rule:nonzero;stroke:none"
         id="path46" />
      <path
         d="m 3761.15,5313.68 c 1.71,-18.99 6.55,-33.55 14.53,-43.7 14.64,-18.36 40.09,-27.54 76.25,-27.54 21.55,0 40.51,4.59 56.89,13.78 16.38,9.17 24.56,23.38 24.56,42.58 0,14.57 -6.54,25.65 -19.63,33.24 -8.35,4.66 -24.89,10.03 -49.55,16.17 l -46,11.38 c -29.39,7.17 -51.06,15.2 -65.01,24.07 -24.88,15.41 -37.34,36.73 -37.34,63.96 0,32.09 11.74,58.05 35.15,77.89 23.4,19.85 54.91,29.76 94.49,29.76 51.79,0 89.11,-14.98 111.99,-44.95 14.34,-19.01 21.28,-39.49 20.88,-61.44 h -53.83 c -1.08,12.82 -5.75,24.46 -13.93,34.95 -13.42,14.92 -36.64,22.37 -69.71,22.37 -22.03,0 -38.73,-4.09 -50.08,-12.3 -11.34,-8.2 -16.99,-19.04 -16.99,-32.51 0,-14.71 7.42,-26.49 22.35,-35.32 8.59,-5.27 21.27,-9.91 38.08,-13.91 l 38.37,-9.18 c 41.73,-9.93 69.67,-19.53 83.87,-28.82 22.16,-14.57 33.25,-37.46 33.25,-68.7 0,-30.2 -11.58,-56.26 -34.79,-78.22 -23.18,-21.94 -58.49,-32.93 -105.94,-32.93 -51.06,0 -87.23,11.46 -108.5,34.36 -21.28,22.9 -32.65,51.25 -34.13,85.01 h 54.77"
         style="fill:#201f1e;fill-opacity:1;fill-rule:nonzero;stroke:none"
         id="path48" />
      <g
         id="g50">
        <g
           id="g52"
           clip-path="url(#clipPath56)">
          <path
             d="m 1656.29,5196.05 h -494.87 v 545 z"
             style="fill:url(#linearGradient62);fill-opacity:1;fill-rule:nonzero;stroke:none"
             id="path64" />
        </g>
      </g>
      <path
         d="m 1439.55,5607.46 c 0,-81.59 66.14,-147.73 147.73,-147.73 81.58,0 147.72,66.14 147.72,147.73 0,81.58 -66.14,147.72 -147.72,147.72 -81.59,0 -147.73,-66.14 -147.73,-147.72"
         style="fill:#da1e25;fill-opacity:1;fill-rule:nonzero;stroke:none"
         id="path66" />
      <path
         d="m 1656.29,6314.31 -494.87,-573.26 v -545 z"
         style="fill:#da1e25;fill-opacity:1;fill-rule:nonzero;stroke:none"
         id="path68" />
      <path
         d="m 1948.91,2044.75 h -96.87 v 466.72 h 96.87 v -466.72"
         style="fill:#ffffff;fill-opacity:1;fill-rule:nonzero;stroke:none"
         id="path70" />
      <path
         d="m 2311.11,2370.08 c 22.59,-18.67 33.9,-49.65 33.9,-92.92 v -232.41 h -92.46 v 209.92 c 0,18.16 -2.39,32.09 -7.23,41.81 -8.82,17.72 -25.58,26.58 -50.27,26.58 -30.42,0 -51.26,-12.97 -62.58,-38.95 -5.85,-13.71 -8.78,-31.23 -8.78,-52.55 v -186.81 h -90.25 v 344.5 h 87.4 v -50.36 c 11.53,17.74 22.48,30.52 32.77,38.33 18.52,13.93 41.97,20.89 70.34,20.89 35.5,0 64.58,-9.34 87.16,-28.03"
         style="fill:#ffffff;fill-opacity:1;fill-rule:nonzero;stroke:none"
         id="path72" />
      <path
         d="m 2388.15,2322.43 v 64.29 h 48.14 v 96.25 h 89.3 v -96.25 h 56.02 v -64.29 h -56.02 v -182.38 c 0,-14.14 1.77,-22.95 5.36,-26.43 3.58,-3.49 14.57,-5.23 32.95,-5.23 2.72,0 5.61,0.05 8.71,0.17 3.05,0.1 6.04,0.25 9,0.47 v -67.45 l -42.73,-1.58 c -42.65,-1.48 -71.78,5.9 -87.41,22.16 -10.12,10.34 -15.18,26.29 -15.18,47.82 v 212.45 h -48.14"
         style="fill:#ffffff;fill-opacity:1;fill-rule:nonzero;stroke:none"
         id="path74" />
      <path
         d="m 2724.65,2304.93 c -12.77,-13.14 -20.78,-30.95 -24.04,-53.41 h 155.45 c -1.64,23.95 -9.62,42.12 -24.03,54.53 -14.4,12.39 -32.23,18.61 -53.52,18.61 -23.16,0 -41.11,-6.58 -53.86,-19.73 z m 135,77.95 c 24.07,-10.78 43.96,-27.79 59.65,-51.05 14.1,-20.51 23.28,-44.3 27.48,-71.36 2.44,-15.84 3.43,-38.68 2.96,-68.48 h -251.37 c 1.42,-34.62 13.45,-58.91 36.1,-72.84 13.78,-8.66 30.38,-12.98 49.75,-12.98 20.56,0 37.25,5.28 50.12,15.84 7,5.7 13.21,13.62 18.57,23.75 h 92.13 c -2.43,-20.48 -13.58,-41.28 -33.44,-62.38 -30.94,-33.56 -74.21,-50.35 -129.84,-50.35 -45.94,0 -86.48,14.15 -121.59,42.46 -35.12,28.31 -52.64,74.38 -52.64,138.19 0,59.78 15.84,105.62 47.54,137.52 31.67,31.9 72.83,47.87 123.4,47.87 30.06,0 57.12,-5.39 81.18,-16.19"
         style="fill:#ffffff;fill-opacity:1;fill-rule:nonzero;stroke:none"
         id="path76" />
      <path
         d="m 3194.27,2397.94 c 1.15,-0.09 3.75,-0.25 7.76,-0.47 v -92.44 c -5.72,0.63 -10.78,1.05 -15.22,1.26 -4.41,0.2 -8.03,0.31 -10.76,0.31 -36.29,0 -60.69,-11.81 -73.15,-35.45 -6.94,-13.3 -10.43,-33.79 -10.43,-61.44 v -164.96 h -90.88 v 345.13 h 86.12 v -60.16 c 13.94,23 26.07,38.73 36.43,47.17 16.87,14.15 38.83,21.22 65.86,21.22 1.67,0 3.09,-0.05 4.27,-0.17"
         style="fill:#ffffff;fill-opacity:1;fill-rule:nonzero;stroke:none"
         id="path78" />
      <path
         d="m 3445.58,2212.57 c -5.77,-3.6 -11.62,-6.49 -17.5,-8.71 -5.88,-2.23 -13.94,-4.28 -24.23,-6.18 l -20.52,-3.8 c -19.27,-3.37 -33.11,-7.5 -41.49,-12.35 -14.21,-8.24 -21.31,-21.01 -21.31,-38.3 0,-15.42 4.34,-26.56 13.02,-33.41 8.68,-6.87 19.23,-10.3 31.66,-10.3 19.73,0 37.89,5.72 54.49,17.1 16.64,11.4 25.25,32.19 25.88,62.38 z m -55.18,42.1 c 16.8,2.11 28.8,4.76 36.04,7.93 12.98,5.47 19.46,14.02 19.46,25.65 0,14.14 -4.96,23.9 -14.92,29.27 -9.94,5.39 -24.56,8.08 -43.8,8.08 -21.6,0 -36.93,-5.28 -45.9,-15.84 -6.42,-7.8 -10.72,-18.36 -12.86,-31.66 h -87.06 c 1.9,30.18 10.39,54.99 25.45,74.4 23.93,30.4 65.07,45.61 123.4,45.61 37.93,0 71.64,-7.49 101.1,-22.49 29.46,-14.97 44.19,-43.27 44.19,-84.85 v -158.32 c 0,-10.97 0.23,-24.27 0.65,-39.89 0.63,-11.82 2.4,-19.84 5.36,-24.07 2.96,-4.23 7.41,-7.7 13.32,-10.44 v -13.3 h -98.14 c -2.76,6.97 -4.67,13.52 -5.72,19.63 -1.06,6.11 -1.92,13.08 -2.53,20.9 -12.53,-13.52 -26.97,-25.01 -43.31,-34.51 -19.53,-11.19 -41.62,-16.79 -66.25,-16.79 -31.44,0 -57.38,8.93 -77.86,26.77 -20.48,17.82 -30.75,43.1 -30.75,75.82 0,42.43 16.48,73.14 49.46,92.14 18.08,10.35 44.65,17.73 79.73,22.16 l 30.94,3.8"
         style="fill:#ffffff;fill-opacity:1;fill-rule:nonzero;stroke:none"
         id="path80" />
      <path
         d="m 3819.62,2266.08 c -1.68,12.88 -6.02,24.48 -12.99,34.82 -10.17,13.95 -25.95,20.9 -47.31,20.9 -30.45,0 -51.3,-15.1 -62.51,-45.28 -5.95,-16 -8.91,-37.27 -8.91,-63.78 0,-25.3 2.96,-45.6 8.91,-60.97 10.79,-28.72 31.1,-43.07 60.92,-43.07 21.18,0 36.21,5.71 45.08,17.11 8.88,11.4 14.27,26.17 16.18,44.33 h 92.13 c -2.11,-27.44 -12.04,-53.42 -29.79,-77.89 -28.31,-39.47 -70.23,-59.22 -125.79,-59.22 -55.61,0 -96.48,16.48 -122.68,49.4 -26.21,32.93 -39.3,75.62 -39.3,128.08 0,59.21 14.48,105.27 43.4,138.2 28.98,32.92 68.89,49.4 119.82,49.4 43.31,0 78.75,-9.72 106.34,-29.13 27.58,-19.42 43.89,-53.72 48.95,-102.9 h -92.45"
         style="fill:#ffffff;fill-opacity:1;fill-rule:nonzero;stroke:none"
         id="path82" />
      <path
         d="m 3941.07,2322.43 v 64.29 h 48.14 v 96.25 h 89.31 v -96.25 h 56.02 v -64.29 h -56.02 v -182.38 c 0,-14.14 1.77,-22.95 5.36,-26.43 3.58,-3.49 14.56,-5.23 32.94,-5.23 2.73,0 5.62,0.05 8.71,0.17 3.06,0.1 6.05,0.25 9.01,0.47 v -67.45 L 4091.8,2040 c -42.65,-1.48 -71.78,5.9 -87.4,22.16 -10.12,10.34 -15.19,26.29 -15.19,47.82 v 212.45 h -48.14"
         style="fill:#ffffff;fill-opacity:1;fill-rule:nonzero;stroke:none"
         id="path84" />
      <path
         d="m 4194.08,2389.88 h 91.52 v -345.13 h -91.52 z m 91.52,41.16 h -91.52 v 83.27 h 91.52 v -83.27"
         style="fill:#ffffff;fill-opacity:1;fill-rule:nonzero;stroke:none"
         id="path86" />
      <path
         d="m 4579.25,2389.88 h 96.89 l -124.62,-345.13 h -95.15 l -123.76,345.13 h 101.31 l 71.87,-254.57 73.46,254.57"
         style="fill:#ffffff;fill-opacity:1;fill-rule:nonzero;stroke:none"
         id="path88" />
      <path
         d="m 4804.47,2304.93 c -12.75,-13.14 -20.78,-30.95 -24.03,-53.41 h 155.45 c -1.64,23.95 -9.63,42.12 -24.03,54.53 -14.4,12.39 -32.22,18.61 -53.53,18.61 -23.14,0 -41.1,-6.58 -53.86,-19.73 z m 135,77.95 c 24.07,-10.78 43.97,-27.79 59.65,-51.05 14.1,-20.51 23.28,-44.3 27.49,-71.36 2.43,-15.84 3.42,-38.68 2.96,-68.48 H 4778.2 c 1.42,-34.62 13.45,-58.91 36.11,-72.84 13.77,-8.66 30.38,-12.98 49.74,-12.98 20.55,0 37.25,5.28 50.11,15.84 7,5.7 13.21,13.62 18.57,23.75 h 92.13 c -2.43,-20.48 -13.57,-41.28 -33.43,-62.38 -30.94,-33.56 -74.21,-50.35 -129.85,-50.35 -45.93,0 -86.47,14.15 -121.59,42.46 -35.11,28.31 -52.64,74.38 -52.64,138.19 0,59.78 15.85,105.62 47.55,137.52 31.66,31.9 72.82,47.87 123.4,47.87 30.05,0 57.11,-5.39 81.17,-16.19"
         style="fill:#ffffff;fill-opacity:1;fill-rule:nonzero;stroke:none"
         id="path90" />
      <path
         d="m 2050.9,1461.13 c 38.99,0 66.81,11.19 83.42,33.56 10.46,14.14 15.68,31.24 15.68,51.3 0,33.76 -15.25,56.78 -45.7,69.01 -16.21,6.55 -37.62,9.82 -64.25,9.82 h -126.26 v -163.69 z m -21.27,214.66 c 26.85,0 47.77,3.71 62.69,11.09 23.45,11.6 35.19,32.52 35.19,62.7 0,30.39 -12.46,50.86 -37.42,61.42 -14.1,5.92 -34.98,8.86 -62.74,8.86 h -113.56 v -144.07 z m -177.59,196.64 h 201.12 c 54.82,0 93.81,-16.25 116.97,-48.75 13.6,-19.22 20.38,-41.38 20.38,-66.51 0,-29.34 -8.32,-53.41 -24.99,-72.19 -8.68,-9.93 -21.11,-19 -37.39,-27.23 23.87,-9.08 41.69,-19.31 53.53,-30.72 20.88,-20.25 31.34,-48.23 31.34,-83.9 0,-29.97 -9.44,-57.1 -28.34,-81.37 -28.24,-36.32 -73.2,-54.46 -134.78,-54.46 h -197.84 v 465.13"
         style="fill:#ffffff;fill-opacity:1;fill-rule:nonzero;stroke:none"
         id="path92" />
      <path
         d="m 2279.15,1746.41 h 54.16 v -58.58 c 4.43,11.41 15.28,25.29 32.62,41.65 17.29,16.35 37.24,24.52 59.83,24.52 1.06,0 2.86,-0.1 5.39,-0.32 2.54,-0.2 6.85,-0.62 12.96,-1.25 v -60.16 c -3.35,0.62 -6.47,1.05 -9.33,1.27 -2.84,0.19 -5.96,0.31 -9.34,0.31 -28.71,0 -50.77,-9.24 -66.16,-27.7 -15.42,-18.48 -23.12,-39.74 -23.12,-63.81 V 1407.3 h -57.01 v 339.11"
         style="fill:#ffffff;fill-opacity:1;fill-rule:nonzero;stroke:none"
         id="path94" />
      <path
         d="m 2700.15,1487.2 c 13.87,28.56 20.81,60.35 20.81,95.35 0,31.61 -4.99,57.35 -15.02,77.15 -15.88,31.2 -43.21,46.81 -82.04,46.81 -34.43,0 -59.48,-13.28 -75.13,-39.86 -15.65,-26.56 -23.48,-58.6 -23.48,-96.12 0,-36.05 7.83,-66.1 23.48,-90.14 15.65,-24.04 40.48,-36.05 74.5,-36.05 37.36,0 62.97,14.29 76.88,42.86 z m 35.38,225.37 c 29.95,-29.11 44.95,-71.92 44.95,-128.45 0,-54.62 -13.19,-99.75 -39.63,-135.4 -26.4,-35.63 -67.36,-53.45 -122.9,-53.45 -46.33,0 -83.13,15.76 -110.38,47.29 -27.26,31.54 -40.87,73.87 -40.87,127.01 0,56.96 14.36,102.3 43.08,136.03 28.7,33.75 67.26,50.62 115.7,50.62 43.4,0 80.06,-14.55 110.05,-43.65"
         style="fill:#ffffff;fill-opacity:1;fill-rule:nonzero;stroke:none"
         id="path96" />
      <path
         d="m 2845.09,1872.43 h 54.77 v -270.05 l 146.16,144.03 h 72.79 l -130.33,-126.08 137.63,-213.03 h -72.8 l -106.66,172.57 -46.79,-45.3 V 1407.3 h -54.77 v 465.13"
         style="fill:#ffffff;fill-opacity:1;fill-rule:nonzero;stroke:none"
         id="path98" />
      <path
         d="m 3383.16,1603.92 c -2.29,24.71 -7.62,44.43 -16,59.22 -15.49,27.44 -41.34,41.16 -77.54,41.16 -25.98,0 -47.74,-9.45 -65.29,-28.34 -17.6,-18.89 -26.91,-42.91 -27.95,-72.04 z m -20.38,133.14 c 22.43,-11.29 39.52,-25.9 51.29,-43.83 11.31,-17.1 18.88,-37.06 22.66,-59.87 3.35,-15.61 5.03,-40.52 5.03,-74.71 h -246.67 c 1.05,-34.52 9.11,-62.18 24.2,-83.03 15.09,-20.86 38.43,-31.28 70.07,-31.28 29.53,0 53.07,9.86 70.69,29.59 9.83,11.44 16.81,24.7 20.92,39.75 h 56.05 c -1.47,-12.45 -6.4,-26.33 -14.73,-41.63 -8.34,-15.3 -17.65,-27.81 -27.91,-37.53 -17.16,-16.88 -38.44,-28.28 -63.79,-34.19 -13.61,-3.37 -29.03,-5.06 -46.2,-5.06 -41.95,0 -77.5,15.35 -106.66,46.06 -29.17,30.72 -43.73,73.73 -43.73,129.03 0,54.46 14.66,98.68 44.06,132.68 29.36,33.98 67.73,50.96 115.18,50.96 23.9,0 47.08,-5.64 69.54,-16.94"
         style="fill:#ffffff;fill-opacity:1;fill-rule:nonzero;stroke:none"
         id="path100" />
      <path
         d="m 3509.09,1746.41 h 54.16 v -58.58 c 4.44,11.41 15.29,25.29 32.62,41.65 17.29,16.35 37.26,24.52 59.84,24.52 1.05,0 2.85,-0.1 5.39,-0.32 2.53,-0.2 6.84,-0.62 12.95,-1.25 v -60.16 c -3.35,0.62 -6.47,1.05 -9.33,1.27 -2.83,0.19 -5.95,0.31 -9.34,0.31 -28.7,0 -50.77,-9.24 -66.15,-27.7 -15.42,-18.48 -23.12,-39.74 -23.12,-63.81 V 1407.3 h -57.02 v 339.11"
         style="fill:#ffffff;fill-opacity:1;fill-rule:nonzero;stroke:none"
         id="path102" />
      <path
         d="m 3758.19,1513.68 c 1.71,-18.99 6.55,-33.55 14.53,-43.7 14.64,-18.36 40.09,-27.54 76.25,-27.54 21.55,0 40.51,4.59 56.89,13.78 16.38,9.17 24.56,23.38 24.56,42.58 0,14.57 -6.54,25.65 -19.63,33.24 -8.35,4.65 -24.89,10.03 -49.55,16.17 l -46,11.38 c -29.39,7.17 -51.06,15.2 -65.01,24.08 -24.88,15.4 -37.34,36.72 -37.34,63.95 0,32.09 11.74,58.05 35.15,77.89 23.41,19.84 54.91,29.76 94.49,29.76 51.79,0 89.11,-14.98 111.99,-44.95 14.34,-19.01 21.28,-39.49 20.88,-61.44 h -53.83 c -1.08,12.81 -5.75,24.46 -13.93,34.95 -13.42,14.91 -36.63,22.36 -69.71,22.36 -22.03,0 -38.73,-4.09 -50.08,-12.29 -11.34,-8.2 -16.99,-19.04 -16.99,-32.51 0,-14.71 7.42,-26.49 22.35,-35.32 8.59,-5.27 21.27,-9.9 38.08,-13.91 l 38.37,-9.18 c 41.73,-9.93 69.68,-19.53 83.88,-28.82 22.15,-14.57 33.24,-37.47 33.24,-68.7 0,-30.2 -11.57,-56.26 -34.79,-78.22 -23.18,-21.94 -58.49,-32.93 -105.94,-32.93 -51.06,0 -87.23,11.46 -108.5,34.36 -21.28,22.9 -32.66,51.25 -34.13,85.01 h 54.77"
         style="fill:#ffffff;fill-opacity:1;fill-rule:nonzero;stroke:none"
         id="path104" />
      <g
         id="g106">
        <g
           id="g108"
           clip-path="url(#clipPath112)">
          <path
             d="m 1653.33,1396.05 h -494.87 v 545 z"
             style="fill:url(#linearGradient118);fill-opacity:1;fill-rule:nonzero;stroke:none"
             id="path120" />
        </g>
      </g>
      <path
         d="m 1436.59,1807.45 c 0,-81.58 66.14,-147.72 147.73,-147.72 81.58,0 147.72,66.14 147.72,147.72 0,81.59 -66.14,147.73 -147.72,147.73 -81.59,0 -147.73,-66.14 -147.73,-147.73"
         style="fill:#da1e25;fill-opacity:1;fill-rule:nonzero;stroke:none"
         id="path122" />
      <path
         d="m 1653.33,2514.31 -494.87,-573.26 v -545 z"
         style="fill:#da1e25;fill-opacity:1;fill-rule:nonzero;stroke:none"
         id="path124" />
    </g>
  </g>
</svg>
