<?xml version="1.0" encoding="UTF-8" standalone="no"?>
<!-- Created with Inkscape (http://www.inkscape.org/) -->

<svg
   version="1.1"
   id="svg2"
   width="936.09332"
   height="144.81332"
   viewBox="0 0 936.09332 144.81332"
   sodipodi:docname="KB_Logo_left_CMYK.eps"
   xmlns:inkscape="http://www.inkscape.org/namespaces/inkscape"
   xmlns:sodipodi="http://sodipodi.sourceforge.net/DTD/sodipodi-0.dtd"
   xmlns="http://www.w3.org/2000/svg"
   xmlns:svg="http://www.w3.org/2000/svg">
  <defs
     id="defs6" />
  <sodipodi:namedview
     id="namedview4"
     pagecolor="#ffffff"
     bordercolor="#000000"
     borderopacity="0.25"
     inkscape:showpageshadow="2"
     inkscape:pageopacity="0.0"
     inkscape:pagecheckerboard="0"
     inkscape:deskcolor="#d1d1d1" />
  <g
     id="g8"
     inkscape:groupmode="layer"
     inkscape:label="ink_ext_XXXXXX"
     transform="matrix(1.3333333,0,0,-1.3333333,0,144.81333)">
    <g
       id="g10"
       transform="scale(0.1)">
      <path
         d="m 1998.08,268.563 h 141.56 v 143.828 l 29.67,45.664 82.96,-189.492 h 161.33 l -153.73,305.937 137,237.449 H 2246.18 L 2141.16,603.426 h -1.52 v 208.523 h -141.56 v -543.386 0"
         style="fill:#154281;fill-opacity:1;fill-rule:nonzero;stroke:none"
         id="path12" />
      <path
         d="m 2426.26,268.563 h 132.41 v 335.613 h 1.53 l 94.36,-335.613 h 155.26 V 811.949 H 2677.39 V 477.086 h -1.52 l -91.32,334.863 h -158.29 v -543.386 0"
         style="fill:#154281;fill-opacity:1;fill-rule:nonzero;stroke:none"
         id="path14" />
      <path
         d="m 3006.73,540.25 c 0,146.887 4.56,186.457 47.95,186.457 43.38,0 47.95,-39.57 47.95,-186.457 0,-146.875 -4.57,-186.453 -47.95,-186.453 -43.39,0 -47.95,39.578 -47.95,186.453 z m -146.12,0 c 0,-203.203 49.47,-282.352 194.07,-282.352 144.6,0 194.07,79.149 194.07,282.352 0,203.195 -49.47,282.344 -194.07,282.344 -144.6,0 -194.07,-79.149 -194.07,-282.344 v 0"
         style="fill:#154281;fill-opacity:1;fill-rule:evenodd;stroke:none"
         id="path16" />
      <path
         d="m 3441,709.969 h 27.4 c 42.62,0 60.12,-19.035 60.12,-63.176 0,-38.809 -19.02,-64.676 -59.36,-64.676 H 3441 V 709.969 Z M 3299.45,268.563 H 3441 v 217.656 h 37.3 c 34.24,0 46.41,-15.989 46.41,-77.617 v -36.536 c 0,-22.832 0,-74.589 13.71,-103.503 h 150.68 v 7.605 c -9.14,4.57 -12.19,10.656 -15.97,16.738 -6.86,10.664 -6.86,47.188 -6.86,75.352 v 46.426 c 0,72.296 -20.55,115.675 -89.04,121.769 v 1.524 c 64.68,9.89 92.85,57.07 92.85,129.375 0,83.711 -41.1,144.597 -149.16,144.597 h -221.47 v -543.386 0"
         style="fill:#154281;fill-opacity:1;fill-rule:evenodd;stroke:none"
         id="path18" />
      <path
         d="m 3877.71,709.969 h 27.41 c 42.61,0 60.11,-19.035 60.11,-63.176 0,-38.809 -19,-64.676 -59.35,-64.676 h -28.17 V 709.969 Z M 3736.17,268.563 h 141.54 v 217.656 h 37.31 c 34.24,0 46.41,-15.989 46.41,-77.617 v -36.536 c 0,-22.832 0,-74.589 13.71,-103.503 h 150.68 v 7.605 c -9.12,4.57 -12.19,10.656 -15.98,16.738 -6.85,10.664 -6.85,47.188 -6.85,75.352 v 46.426 c 0,72.296 -20.55,115.675 -89.04,121.769 v 1.524 c 64.68,9.89 92.85,57.07 92.85,129.375 0,83.711 -41.1,144.597 -149.16,144.597 h -221.47 v -543.386 0"
         style="fill:#154281;fill-opacity:1;fill-rule:evenodd;stroke:none"
         id="path20" />
      <path
         d="m 4160.72,430.66 h 237.44 v 115.684 h -237.44 v -115.684 0"
         style="fill:#154281;fill-opacity:1;fill-rule:nonzero;stroke:none"
         id="path22" />
      <path
         d="m 4598.93,502.957 h 39.57 c 25.89,0 50.23,-23.594 50.23,-65.449 0,-44.133 -24.34,-66.965 -50.23,-66.965 h -39.57 v 132.414 z m 0,207.012 h 34.25 c 28.93,0 44.91,-25.879 44.91,-56.328 0,-28.907 -15.98,-54.786 -44.91,-54.786 h -34.25 V 709.969 Z M 4457.38,268.563 h 213.85 c 117.95,0 163.63,66.21 163.63,160.574 0,56.32 -28.92,117.207 -100.47,124.043 v 1.535 c 60.12,12.176 85.24,63.926 85.24,121.758 0,81.445 -47.17,135.476 -148.4,135.476 h -213.85 v -543.386 0"
         style="fill:#154281;fill-opacity:1;fill-rule:evenodd;stroke:none"
         id="path24" />
      <path
         d="m 5031.09,709.969 h 27.41 c 42.61,0 60.11,-19.035 60.11,-63.176 0,-38.809 -19.02,-64.676 -59.35,-64.676 h -28.17 V 709.969 Z M 4889.55,268.563 h 141.54 v 217.656 h 37.31 c 34.24,0 46.4,-15.989 46.4,-77.617 v -36.536 c 0,-22.832 0,-74.589 13.72,-103.503 h 150.68 v 7.605 c -9.14,4.57 -12.19,10.656 -16,16.738 -6.83,10.664 -6.83,47.188 -6.83,75.352 v 46.426 c 0,72.296 -20.57,115.675 -89.05,121.769 v 1.524 c 64.69,9.89 92.86,57.07 92.86,129.375 0,83.711 -41.1,144.597 -149.16,144.597 h -221.47 v -543.386 0"
         style="fill:#154281;fill-opacity:1;fill-rule:evenodd;stroke:none"
         id="path26" />
      <path
         d="m 5326.27,268.563 h 328.77 v 115.671 h -187.23 v 108.079 h 168.95 v 111.113 h -168.95 v 92.84 h 180.37 v 115.683 h -321.91 v -543.386 0"
         style="fill:#154281;fill-opacity:1;fill-rule:nonzero;stroke:none"
         id="path28" />
      <path
         d="m 5701.43,268.563 h 132.42 v 404.871 h 1.52 l 75.35,-404.871 h 101.98 l 75.35,404.871 h 1.52 V 268.563 h 132.4 v 543.386 h -202.42 l -57.07,-321.922 h -1.52 l -57.09,321.922 h -202.44 v -543.386 0"
         style="fill:#154281;fill-opacity:1;fill-rule:nonzero;stroke:none"
         id="path30" />
      <path
         d="m 6627.42,655.164 c 0,116.445 -52.5,167.43 -175.8,167.43 -119.47,0 -178.07,-60.117 -178.07,-169.707 0,-192.547 222.21,-139.266 222.21,-246.582 0,-29.676 -16.74,-52.508 -45.66,-52.508 -27.39,0 -46.43,16.746 -46.43,63.172 V 429.91 H 6266.7 v -19.035 c 0,-112.637 65.45,-152.977 182.64,-152.977 124.82,0 192.55,51.758 192.55,167.43 0,198.633 -231.36,146.125 -231.36,253.438 0,24.347 13.71,47.941 44.14,47.941 27.4,0 40.33,-26.633 40.33,-58.605 v -12.938 h 132.42 v 0"
         style="fill:#154281;fill-opacity:1;fill-rule:nonzero;stroke:none"
         id="path32" />
      <path
         d="m 6691.93,268.563 h 328.75 v 115.671 h -187.2 v 108.079 h 168.94 v 111.113 h -168.94 v 92.84 h 180.35 v 115.683 h -321.9 v -543.386 0"
         style="fill:#154281;fill-opacity:1;fill-rule:nonzero;stroke:none"
         id="path34" />
      <path
         d="M 0,1086.11 H 1592.95 V 0 H 0 v 1086.11 0"
         style="fill:#154281;fill-opacity:1;fill-rule:nonzero;stroke:none"
         id="path36" />
      <path
         d="m 795.273,268.016 c 151.954,0 275.147,123.191 275.147,275.156 0,151.961 -123.193,275.144 -275.147,275.144 -151.957,0 -275.152,-123.183 -275.152,-275.144 0,-151.965 123.195,-275.156 275.152,-275.156 z m -360.98,275.027 c 0,199.941 162.098,362.031 362.051,362.031 199.929,0 362.026,-162.09 362.026,-362.031 0,-199.949 -162.097,-362.031 -362.026,-362.031 -199.953,0 -362.051,162.082 -362.051,362.031 v 0"
         style="fill:#ffffff;fill-opacity:1;fill-rule:nonzero;stroke:none"
         id="path38" />
      <path
         d="m 1228.14,745.906 c 28.88,-61.543 45.02,-130.254 45.02,-202.734 0,-72.578 -16.19,-141.399 -45.15,-203.02 l -98.45,0.098 c 35.99,59.16 56.71,128.613 56.71,202.922 0,74.238 -20.69,143.543 -56.62,202.664 l 98.49,0.07 v 0"
         style="fill:#ffffff;fill-opacity:1;fill-rule:nonzero;stroke:none"
         id="path40" />
      <path
         d="M 460.883,745.926 C 424.949,686.805 404.27,617.398 404.27,543.172 c 0,-74.102 20.613,-143.399 56.421,-202.442 l -98.363,-0.156 c -28.832,61.512 -44.949,130.176 -44.949,202.598 0,72.617 16.195,141.23 45.176,202.859 l 98.328,-0.105 v 0"
         style="fill:#ffffff;fill-opacity:1;fill-rule:nonzero;stroke:none"
         id="path42" />
      <path
         d="M 632.008,745.914 H 747.867 V 340.438 H 632.008 v 405.476 0"
         style="fill:#ffffff;fill-opacity:1;fill-rule:nonzero;stroke:none"
         id="path44" />
      <path
         d="m 963.887,340.438 -98.629,202.031 98.629,203.445 H 848.031 L 749.398,543.895 848.031,340.438 h 115.856 v 0"
         style="fill:#ffffff;fill-opacity:1;fill-rule:nonzero;stroke:none"
         id="path46" />
      <path
         d="m 288.43,543.172 c 0,72.07 15.066,140.613 42.175,202.695 v 0.047 H 243.508 L 144.871,543.895 243.508,340.438 h 87.097 v 0.039 C 303.496,402.555 288.43,471.102 288.43,543.172 v 0"
         style="fill:#ffffff;fill-opacity:1;fill-rule:nonzero;stroke:none"
         id="path48" />
      <path
         d="m 1302.12,543.172 c 0,72.07 -15.08,140.613 -42.2,202.695 v 0.047 h 87.12 l 98.62,-202.019 -98.62,-203.457 h -87.12 v 0.039 c 27.12,62.078 42.2,130.625 42.2,202.695 v 0"
         style="fill:#ffffff;fill-opacity:1;fill-rule:nonzero;stroke:none"
         id="path50" />
    </g>
  </g>
</svg>
