<svg width="2000" height="414" viewBox="0 0 2000 414" fill="none" xmlns="http://www.w3.org/2000/svg">
<path d="M832.837 154.402H768.853L702.737 231.055V55.1539H648.275V354.616H702.737V274.627L774.168 354.616H843.245L748.931 253.224L832.837 154.402Z" fill="white"/>
<path d="M892.167 61.7985C884.046 61.7985 876.892 64.691 870.692 70.4822C864.497 76.2659 861.396 83.3103 861.396 91.593C861.396 99.4565 864.457 106.422 870.584 112.497C876.705 118.573 883.9 121.607 892.167 121.607C900.729 121.607 907.998 118.573 913.977 112.497C919.952 106.422 922.939 99.4565 922.939 91.593C922.939 83.4517 919.912 76.4541 913.864 70.5854C907.81 64.729 900.583 61.7985 892.167 61.7985Z" fill="white"/>
<path d="M864.938 354.614H919.4V154.4H864.938V354.614Z" fill="white"/>
<path d="M1093.85 150.544C1081.9 150.544 1070.9 154.87 1060.87 163.514C1050.83 172.164 1040.87 186.13 1030.98 205.42H1030.09V154.404H975.635V354.613H1030.09V263.297C1030.09 253.297 1032.56 243.29 1037.51 233.283C1042.45 223.29 1049.02 215.246 1057.21 209.172C1065.4 203.102 1073.71 200.062 1082.12 200.062C1091.71 200.062 1104.41 205.781 1120.2 217.208L1139.68 171.126C1130.38 163.695 1122.22 158.407 1115.22 155.257C1108.2 152.118 1101.08 150.544 1093.85 150.544Z" fill="white"/>
<path d="M1155.17 280.448H1269.85V229.857H1155.17V280.448Z" fill="white"/>
<path d="M1463.13 314.314H1434.56C1390.44 314.314 1368.37 292.81 1368.37 249.793C1368.37 231.928 1373.8 217.499 1384.63 206.493C1395.49 195.49 1409.99 189.983 1428.15 189.983C1440.25 189.983 1451.9 192.773 1463.13 198.345V314.314ZM1463.13 158.905C1446.74 153.326 1431.31 150.544 1416.85 150.544C1398.11 150.544 1380.66 154.934 1364.5 163.726C1348.33 172.514 1335.64 184.625 1326.42 200.062C1317.19 215.492 1312.58 232.645 1312.58 251.504C1312.58 283.376 1322.5 308.529 1342.36 326.962C1362.2 345.393 1388.66 354.613 1421.72 354.613H1517.36V55.1505H1463.13V158.905Z" fill="white"/>
<path d="M1617.65 233.072C1619.86 217.785 1625.14 206.209 1633.48 198.345C1641.82 190.489 1652.85 186.557 1666.58 186.557C1680.01 186.557 1690.56 190.67 1698.23 198.882C1705.9 207.106 1710.48 218.495 1711.97 233.072H1617.65ZM1664.37 150.545C1633.67 150.545 1608.76 160.19 1589.65 179.481C1570.54 198.778 1560.98 223.64 1560.98 254.08C1560.98 285.662 1571.31 310.957 1591.97 329.965C1612.63 348.969 1639.27 358.475 1671.89 358.475C1706.43 358.475 1735.79 350.191 1760.01 333.606V294.379C1747.17 303.243 1734.73 309.854 1722.7 314.204C1710.66 318.569 1698.15 320.745 1685.17 320.745C1664.95 320.745 1649.05 315.922 1637.48 306.277C1625.88 296.632 1618.98 282.88 1616.77 265.011H1763.1V257.082C1763.1 223.789 1754.25 197.699 1736.54 178.842C1718.83 159.977 1694.76 150.545 1664.37 150.545Z" fill="white"/>
<path d="M1936.01 154.402L1887.53 270.37L1837.93 154.402H1779.49L1874.23 358.47H1900.59L1994.01 154.402H1936.01Z" fill="white"/>
<path d="M290.5 34.8865C307.379 34.8865 324.303 34.5074 341.175 34.9533C347.586 35.1207 353.983 35.6267 360.34 36.4693L355.663 35.8323C368.359 37.5458 380.857 40.6796 392.689 45.5906L388.485 43.8325C397.73 47.6593 406.445 52.6438 414.412 58.6641L410.85 55.9379C417.692 61.1544 423.835 67.2117 429.135 73.9639L426.38 70.4351C431.219 76.6489 435.237 83.4494 438.337 90.6713L436.562 86.5055C439.565 93.5495 441.617 100.954 442.67 108.528C442.456 106.981 442.242 105.435 442.027 103.891C443.017 111.256 443.017 118.718 442.027 126.083C442.242 124.537 442.456 122.992 442.67 121.446C441.682 128.591 439.758 135.578 436.946 142.23L438.719 138.061C435.855 144.756 432.137 151.06 427.659 156.82L430.41 153.288C425.544 159.488 419.906 165.051 413.628 169.848L417.19 167.122C409.591 172.865 401.281 177.619 392.461 181.265L396.666 179.508C384.612 184.521 371.85 187.648 358.912 189.381L363.592 188.744C353.1 190.12 342.583 190.409 332.017 190.409H290.5C280.901 190.409 272.895 198.345 272.895 207.852C272.895 217.36 280.901 225.296 290.5 225.296C306.83 225.296 323.165 225.43 339.49 225.296C368.446 225.041 398.137 219.362 423.435 204.895C442.863 193.782 459.954 176.762 468.9 156.166C471.282 150.682 473.477 145.218 474.936 139.417C476.395 133.618 477.209 127.717 477.711 121.815C478.588 111.474 477.427 100.815 475.008 90.7477C469.925 69.6102 457.437 49.9442 441.063 35.603C421.42 18.4051 396.791 7.54497 371.046 3.1181C358.857 1.02707 346.51 -0.0161131 334.139 0.000188113H290.5C280.906 0.000188113 272.895 7.9367 272.895 17.4434C272.895 26.9499 280.906 34.8865 290.5 34.8865Z" fill="white"/>
<path d="M184.28 190.835C150.095 190.948 116.703 201.048 88.2814 219.868C59.7815 238.907 36.8676 265.072 21.8619 295.711C7.68523 324.735 0.303658 356.555 0.267578 388.799C0.267578 398.305 8.28752 406.243 17.8761 406.243C27.4647 406.243 35.4815 398.305 35.4815 388.799C35.4887 379.844 36.0943 370.899 37.2943 362.022L36.6676 366.659C38.9858 349.762 43.5423 333.24 50.2196 317.524L48.4452 321.689C54.6477 307.183 62.6917 293.52 72.3829 281.03L69.6281 284.561C78.7079 272.917 89.2408 262.459 100.975 253.439L97.4103 256.169C108.409 247.766 120.443 240.784 133.222 235.391L129.021 237.149C141.64 231.884 154.905 228.288 168.472 226.454L163.792 227.091C170.586 226.201 177.432 225.75 184.287 225.741C193.881 225.741 201.891 217.818 201.891 208.297C201.891 198.778 193.881 190.84 184.283 190.852L184.28 190.835Z" fill="white"/>
<path d="M219.564 17.4431V388.791C219.564 398.297 227.574 406.233 237.169 406.233C246.764 406.233 254.778 398.297 254.778 388.791V17.4431C254.778 7.93651 246.767 0 237.169 0C227.571 0 219.564 7.93332 219.564 17.4431Z" fill="white"/>
<path d="M0.226571 17.4494C0.271573 54.186 8.94406 90.5978 25.9419 123.271C41.5317 153.259 64.8749 179.323 93.3738 197.811C120.416 215.275 151.972 224.634 184.252 224.764C193.849 224.764 201.86 216.802 201.86 207.321C201.86 197.839 193.849 189.894 184.252 189.877C177.735 189.872 171.226 189.447 164.766 188.603L169.446 189.24C156.489 187.491 143.82 184.063 131.763 179.05L135.971 180.808C123.242 175.451 111.264 168.487 100.336 160.09L103.901 162.819C92.1274 153.716 81.552 143.187 72.4222 131.478L75.1738 135.007C64.8269 121.669 56.2556 107.068 49.6706 91.5628L51.4483 95.7318C44.2313 78.6403 39.3107 60.6837 36.8129 42.3228L37.414 46.9312C36.0975 37.158 35.4328 27.3093 35.4244 17.4494C35.4276 7.93969 27.4494 0 17.8318 0C8.21439 0 0.216927 7.93966 0.226571 17.4494Z" fill="white"/>
<path d="M481.992 388.8C481.944 353.315 472.625 318.018 454.843 287.205C437.933 257.905 413.12 232.875 383.702 215.827C355.395 199.501 323.239 190.867 290.484 190.798C280.886 190.798 272.879 198.744 272.879 208.241C272.879 217.738 280.889 225.671 290.484 225.684C297.995 225.693 305.495 226.194 312.94 227.181L308.26 226.544C322.9 228.532 337.211 232.426 350.825 238.121L346.633 236.369C360.169 242.085 372.915 249.484 384.563 258.389L380.999 255.659C393.038 264.917 403.847 275.644 413.171 287.587L410.417 284.059C420.166 296.592 428.244 310.319 434.454 324.896L432.68 320.731C439.106 335.926 443.487 351.895 445.708 368.222C445.494 366.677 445.279 365.131 445.065 363.586C446.181 371.949 446.745 380.376 446.756 388.813C446.756 398.319 454.753 406.255 464.362 406.255C473.969 406.255 481.98 398.319 481.967 388.813L481.992 388.8Z" fill="white"/>
</svg>
