<svg width="664" height="849" viewBox="0 0 664 849" fill="none" xmlns="http://www.w3.org/2000/svg">
<path d="M398.219 46.3715C420.448 46.3715 442.736 45.8677 464.956 46.4604C473.399 46.6828 481.824 47.3554 490.195 48.4754L484.036 47.6287C500.757 49.9062 517.216 54.0718 532.799 60.5995L527.261 58.2627C539.438 63.3493 550.914 69.9747 561.407 77.977L556.717 74.3533C565.726 81.2872 573.817 89.3386 580.795 98.3136L577.167 93.6232C583.54 101.883 588.832 110.922 592.915 120.521L590.578 114.984C594.531 124.347 597.236 134.189 598.622 144.257C598.339 142.2 598.057 140.145 597.775 138.094C599.079 147.883 599.079 157.802 597.775 167.591C598.057 165.537 598.339 163.482 598.622 161.427C597.321 170.925 594.786 180.212 591.082 189.054L593.419 183.512C589.646 192.41 584.75 200.79 578.852 208.446L582.476 203.752C576.067 211.992 568.641 219.389 560.374 225.765L565.065 222.141C555.057 229.774 544.113 236.092 532.498 240.941L538.035 238.604C522.16 245.267 505.354 249.424 488.315 251.727L494.479 250.881C480.662 252.709 466.81 253.095 452.896 253.095H398.219C385.578 253.095 375.033 263.644 375.033 276.28C375.033 288.916 385.578 299.466 398.219 299.466C419.724 299.466 441.237 299.644 462.738 299.466C500.871 299.127 539.974 291.579 573.29 272.347C598.876 257.578 621.384 234.955 633.165 207.578C636.302 200.289 639.193 193.025 641.115 185.316C643.037 177.607 644.108 169.763 644.769 161.918C645.924 148.173 644.396 134.004 641.208 120.623C634.516 92.5268 618.069 66.3863 596.505 47.3239C570.636 24.4643 538.2 10.0289 504.296 4.14462C488.244 1.3652 471.981 -0.0214178 455.69 0.000250042H398.219C385.583 0.000250042 375.033 10.5496 375.033 23.1859C375.033 35.8222 385.583 46.3715 398.219 46.3715Z" fill="white"/>
<path d="M258.326 253.662C213.306 253.812 169.329 267.236 131.899 292.252C94.3659 317.558 64.1892 352.337 44.4274 393.063C25.7571 431.642 16.0358 473.938 15.9883 516.797C15.9883 529.434 26.5503 539.983 39.1781 539.983C51.8059 539.983 62.3637 529.434 62.3637 516.797C62.3733 504.893 63.1709 493.003 64.7513 481.204L63.9258 487.368C66.9788 464.908 72.9797 442.948 81.7732 422.057L79.4365 427.594C87.605 408.312 98.1987 390.15 110.962 373.548L107.334 378.243C119.291 362.764 133.163 348.864 148.617 336.875L143.922 340.503C158.407 329.333 174.255 320.052 191.085 312.885L185.552 315.222C202.171 308.222 219.639 303.443 237.507 301.007L231.343 301.853C240.292 300.669 249.308 300.07 258.334 300.058C270.971 300.058 281.52 289.526 281.52 276.873C281.52 264.219 270.971 253.666 258.33 253.683L258.326 253.662Z" fill="white"/>
<path d="M304.799 23.1858V516.785C304.799 529.421 315.348 539.97 327.984 539.97C340.621 539.97 351.174 529.421 351.174 516.785V23.1858C351.174 10.5495 340.625 0.000244141 327.984 0.000244141C315.344 0.000244141 304.799 10.5453 304.799 23.1858Z" fill="white"/>
<path d="M15.9297 23.1943C15.989 72.025 27.4103 120.424 49.7958 163.853C70.3272 203.714 101.069 238.359 138.601 262.933C174.215 286.147 215.773 298.587 258.284 298.759C270.925 298.759 281.474 288.176 281.474 275.573C281.474 262.971 270.925 252.409 258.284 252.388C249.703 252.38 241.13 251.815 232.622 250.694L238.786 251.541C221.723 249.214 205.038 244.66 189.159 237.995L194.701 240.331C177.937 233.211 162.163 223.956 147.771 212.794L152.465 216.422C136.96 204.322 123.032 190.327 111.009 174.762L114.633 179.453C101.006 161.725 89.7178 142.316 81.0458 121.707L83.3868 127.248C73.8823 104.53 67.4023 80.6617 64.1127 56.2561L64.9044 62.3817C63.1704 49.391 62.2951 36.3002 62.284 23.1943C62.2882 10.5538 51.7812 0.000244141 39.1153 0.000244141C26.4494 0.000244141 15.917 10.5453 15.9297 23.1858V23.1943Z" fill="white"/>
<path d="M650.407 516.797C650.343 469.63 638.071 422.713 614.653 381.756C592.381 342.81 559.705 309.541 520.962 286.88C483.682 265.179 441.334 253.702 398.197 253.611C385.557 253.611 375.012 264.173 375.012 276.796C375.012 289.42 385.561 299.965 398.197 299.982C408.088 299.995 417.967 300.659 427.771 301.972L421.607 301.125C440.888 303.768 459.736 308.942 477.664 316.513L472.144 314.185C489.969 321.782 506.755 331.617 522.097 343.453L517.402 339.826C533.256 352.131 547.492 366.39 559.773 382.264L556.145 377.574C568.983 394.234 579.623 412.478 587.801 431.857L585.464 426.32C593.928 446.518 599.696 467.742 602.622 489.446C602.34 487.392 602.057 485.337 601.775 483.282C603.245 494.4 603.989 505.6 604.002 516.814C604.002 529.45 614.534 540 627.187 540C639.841 540 650.39 529.45 650.373 516.814L650.407 516.797Z" fill="white"/>
<path d="M34.6112 815.785L29.1122 792.582H21.6659L16.1118 815.696L9.53332 792.582H0L12.141 832.553H20.9885L25.5224 813.837L30.1663 832.553H38.7048L50.8458 792.582H41.3209L34.6112 815.785Z" fill="white"/>
<path d="M80.8562 795.152L80.8181 795.122C79.2938 794.072 77.5755 793.337 75.7636 792.959C73.7682 792.471 71.7219 792.222 69.6677 792.218C67.6727 792.195 65.6885 792.513 63.8004 793.158C62.0732 793.756 60.488 794.704 59.1438 795.943C57.8219 797.18 56.7897 798.693 56.1213 800.375C55.4223 802.155 55.073 804.052 55.0926 805.963V820.746C55.2026 825.182 56.6123 828.467 59.275 830.482C61.815 832.421 65.172 833.403 69.2952 833.403C71.7593 833.395 74.2102 833.041 76.5764 832.353C78.9654 831.676 81.2595 830.7 83.4047 829.449L84.9413 828.552L80.9917 821.254L79.3788 822.101C77.7534 822.968 76.0351 823.648 74.2566 824.128C72.7388 824.546 71.1741 824.77 69.6 824.793C68.1274 824.855 66.6701 824.473 65.4175 823.696C64.8714 823.324 64.1475 822.604 64.1475 820.682V819.137L85.8981 817.541V806.467C85.9217 804.44 85.6113 802.424 84.9794 800.498C84.3021 798.572 82.9221 796.773 80.8562 795.152ZM64.1348 810.514V805.963C64.0877 805.057 64.2804 804.155 64.6936 803.347C65.042 802.731 65.5362 802.209 66.1329 801.827C66.7825 801.429 67.5001 801.155 68.2496 801.019C69.065 800.854 69.8942 800.768 70.726 800.761C71.3862 800.776 72.0437 800.851 72.6903 800.985C73.3993 801.124 74.0775 801.389 74.6926 801.768C75.4121 802.192 75.997 802.811 76.3798 803.553C76.7625 804.296 76.9276 805.131 76.8558 805.963V809.557L64.1348 810.514Z" fill="white"/>
<path d="M123.578 796.278C122.293 795.09 120.797 794.154 119.167 793.518C117.458 792.849 115.638 792.51 113.803 792.519C111.554 792.471 109.307 792.693 107.111 793.179C105.982 793.425 104.964 793.664 104.058 793.899V778.075H95.3845V779.895C95.3337 784.831 95.2829 789.327 95.2364 793.416C95.2364 795.109 95.2364 796.803 95.1983 798.496C95.1729 800.092 95.1602 801.641 95.1602 803.098V832.371L96.8111 832.544C98.678 832.739 100.71 832.925 102.852 833.094C104.994 833.264 107.233 833.353 109.329 833.353C111.373 833.358 113.414 833.216 115.438 832.929C117.26 832.703 119.028 832.157 120.661 831.317C122.795 830.222 124.601 828.584 125.898 826.567C127.121 824.611 127.739 822.096 127.739 819.095V806.031C127.758 804.137 127.373 802.261 126.609 800.528C125.892 798.923 124.862 797.478 123.578 796.278ZM113.067 801.057C114.123 801.109 115.16 801.354 116.128 801.781C116.898 802.129 117.555 802.687 118.024 803.39C118.53 804.252 118.77 805.245 118.714 806.243V819.891C118.714 821.275 118.325 822.278 117.533 822.956C116.436 823.853 115.142 824.478 113.757 824.78C112.059 825.171 110.322 825.361 108.58 825.348H108.245C106.785 825.348 105.388 825.276 104.071 825.178V802.319C104.558 802.145 105.117 801.98 105.735 801.819C106.938 801.52 108.158 801.292 109.388 801.138C110.609 800.988 111.841 800.959 113.067 801.049V801.057Z" fill="white"/>
<path d="M186.696 788.036C186.696 789.005 186.696 790.004 186.658 790.999C186.62 791.994 186.62 792.887 186.62 793.7V793.894C185.688 793.652 184.671 793.41 183.567 793.171C181.578 792.728 179.547 792.504 177.51 792.502H176.917C175.068 792.49 173.234 792.829 171.511 793.501C169.881 794.137 168.385 795.074 167.1 796.261C165.764 797.509 164.704 799.023 163.988 800.704C163.271 802.386 162.914 804.199 162.939 806.027V819.091C162.939 822.092 163.557 824.594 164.78 826.563C166.072 828.577 167.875 830.212 170.004 831.304C171.64 832.15 173.413 832.699 175.241 832.925C177.264 833.213 179.305 833.354 181.349 833.348C183.436 833.348 185.582 833.26 187.788 833.09C189.994 832.921 191.966 832.735 193.863 832.54L195.518 832.371V778.075H186.878L186.696 788.036ZM178.957 801.002C179.741 801.001 180.525 801.049 181.303 801.146C182.533 801.3 183.753 801.529 184.956 801.832C185.574 801.988 186.133 802.154 186.624 802.327V825.187C185.278 825.284 183.868 825.343 182.391 825.36H182.069C180.337 825.373 178.609 825.183 176.921 824.793C175.535 824.495 174.24 823.869 173.145 822.969C172.349 822.291 171.964 821.275 171.964 819.904V806.256C171.909 805.259 172.149 804.268 172.654 803.407C173.12 802.698 173.775 802.134 174.546 801.781C175.507 801.351 176.539 801.1 177.59 801.04C178.056 801.015 178.513 801.002 178.957 801.002Z" fill="white"/>
<path d="M228.702 795.152L228.66 795.122C227.135 794.073 225.417 793.338 223.605 792.959C221.61 792.471 219.563 792.222 217.509 792.218C215.514 792.195 213.53 792.513 211.642 793.158C209.915 793.757 208.33 794.705 206.985 795.943C205.663 797.18 204.631 798.693 203.963 800.375C203.265 802.155 202.918 804.052 202.938 805.963V820.746C203.048 825.182 204.458 828.467 207.121 830.482C209.661 832.421 213.018 833.403 217.141 833.403C219.605 833.395 222.056 833.041 224.422 832.353C226.811 831.674 229.104 830.699 231.25 829.449L232.787 828.552L228.842 821.245L227.229 822.092C225.605 822.96 223.888 823.641 222.111 824.12C220.593 824.537 219.028 824.761 217.454 824.784C215.983 824.848 214.527 824.465 213.276 823.688C212.726 823.315 212.006 822.596 212.006 820.674V819.137L233.752 817.541V806.467C233.776 804.44 233.465 802.424 232.834 800.498C232.144 798.572 230.764 796.773 228.702 795.152ZM211.976 810.514V805.963C211.929 805.057 212.122 804.155 212.535 803.347C212.884 802.731 213.378 802.209 213.975 801.827C214.624 801.429 215.342 801.155 216.091 801.019C216.907 800.854 217.736 800.768 218.568 800.761C219.228 800.776 219.885 800.851 220.532 800.985C221.241 801.124 221.919 801.389 222.534 801.768C223.168 802.165 223.704 802.7 224.101 803.334C224.542 804.137 224.749 805.048 224.697 805.963V809.557L211.976 810.514Z" fill="white"/>
<path d="M256.621 817.11L249.03 792.582H239.357L251.909 832.553H261.235L273.947 792.582H264.27L256.621 817.11Z" fill="white"/>
<path d="M303.259 795.152L303.216 795.122C301.692 794.071 299.974 793.336 298.162 792.959C296.167 792.471 294.12 792.222 292.066 792.218C290.071 792.195 288.087 792.513 286.199 793.158C284.472 793.757 282.887 794.705 281.542 795.943C280.22 797.18 279.188 798.693 278.519 800.375C277.822 802.155 277.474 804.052 277.495 805.963V820.746C277.605 825.182 279.015 828.467 281.677 830.482C284.217 832.421 287.574 833.403 291.698 833.403C294.163 833.394 296.615 833.041 298.983 832.353C301.37 831.675 303.663 830.699 305.807 829.449L307.344 828.552L303.398 821.245L301.786 822.092C300.162 822.96 298.445 823.641 296.668 824.12C295.15 824.537 293.585 824.761 292.011 824.784C290.54 824.848 289.083 824.465 287.833 823.688C287.282 823.315 286.563 822.596 286.563 820.674V819.137L308.309 817.541V806.467C308.333 804.44 308.022 802.424 307.39 800.498C306.7 798.572 305.32 796.773 303.259 795.152ZM286.533 810.514V805.963C286.486 805.057 286.679 804.155 287.092 803.347C287.44 802.731 287.934 802.209 288.531 801.827C289.181 801.43 289.899 801.156 290.648 801.019C291.463 800.855 292.292 800.768 293.124 800.761C293.784 800.776 294.442 800.851 295.089 800.985C295.798 801.124 296.476 801.389 297.091 801.768C297.81 802.192 298.395 802.811 298.778 803.553C299.161 804.296 299.326 805.131 299.254 805.963V809.557L286.533 810.514Z" fill="white"/>
<path d="M327.345 778.066H318.227V832.557H327.345V778.066Z" fill="white"/>
<path d="M364.764 798.691C364.064 797.518 363.176 796.468 362.135 795.584C361.127 794.752 360.001 794.076 358.795 793.577C357.652 793.139 356.471 792.805 355.268 792.578C352.532 792.095 349.733 792.095 346.997 792.578C345.871 792.801 344.772 793.14 343.716 793.59C342.522 794.087 341.404 794.751 340.397 795.562C339.331 796.442 338.415 797.49 337.688 798.665C336.863 800.022 336.258 801.501 335.897 803.047C335.466 804.905 335.26 806.808 335.283 808.715V817.719C335.283 822.342 336.629 826.127 339.279 828.954C341.929 831.782 346.002 833.277 351.276 833.277C356.78 833.277 360.818 831.863 363.328 829.073C365.47 826.702 366.715 823.506 366.978 819.557H367.045V808.715C367.07 806.805 366.878 804.897 366.474 803.03C366.134 801.503 365.557 800.039 364.764 798.691ZM344.325 818.291V807.983C344.286 806.776 344.498 805.573 344.948 804.452C345.304 803.616 345.834 802.864 346.501 802.247C347.11 801.703 347.834 801.302 348.618 801.074C349.476 800.816 350.367 800.682 351.264 800.676C352.125 800.678 352.981 800.81 353.804 801.066C354.557 801.296 355.249 801.694 355.827 802.23C356.474 802.846 356.98 803.594 357.313 804.423C357.745 805.558 357.948 806.768 357.91 807.983V818.291C357.949 819.4 357.779 820.507 357.41 821.555C357.154 822.244 356.731 822.86 356.179 823.345C355.611 823.814 354.943 824.144 354.227 824.31C353.257 824.546 352.262 824.661 351.264 824.653C350.233 824.664 349.205 824.539 348.207 824.281C347.455 824.09 346.755 823.735 346.158 823.239C345.578 822.729 345.125 822.09 344.838 821.373C344.462 820.39 344.288 819.342 344.325 818.291Z" fill="white"/>
<path d="M405.483 798.72C404.803 797.53 403.918 796.468 402.871 795.584C401.865 794.752 400.741 794.075 399.535 793.577C398.392 793.139 397.212 792.805 396.009 792.578C393.272 792.095 390.473 792.095 387.737 792.578C386.61 792.801 385.509 793.14 384.452 793.59C383.259 794.087 382.143 794.751 381.137 795.562C380.071 796.442 379.156 797.49 378.428 798.665C377.602 800.021 376.997 801.5 376.637 803.047C376.206 804.905 376 806.808 376.023 808.715V846.493L384.685 848.381L384.757 831.968C385.423 832.248 386.111 832.473 386.814 832.642C388.517 833.059 390.263 833.272 392.017 833.277C397.071 833.277 400.991 831.909 403.675 829.213C406.359 826.516 407.709 822.748 407.709 818.007V808.715C407.734 806.806 407.542 804.9 407.138 803.034C406.802 801.522 406.245 800.069 405.483 798.72ZM396.91 823.273C396.342 823.761 395.67 824.113 394.946 824.302C393.99 824.555 393.005 824.679 392.017 824.67C389.875 824.67 388.177 824.175 386.831 823.155C385.641 822.257 385.066 820.716 385.066 818.452V808C385.026 806.792 385.238 805.59 385.688 804.469C386.043 803.633 386.571 802.881 387.237 802.264C387.848 801.721 388.57 801.321 389.354 801.091C390.214 800.833 391.106 800.699 392.004 800.693C392.865 800.696 393.721 800.827 394.544 801.083C395.296 801.313 395.987 801.711 396.563 802.247C397.21 802.863 397.716 803.611 398.049 804.44C398.484 805.574 398.689 806.785 398.65 808V818.452C398.682 819.472 398.515 820.488 398.159 821.445C397.89 822.141 397.462 822.766 396.91 823.269V823.273Z" fill="white"/>
<path d="M443.053 795.152L443.011 795.122C441.486 794.074 439.768 793.339 437.957 792.959C435.961 792.471 433.915 792.222 431.861 792.218C429.866 792.196 427.882 792.514 425.993 793.158C424.267 793.757 422.682 794.705 421.337 795.943C420.016 797.18 418.985 798.693 418.318 800.376C417.62 802.155 417.27 804.052 417.29 805.963V820.746C417.404 825.182 418.81 828.467 421.472 830.483C424.012 832.421 427.369 833.403 431.492 833.403C433.958 833.394 436.41 833.041 438.778 832.354C441.166 831.673 443.46 830.698 445.606 829.45L447.139 828.552L443.189 821.254L441.576 822.101C439.952 822.967 438.235 823.647 436.458 824.128C434.94 824.546 433.376 824.769 431.801 824.793C430.33 824.856 428.874 824.474 427.623 823.697C427.073 823.324 426.353 822.604 426.353 820.682V819.137L448.1 817.541V806.467C448.117 804.444 447.803 802.432 447.168 800.511C446.495 798.572 445.115 796.773 443.053 795.152ZM426.328 810.514V805.963C426.283 805.058 426.475 804.156 426.887 803.347C427.235 802.731 427.729 802.209 428.326 801.827C428.976 801.43 429.693 801.156 430.443 801.019C431.258 800.855 432.087 800.768 432.919 800.761C433.581 800.776 434.239 800.851 434.888 800.985C435.596 801.127 436.273 801.392 436.89 801.768C437.608 802.194 438.191 802.813 438.573 803.555C438.955 804.297 439.12 805.132 439.049 805.963V809.557L426.328 810.514Z" fill="white"/>
<path d="M475.765 792.51C474.724 792.306 473.664 792.208 472.603 792.218C470.851 792.242 469.111 792.511 467.434 793.018C466.661 793.243 465.902 793.513 465.161 793.827L465.042 792.582H456.834V832.552H465.88V804.655C465.893 804.247 466.042 803.855 466.304 803.542C466.728 802.986 467.249 802.51 467.84 802.136C468.554 801.684 469.334 801.345 470.152 801.133C471.05 800.888 471.977 800.763 472.908 800.761C473.321 800.774 473.732 800.825 474.135 800.913C474.799 801.042 475.454 801.208 476.1 801.408L477.865 801.946L480.363 793.623L478.508 793.149C477.547 792.891 476.629 792.688 475.765 792.51Z" fill="white"/>
<path d="M517.863 778.075H509.041V779.916C509.041 781.736 509.041 783.684 509.007 785.699L508.855 798.001C508.855 799.935 508.821 801.861 508.821 803.72V820.39C508.711 824.2 509.668 827.244 511.619 829.5C513.601 831.757 516.331 833.223 519.307 833.628L520.831 833.873L523.426 826.41L521.707 825.796C519.049 824.844 517.863 823.32 517.863 820.852V801.425H526.876V792.591H517.863V778.075Z" fill="white"/>
<path d="M558.2 795.152L558.162 795.122C556.63 794.069 554.902 793.333 553.082 792.959C551.088 792.471 549.043 792.222 546.99 792.218C544.995 792.195 543.011 792.513 541.123 793.158C539.395 793.756 537.81 794.704 536.466 795.943C535.143 797.179 534.11 798.692 533.444 800.375C532.745 802.155 532.395 804.052 532.415 805.963V820.746C532.529 825.182 533.939 828.467 536.597 830.482C539.137 832.421 542.498 833.403 546.617 833.403C549.083 833.395 551.535 833.042 553.903 832.353C556.292 831.675 558.586 830.7 560.731 829.449L562.268 828.552L558.322 821.245L556.71 822.092C555.084 822.96 553.366 823.64 551.587 824.12C550.07 824.538 548.505 824.761 546.931 824.784C545.458 824.847 544.001 824.465 542.748 823.688C542.202 823.315 541.478 822.596 541.478 820.674V819.137L563.229 817.541V806.467C563.252 804.445 562.943 802.433 562.314 800.511C561.646 798.572 560.266 796.773 558.2 795.152ZM541.478 810.514V805.963C541.431 805.057 541.624 804.155 542.037 803.347C542.385 802.732 542.878 802.21 543.472 801.827C544.122 801.431 544.84 801.157 545.589 801.019C546.406 800.855 547.236 800.768 548.069 800.761C548.73 800.776 549.387 800.851 550.034 800.985C550.744 801.123 551.422 801.39 552.036 801.772C552.672 802.163 553.208 802.698 553.598 803.334C554.043 804.136 554.252 805.048 554.199 805.963V809.557L541.478 810.514Z" fill="white"/>
<path d="M603.49 800.748C603.104 799.955 602.658 799.192 602.157 798.466L602.081 798.365C600.575 796.46 598.583 794.998 596.315 794.131C594.122 793.285 591.315 792.705 587.963 792.438L586.269 792.311L584.966 800.075C583.23 800.156 581.516 800.503 579.886 801.104C577.568 801.907 575.55 803.398 574.103 805.379C572.63 807.386 571.885 810.146 571.885 813.579V819.082C571.885 822.079 572.507 824.585 573.73 826.554C575.021 828.567 576.822 830.203 578.95 831.295C580.586 832.141 582.359 832.69 584.187 832.917C586.211 833.204 588.254 833.346 590.299 833.34C592.395 833.34 594.558 833.251 596.738 833.077C598.918 832.904 600.904 832.726 602.813 832.531L604.464 832.362V805.625C604.471 804.773 604.398 803.922 604.244 803.085C604.092 802.277 603.838 801.492 603.49 800.748ZM595.591 810.789V825.182C594.249 825.28 592.839 825.339 591.379 825.356H591.061C589.327 825.369 587.596 825.179 585.905 824.789C584.52 824.489 583.225 823.864 582.129 822.964C581.338 822.287 580.948 821.271 580.948 819.899V813.803C580.948 812.372 581.185 811.263 581.626 810.641C582.009 810.036 582.561 809.555 583.213 809.257C583.882 808.972 584.603 808.828 585.33 808.833C586.244 808.833 586.981 808.833 587.522 808.897H587.764C589.341 809.022 590.901 809.305 592.42 809.744C593.496 810.032 594.555 810.382 595.591 810.789Z" fill="white"/>
<path d="M663.488 805.523C663.319 801.578 661.998 798.327 659.56 795.914C657.121 793.501 653.722 792.218 649.51 792.218C647.426 792.213 645.352 792.498 643.346 793.065C641.924 793.465 640.523 793.942 639.151 794.491C638.092 793.733 636.905 793.173 635.646 792.836C632.105 791.866 628.345 792.068 624.927 793.412C624.009 793.772 623.111 794.153 622.235 794.546L622.138 792.595H613.705V832.565H622.752V825.995C622.752 823.984 622.752 821.707 622.713 819.222C622.688 816.809 622.675 814.142 622.675 811.077V803.254C623.814 802.695 624.906 802.183 625.939 801.726C627.124 801.209 628.391 800.906 629.681 800.829C630.418 800.829 631.201 800.854 632.018 800.901C632.578 800.911 633.123 801.081 633.591 801.388C634.058 801.696 634.429 802.13 634.66 802.64C634.888 803.064 635.155 803.91 635.155 805.604V832.557H644.202V805.591C644.208 804.38 644.11 803.17 643.909 801.976C644.502 801.773 645.099 801.578 645.683 801.4C646.61 801.116 647.557 800.9 648.515 800.752C649.154 800.775 649.791 800.83 650.424 800.917C651.119 801.011 651.791 801.227 652.41 801.557C653.004 801.889 653.503 802.367 653.862 802.945C654.251 803.529 654.446 804.418 654.446 805.591V832.544H663.488V805.515V805.523Z" fill="white"/>
<path d="M96.8409 634.266H62.3398L60.7988 635.536C56.7518 638.851 52.8953 642.043 49.2971 645.061C46.2279 647.682 42.8879 650.484 39.3785 653.388L39.3489 653.414C39.3489 651.72 39.3376 649.834 39.315 647.754C39.2557 637.361 39.1034 622.735 38.8917 604.286L38.8197 598.783H15.5918V734.781H39.4039V686.099L69.9893 734.781H98.7755L56.8069 669.237L96.8409 634.266Z" fill="white"/>
<path d="M131.748 598.775C128.487 598.783 125.329 599.921 122.813 601.995C120.297 604.069 118.577 606.952 117.947 610.151C117.317 613.351 117.816 616.67 119.358 619.543C120.9 622.417 123.39 624.667 126.404 625.911C129.419 627.154 132.771 627.315 135.891 626.365C139.01 625.415 141.704 623.413 143.514 620.7C145.323 617.987 146.136 614.731 145.815 611.486C145.494 608.241 144.057 605.207 141.751 602.902C140.446 601.577 138.888 600.529 137.17 599.82C135.451 599.111 133.607 598.755 131.748 598.775Z" fill="white"/>
<path d="M143.74 634.444H119.75V734.773H143.74V634.444Z" fill="white"/>
<path d="M219.669 634.296C217.088 633.78 214.461 633.53 211.829 633.551C207.507 633.609 203.215 634.289 199.087 635.57C197.686 635.993 196.327 636.459 195.023 636.976L194.786 634.436H172.904V734.764H196.894V665.165C196.915 664.374 197.199 663.612 197.703 663.002C198.635 661.749 199.781 660.671 201.089 659.818C202.686 658.783 204.436 658.006 206.275 657.515C208.314 656.95 210.42 656.665 212.536 656.669C213.441 656.706 214.34 656.822 215.224 657.016C216.766 657.326 218.29 657.721 219.788 658.201L225.206 659.894L231.798 637.352L226.26 635.896C223.949 635.265 221.731 634.736 219.669 634.296Z" fill="white"/>
<path d="M324.593 671.185H254.943V695.352H324.593V671.185Z" fill="white"/>
<path d="M411.719 624.225V624.327C411.719 626.769 411.69 629.212 411.635 631.582C411.584 633.64 411.55 635.566 411.546 637.323C409.709 636.857 407.753 636.39 405.678 635.921C400.342 634.708 394.877 634.152 389.406 634.266C384.83 634.241 380.293 635.104 376.046 636.806C371.99 638.433 368.28 640.813 365.111 643.821C361.923 646.887 359.376 650.556 357.618 654.616C355.725 659.012 354.773 663.756 354.824 668.543V700.648C354.824 708.192 356.357 714.538 359.383 719.507C362.41 724.477 366.741 728.495 372.299 731.551C375.847 733.541 380.207 734.938 385.266 735.678C390.172 736.388 395.124 736.737 400.082 736.72C405.107 736.72 410.331 736.504 415.61 736.081C420.969 735.657 425.74 735.196 430.185 734.73L435.176 734.205V598.741H412.177L411.719 624.225ZM378.814 702.621V669.093C378.814 666.291 379.314 664.115 380.296 662.621C381.297 661.072 382.712 659.834 384.381 659.048C386.532 658.063 388.848 657.489 391.209 657.355C392.263 657.278 393.326 657.24 394.367 657.24C396.188 657.24 398.006 657.358 399.811 657.592C402.704 657.963 405.571 658.513 408.396 659.238C409.542 659.54 410.59 659.851 411.542 660.17V714.635C408.667 714.83 405.678 714.944 402.605 714.978C398.305 715.072 394.01 714.617 389.825 713.623C386.328 712.776 383.538 711.384 381.282 709.39C380.224 708.471 378.814 706.757 378.814 702.621Z" fill="white"/>
<path d="M528.519 641.031L528.4 640.938C525.268 638.55 521.166 636.747 515.849 635.435C510.975 634.209 505.969 633.585 500.943 633.576C496.011 633.52 491.107 634.328 486.453 635.964C482.148 637.502 478.209 639.918 474.888 643.059C471.6 646.221 469.044 650.065 467.399 654.319C465.677 658.812 464.815 663.588 464.859 668.399V704.746C465.143 715.96 468.669 724.287 475.281 729.502C481.559 734.434 489.89 736.936 500.042 736.936C506.064 736.909 512.051 736.02 517.821 734.298C523.653 732.597 529.244 730.159 534.458 727.043L538.975 724.329L528.548 704.513L523.591 707.193C519.792 709.275 515.765 710.911 511.59 712.069C508.057 713.071 504.408 713.604 500.736 713.657C496.871 713.657 493.831 712.848 491.423 711.18C490.305 710.397 488.815 708.869 488.815 704.606V701.749L540.884 697.825V669.648C540.941 664.571 540.18 659.519 538.632 654.683C537.045 649.73 533.62 645.15 528.519 641.031ZM488.857 678.411V668.378C488.857 665.838 489.281 663.823 490.072 662.451C490.809 661.099 491.865 659.948 493.15 659.099C494.557 658.208 496.12 657.59 497.756 657.278C499.625 656.891 501.528 656.686 503.437 656.669C504.935 656.706 506.427 656.88 507.894 657.189C509.451 657.511 510.937 658.112 512.28 658.963C513.664 659.851 514.824 661.048 515.667 662.46C516.513 663.802 516.937 665.8 516.937 668.386V676.248L488.857 678.411Z" fill="white"/>
<path d="M626.299 634.444L608.87 691.771L591.586 634.444H566L596.7 734.773H620.804L651.906 634.444H626.299Z" fill="white"/>
</svg>
