<svg width="3231" height="773" viewBox="0 0 3231 773" fill="none" xmlns="http://www.w3.org/2000/svg">
<g clip-path="url(#clip0_671_34514)">
<path d="M1009.71 478.662V569.675H1011.91L1129.64 478.555H1216.17V480.997L1083.6 580.45L1223.75 700.915V703.357H1136.03L1011.8 595.248H1009.61V703.357H946.07V478.519L1009.71 478.662Z" fill="white"/>
<path d="M1440.52 636.193C1440.52 677.246 1421.66 703.501 1370.99 703.501H1289.41C1239.1 703.501 1220.16 677.246 1220.16 636.193V601.282C1220.16 560.517 1239.03 533.938 1289.41 533.938H1370.99C1421.66 533.938 1440.52 560.517 1440.52 601.282V636.193ZM1360.78 653.792C1378.39 653.792 1384.57 647.902 1384.57 628.651V604.874C1384.57 584.473 1377.78 578.295 1360.78 578.295H1299.9C1282.29 578.295 1276.4 584.796 1276.4 604.874V628.651C1276.4 647.794 1282.29 653.792 1299.9 653.792H1360.78Z" fill="white"/>
<path d="M1466.65 533.938H1605.11C1655.79 533.938 1674.33 560.193 1674.33 601.282V703.501H1618.2V604.982C1618.2 585.515 1611.01 578.403 1594.41 578.403H1533.85L1524.58 553.692H1522.39V703.501H1466.65V533.938Z" fill="white"/>
<path d="M1822.17 576.571H1772.72V703.501H1716.77V576.571H1693.91L1679.07 536.416V533.938H1716.77V513.537C1716.77 473.382 1732.22 462.572 1778.9 462.572H1804.06L1819.23 500.572V503.373H1786.49C1775.99 503.373 1772.9 507.683 1772.9 518.817V533.938H1822.35L1822.17 576.571Z" fill="white"/>
<path d="M1892.93 606.849H1890.7V633.104C1890.7 652.248 1896.27 658.246 1914.17 658.246H2035.03V703.322H1903.75C1853.44 703.322 1834.54 677.066 1834.54 636.014V601.282C1834.54 560.193 1853.37 533.938 1903.75 533.938H2001.71C2027.37 533.938 2037.87 547.227 2037.87 575.314V591.692C2037.87 616.834 2027.37 632.781 2001.71 632.781H1902.53L1892.93 606.849ZM1890.7 598.409H1975.98C1982.81 598.409 1985.58 595.643 1985.58 588.532V582.354C1985.58 575.171 1982.49 572.8 1975.98 572.8H1914.17C1896.89 572.8 1890.7 578.978 1890.7 597.511V598.409Z" fill="white"/>
<path d="M2204.14 604.981H2201.66V581.815C2201.72 581.381 2201.68 580.939 2201.55 580.521C2201.42 580.103 2201.2 579.718 2200.91 579.394C2200.62 579.069 2200.25 578.812 2199.85 578.641C2199.45 578.47 2199.01 578.389 2198.57 578.403H2130.29C2120.41 578.403 2116.71 582.426 2116.71 593.56V703.501H2060.72V581.384C2060.72 552.651 2075.28 533.83 2108.01 533.83H2245.54C2251.11 533.83 2253.59 536.596 2253.59 542.163V586.017L2204.14 604.981Z" fill="white"/>
<path d="M2327.73 606.849H2325.54V633.104C2325.54 652.248 2331.11 658.246 2349.04 658.246H2469.86V703.322H2338.55C2288.23 703.322 2269.33 677.066 2269.33 636.014V601.282C2269.33 560.193 2288.16 533.938 2338.55 533.938H2436.51C2462.17 533.938 2472.7 547.227 2472.7 575.314V591.692C2472.7 616.834 2462.17 632.781 2436.51 632.781H2337.32L2327.73 606.849ZM2325.54 598.409H2410.85C2417.64 598.409 2420.41 595.643 2420.41 588.532V582.354C2420.41 575.171 2417.32 572.8 2410.85 572.8H2349.04C2331.72 572.8 2325.54 578.978 2325.54 597.511V598.409Z" fill="white"/>
<path d="M2496.45 533.938H2634.92C2685.59 533.938 2704.13 560.193 2704.13 601.282V703.501H2648.21V604.982C2648.21 585.515 2641.03 578.403 2624.42 578.403H2563.83L2554.56 553.692H2552.41V703.501H2496.45V533.938Z" fill="white"/>
<path d="M2882.77 604.982H2879.97V581.815C2879.97 579.948 2879.04 578.403 2877.2 578.403H2808.6C2790.95 578.403 2785.1 584.904 2785.1 604.982V628.759C2785.1 647.902 2790.95 653.9 2808.6 653.9H2929.27V703.609H2798.07C2747.76 703.609 2728.86 677.354 2728.86 636.301V601.282C2728.86 560.517 2747.69 533.938 2798.07 533.938H2923.85C2924.98 533.778 2926.14 533.882 2927.22 534.243C2928.31 534.605 2929.3 535.213 2930.11 536.021C2930.92 536.828 2931.54 537.813 2931.9 538.898C2932.27 539.982 2932.38 541.137 2932.22 542.271V586.125L2882.77 604.982Z" fill="white"/>
<path d="M2956.91 507.36V462.572H3012.86V507.36H2956.91ZM2956.91 703.501V533.938H3012.86V703.501H2956.91Z" fill="white"/>
<path d="M3040.97 575.961V533.938H3198.59C3220.83 533.938 3230.93 546.904 3230.93 570.07V696.102C3231.08 697.09 3231 698.099 3230.7 699.051C3230.39 700.003 3229.87 700.872 3229.18 701.588C3228.48 702.305 3227.63 702.851 3226.68 703.183C3225.74 703.515 3224.73 703.624 3223.74 703.501H3075.9C3051.46 703.501 3036.65 691.792 3036.65 655.947V643.269C3036.65 611.159 3051.46 598.481 3075.9 598.481H3162.15L3172.64 623.622H3174.83V589.322C3174.83 579.768 3170.81 576.069 3163.08 576.069L3040.97 575.961ZM3174.8 657.815V631.847H3101.23C3093.83 631.847 3091.03 635.439 3091.03 642.982V650.38C3091.03 657.564 3093.83 661.515 3101.23 661.515H3171.38C3173.86 661.515 3174.8 660.257 3174.8 657.815Z" fill="white"/>
<path d="M1258.97 181.451H1255.2V144.026C1255.31 143.265 1255.24 142.49 1254.99 141.761C1254.75 141.032 1254.34 140.369 1253.79 139.826C1253.25 139.282 1252.59 138.873 1251.86 138.629C1251.13 138.386 1250.35 138.315 1249.59 138.423H1069.91C1056.79 138.423 1052.59 144.026 1052.59 154.801V163.206C1052.59 176.315 1056.18 178.183 1068.51 180.051L1280.03 209.502C1334.29 217.009 1353.49 238.99 1353.49 290.423V317.54C1353.49 373.678 1328.69 404.063 1253.33 404.063H950.095V315.672H1221.99C1237.91 315.672 1242.12 310.536 1242.12 295.559V286.221C1242.12 274.512 1238.85 270.776 1227.13 269.376L1023.12 243.659C967.884 236.476 945.891 214.674 945.891 165.073V141.225C945.891 92.1265 970.22 63.6086 1031.06 63.6086H1333.68C1343.53 63.6086 1348.06 68.7447 1348.06 78.55V148.731L1258.97 181.451Z" fill="white"/>
<path d="M1393.73 107.104V39.2571H1478.44V107.104H1393.73ZM1393.73 404.063V147.331H1478.44V404.063H1393.73Z" fill="white"/>
<path d="M1783.54 147.331H1915.86C1992.58 147.331 2020.69 187.054 2020.69 249.262V404.063H1936.09V254.434C1936.09 224.947 1925.31 214.674 1900.51 214.674H1820.95C1824.27 225.897 1825.86 237.561 1825.66 249.262V404.063H1740.95V254.434C1740.95 224.947 1730.17 214.674 1705.38 214.674H1623.94L1609.93 177.249H1606.8V404.063H1521.92V147.331H1720.83C1757.31 147.331 1780.7 157.603 1798.02 174.448L1799.89 173.047C1793.82 166.2 1788.35 158.846 1783.54 151.066V147.331Z" fill="white"/>
<path d="M2391.41 302.132C2391.41 364.339 2362.84 404.063 2286.12 404.063H2162.57C2086.27 404.063 2057.74 364.339 2057.74 302.132V249.262C2057.74 187.521 2086.27 147.331 2162.57 147.331H2286.01C2362.73 147.331 2391.3 187.521 2391.3 249.262L2391.41 302.132ZM2270.66 328.782C2297.33 328.782 2306.6 319.91 2306.6 290.89V254.973C2306.6 224.085 2296.29 214.746 2270.66 214.746H2178.49C2151.82 214.746 2142.91 224.552 2142.91 254.973V290.89C2142.91 319.91 2151.82 328.782 2178.49 328.782H2270.66Z" fill="white"/>
<path d="M2430.69 147.331H2640.34C2717.11 147.331 2745.17 187.054 2745.17 249.262V404.063H2660.47V254.901C2660.47 225.413 2649.69 214.674 2624.53 214.674H2532.71L2518.7 177.249H2515.39V404.063H2430.69V147.331Z" fill="white"/>
<path d="M3004.74 373.678H3008.34V147.402H3093.51V409.307C3093.51 469.18 3067.31 509.371 2988.68 509.371H2793.54V437.753H2975.56C2999.93 437.753 3008.34 426.978 3008.34 403.597V382.908H2886.94C2810.22 382.908 2781.65 352.02 2781.65 289.345V147.331H2866.82V278.283C2866.82 305.867 2876.2 314.738 2902.75 314.738H2981.81L3004.74 373.678Z" fill="white"/>
<path d="M3137.31 107.104V39.2571H3222.02V107.104H3137.31ZM3137.31 404.063V147.331H3222.02V404.063H3137.31Z" fill="white"/>
<path d="M558.35 545.611L557.811 545.072L432.284 412.396C340.861 320.988 340.861 216.183 429.014 128.079L544.011 0L415.861 114.934C327.708 203.037 219.574 206.306 128.115 114.934L-0.0351562 0L114.962 128.079C206.385 219.451 203.079 327.525 114.962 415.628L-0.0351562 543.707L128.115 428.774C216.268 340.67 321.167 340.67 412.626 432.078L773.431 773.036L558.35 545.611ZM378.882 167.408C326.378 236.619 331.625 303.065 376.474 372.636C288.321 284.604 287.423 258.852 378.882 167.408Z" fill="white"/>
<path d="M599.354 393.683C554.397 348.644 554.397 297.067 597.701 253.608L654.481 190.754L591.448 247.323C548.108 290.638 494.922 292.255 449.965 247.323L386.752 190.754L443.316 253.608C488.273 298.54 486.656 351.733 443.316 395.048L391.567 452.515L392.107 453.09L449.641 401.621C492.981 358.305 544.55 358.305 589.507 403.237L766.963 570.933L599.354 393.683ZM576.929 271.567C551.019 305.759 553.606 338.587 575.743 372.924C532.296 329.213 531.757 316.498 576.929 271.351V271.567Z" fill="white"/>
<path d="M328.138 424.32C293.531 471.838 260.469 524.061 244.657 581.276C236.355 611.303 231.181 650.955 254.755 675.809C273.981 696.066 304.384 696.892 330.222 692.654C374.676 685.471 416.938 663.526 455.031 640.395C558.924 577.326 650.49 488.575 721.933 390.666C752.12 349.29 779.719 304.682 797.4 256.338C808.181 226.706 817.92 189.604 805.342 158.932C792.009 126.606 756.935 119.423 725.203 123.302C662.026 131.24 602.587 168.485 551.593 204.223C545.519 208.461 551.305 218.589 557.45 214.207C601.113 183.642 648.586 154.442 700.478 140.147C729.515 132.174 772.891 125.996 791.362 156.705C806.671 182.134 798.083 217.188 789.637 243.372C776.017 285.322 753.449 324.364 728.904 360.784C665.452 454.01 585.963 535.254 494.13 600.743C456.36 627.681 415.895 652.571 372.304 668.985C344.884 679.257 310.313 689.817 281.348 679.401C243.866 665.896 246.741 620.462 254.827 588.819C269.597 530.921 303.485 478.052 338.272 430.247C342.692 424.212 332.63 418.43 328.282 424.392L328.138 424.32Z" fill="white"/>
<path d="M558.169 212.34C594.681 188.491 635.037 165.037 678.593 157.459C704.827 152.862 736.092 156.489 745.04 185.69C752.874 211.154 743.279 240.822 733.971 264.706C720.208 299.833 700.191 332.517 678.521 363.262C628.615 433.737 567.988 495.979 498.837 547.73C467.677 571.766 433.927 592.246 398.214 608.789C373.562 619.743 344.884 630.339 317.393 627.681C220.148 618.45 314.266 464.583 338.416 429.061C341.398 424.679 334.283 420.585 331.228 424.931C304.24 464.439 277.108 509.407 268.878 557.5C264.781 581.42 265.967 610.046 287.314 625.741C306.791 640.108 334.031 637.414 355.989 632.206C394.046 623.227 429.803 603.832 462.505 582.965C543.075 531.316 613.943 462.787 671.37 386.751C698.43 350.835 723.226 312.547 740.224 270.884C750.61 245.419 760.277 215.105 753.952 187.378C733.289 97.1547 593.099 179.727 554 205.336C549.58 208.209 553.713 215.357 558.169 212.519V212.34Z" fill="white"/>
<path d="M558.997 210.508C575.822 200.479 593.558 192.061 611.967 185.366C625.976 180.107 640.81 177.383 655.774 177.321C666.555 177.644 677.66 180.481 685.422 188.383C690.722 194.083 694.157 201.262 695.269 208.963C698.863 230.513 691.388 253.68 683.338 273.398C670.678 302.905 654.575 330.815 635.362 356.545C594.266 413.143 544.902 463.254 488.92 505.205C463.169 525.025 435.333 541.982 405.906 555.775C385.315 565.114 361.92 573.734 338.92 572.297C320.377 571.256 305.679 561.019 301.869 542.235C299.86 529.234 300.756 515.95 304.493 503.337C309.116 486.341 315.612 469.91 323.863 454.347C328.499 445.26 333.53 436.388 338.812 427.589C339.136 427.036 339.228 426.378 339.066 425.758C338.904 425.138 338.503 424.608 337.95 424.284C337.397 423.96 336.738 423.869 336.118 424.031C335.498 424.193 334.968 424.594 334.644 425.146C323.927 442.485 314.752 460.728 307.224 479.668C301.199 494.256 297.489 509.694 296.227 525.426C295.113 545.683 302.193 566.119 322.353 573.842C341.831 581.276 364.902 575.997 383.913 569.675C413.489 559.87 441.088 544.174 466.891 526.862C527.225 485.849 580.699 435.569 625.336 377.88C647.584 350.173 666.642 320.053 682.152 288.088C692.322 266.322 701.666 241.827 700.911 217.44C700.336 198.512 691.496 181.523 672.629 175.238C660.243 171.823 647.202 171.539 634.68 174.412C617.473 177.956 600.786 183.665 585.015 191.4C575.312 195.926 565.861 200.954 556.553 206.306C556 206.629 555.599 207.16 555.437 207.779C555.275 208.399 555.367 209.057 555.691 209.61C556.015 210.162 556.545 210.564 557.165 210.725C557.785 210.887 558.444 210.796 558.997 210.472V210.508Z" fill="white"/>
<path d="M727.646 300.874C738.324 300.874 746.98 292.223 746.98 281.551C746.98 270.879 738.324 262.228 727.646 262.228C716.969 262.228 708.312 270.879 708.312 281.551C708.312 292.223 716.969 300.874 727.646 300.874Z" fill="white"/>
<path d="M630.977 513.933C641.654 513.933 650.311 505.281 650.311 494.609C650.311 483.937 641.654 475.286 630.977 475.286C620.299 475.286 611.643 483.937 611.643 494.609C611.643 505.281 620.299 513.933 630.977 513.933Z" fill="white"/>
<path d="M402.492 574.847C413.17 574.847 421.826 566.196 421.826 555.524C421.826 544.852 413.17 536.201 402.492 536.201C391.814 536.201 383.158 544.852 383.158 555.524C383.158 566.196 391.814 574.847 402.492 574.847Z" fill="white"/>
</g>
<defs>
<clipPath id="clip0_671_34514">
<rect width="3231" height="773" fill="white"/>
</clipPath>
</defs>
</svg>
