<svg width="243" height="53" viewBox="0 0 243 53" fill="none" xmlns="http://www.w3.org/2000/svg">
<path d="M49.877 51.8827H0V2.03564H49.877L24.9385 26.9442L49.877 51.8827Z" fill="url(#paint0_linear_826_18)"/>
<path d="M110.232 1.87598H100.223L78.6475 25.0182V2.03565H70.674V51.8827H78.6475V27.8024L100.383 51.8827H110.542L87.5591 26.1059L110.232 1.87598Z" fill="white"/>
<path d="M137.276 17.0444C134.462 15.4776 131.179 14.5396 127.736 14.5396C124.144 14.5396 120.86 15.3179 118.046 17.0444C115.232 18.7708 112.887 20.9563 111.32 23.7705C109.753 26.7443 108.975 30.0276 108.975 33.6201C108.975 37.2127 109.753 40.6556 111.32 43.4698C112.887 46.284 115.072 48.6291 118.046 50.1959C120.86 51.7627 124.144 52.7007 127.736 52.7007C131.329 52.7007 134.612 51.9223 137.426 50.1959C140.24 48.6291 142.426 46.284 143.993 43.4698C145.559 40.4959 146.338 37.2127 146.338 33.6201C146.338 30.0276 145.4 26.7443 143.833 23.7705C142.286 20.9463 140.091 18.6012 137.276 17.0444ZM136.658 39.997C135.72 41.8731 134.472 43.2802 132.905 44.2183C131.339 45.316 129.463 45.785 127.437 45.785C125.411 45.785 123.525 45.316 121.808 44.2183C120.242 43.1205 118.994 41.7134 118.056 39.997C117.118 38.1208 116.809 36.085 116.809 33.7399C116.809 31.3947 117.278 29.2092 118.216 27.4828C119.154 25.6067 120.401 24.1996 121.968 23.2615C123.535 22.1638 125.411 21.6948 127.596 21.6948C129.632 21.6948 131.508 22.1638 133.065 23.2615C134.632 24.3593 135.879 25.7664 136.817 27.4828C137.755 29.3589 138.065 31.3947 138.065 33.7399C138.065 36.085 137.596 38.1208 136.658 39.997Z" fill="white"/>
<path d="M162.454 6.25684H154.79V12.5139C154.79 13.452 154.63 14.2304 154.012 14.6994C153.543 15.1684 152.764 15.4778 151.826 15.4778H148.074V22.0442H154.64V41.7435C154.64 43.7793 155.109 45.6555 155.888 47.2122C156.666 48.779 157.924 50.0264 159.48 50.8048C161.047 51.7429 162.764 52.0522 164.949 52.0522H170.887V45.1765H166.506C165.408 45.1765 164.47 44.8671 163.692 43.929C163.063 43.1506 162.594 42.0529 162.594 40.8055V22.0442H171.037V15.4778H162.594V6.25684H162.454Z" fill="white"/>
<path d="M184.808 0H176.994V51.8828H184.808V0Z" fill="white"/>
<path d="M201.693 0.15918H193.72V8.29238H201.693V0.15918Z" fill="white"/>
<path d="M201.534 15.478H193.72V52.0325H201.534V15.478Z" fill="white"/>
<path d="M241.411 21.4153C240.314 19.2299 238.757 17.5034 236.721 16.4157C234.685 15.1683 232.34 14.5396 229.686 14.5396C226.871 14.5396 224.366 15.3179 222.181 16.5753C220.465 17.6731 219.057 19.2299 217.96 20.9563V15.3279H210.455V51.8824H218.269V31.3947C218.269 29.3589 218.578 27.6425 219.367 26.0757C220.145 24.509 221.243 23.4212 222.49 22.4831C223.897 21.7048 225.464 21.2357 227.34 21.2357C229.057 21.2357 230.314 21.5451 231.562 22.3335C232.809 23.1218 233.597 24.0499 234.216 25.3073C234.845 26.5547 235.154 28.1215 235.154 29.838V51.7227H242.968V28.8999C243.138 26.1057 242.519 23.6108 241.411 21.4153Z" fill="white"/>
<defs>
<linearGradient id="paint0_linear_826_18" x1="49.87" y1="2.0278" x2="0.00745692" y2="51.8903" gradientUnits="userSpaceOnUse">
<stop offset="0.00343514" stop-color="#E44857"/>
<stop offset="0.4689" stop-color="#C711E1"/>
<stop offset="1" stop-color="#7F52FF"/>
</linearGradient>
</defs>
</svg>
