<?xml version="1.0" encoding="UTF-8" standalone="no"?>
<!-- Created with Inkscape (http://www.inkscape.org/) -->

<svg
   version="1.1"
   id="svg2"
   width="886.76398"
   height="379.95334"
   viewBox="0 0 886.76396 379.95334"
   sodipodi:docname="paks-ii.svg"
   xmlns:inkscape="http://www.inkscape.org/namespaces/inkscape"
   xmlns:sodipodi="http://sodipodi.sourceforge.net/DTD/sodipodi-0.dtd"
   xmlns="http://www.w3.org/2000/svg"
   xmlns:svg="http://www.w3.org/2000/svg">
  <defs
     id="defs6">
    <clipPath
       clipPathUnits="userSpaceOnUse"
       id="clipPath16">
      <path
         d="M 0,595.28 H 841.89 V 0 H 0 Z"
         id="path14" />
    </clipPath>
    <linearGradient
       x1="0"
       y1="0"
       x2="1"
       y2="0"
       gradientUnits="userSpaceOnUse"
       gradientTransform="matrix(151.79871,0,0,-151.79871,176.8174,142.48196)"
       spreadMethod="pad"
       id="linearGradient78">
      <stop
         style="stop-opacity:1;stop-color:#00b2d3"
         offset="0"
         id="stop70" />
      <stop
         style="stop-opacity:1;stop-color:#00b2d3"
         offset="0.262248"
         id="stop72" />
      <stop
         style="stop-opacity:1;stop-color:#006db8"
         offset="0.903055"
         id="stop74" />
      <stop
         style="stop-opacity:1;stop-color:#006db8"
         offset="1"
         id="stop76" />
    </linearGradient>
    <linearGradient
       x1="0"
       y1="0"
       x2="1"
       y2="0"
       gradientUnits="userSpaceOnUse"
       gradientTransform="matrix(199.29306,0,0,-199.29306,176.81741,120.94077)"
       spreadMethod="pad"
       id="linearGradient102">
      <stop
         style="stop-opacity:1;stop-color:#006db8"
         offset="0"
         id="stop94" />
      <stop
         style="stop-opacity:1;stop-color:#006db8"
         offset="0.0969452"
         id="stop96" />
      <stop
         style="stop-opacity:1;stop-color:#00b2d3"
         offset="0.737752"
         id="stop98" />
      <stop
         style="stop-opacity:1;stop-color:#00b2d3"
         offset="1"
         id="stop100" />
    </linearGradient>
    <linearGradient
       x1="0"
       y1="0"
       x2="1"
       y2="0"
       gradientUnits="userSpaceOnUse"
       gradientTransform="matrix(246.78726,0,0,-246.78726,176.81742,79.809545)"
       spreadMethod="pad"
       id="linearGradient126">
      <stop
         style="stop-opacity:1;stop-color:#006db8"
         offset="0"
         id="stop118" />
      <stop
         style="stop-opacity:1;stop-color:#006db8"
         offset="0.0969452"
         id="stop120" />
      <stop
         style="stop-opacity:1;stop-color:#00b2d3"
         offset="0.737752"
         id="stop122" />
      <stop
         style="stop-opacity:1;stop-color:#00b2d3"
         offset="1"
         id="stop124" />
    </linearGradient>
  </defs>
  <sodipodi:namedview
     id="namedview4"
     pagecolor="#ffffff"
     bordercolor="#000000"
     borderopacity="0.25"
     inkscape:showpageshadow="2"
     inkscape:pageopacity="0.0"
     inkscape:pagecheckerboard="0"
     inkscape:deskcolor="#d1d1d1"
     showgrid="false" />
  <g
     id="g8"
     inkscape:groupmode="layer"
     inkscape:label="Paks_II_LOGO_fekvo_hun_v01"
     transform="matrix(1.3333333,0,0,-1.3333333,-117.87866,586.82932)">
    <g
       id="g10">
      <g
         id="g12"
         clip-path="url(#clipPath16)">
        <g
           id="g18"
           transform="translate(418.6587,309.6688)">
          <path
             d="M 0,0 C 0,5.636 -4.328,9.059 -9.966,9.059 H -25.064 V -8.959 H -9.966 C -4.328,-8.959 0,-5.536 0,0 m -39.357,-45.497 v 67.138 h 31.405 c 14.595,0 22.546,-9.865 22.546,-21.641 0,-11.676 -8.052,-21.541 -22.546,-21.541 h -17.112 v -23.956 z"
             style="fill:#575756;fill-opacity:1;fill-rule:nonzero;stroke:none"
             id="path20" />
        </g>
        <g
           id="g22"
           transform="translate(540.7623,264.1718)">
          <path
             d="m 0,0 -20.332,26.977 -5.234,-6.342 V 0 H -39.86 v 67.138 h 14.294 V 37.243 L -1.812,67.138 H 15.803 L -10.87,35.632 17.614,0 Z"
             style="fill:#575756;fill-opacity:1;fill-rule:nonzero;stroke:none"
             id="path24" />
        </g>
        <g
           id="g26"
           transform="translate(555.9654,273.6337)">
          <path
             d="m 0,0 7.851,11.173 c 4.73,-4.933 12.078,-9.16 21.337,-9.16 7.953,0 11.678,3.523 11.678,7.448 0,11.677 -38.652,3.523 -38.652,28.788 0,11.173 9.663,20.434 25.466,20.434 10.669,0 19.528,-3.222 26.171,-9.362 L 45.898,38.652 C 40.464,43.685 33.216,46 26.372,46 c -6.04,0 -9.463,-2.617 -9.463,-6.644 0,-10.569 38.552,-3.421 38.552,-28.485 0,-12.28 -8.857,-21.541 -26.875,-21.541 C 15.601,-10.67 6.341,-6.342 0,0"
             style="fill:#575756;fill-opacity:1;fill-rule:nonzero;stroke:none"
             id="path28" />
        </g>
        <path
           d="m 646.862,331.309 h 14.293 v -67.138 h -14.293 z"
           style="fill:#575756;fill-opacity:1;fill-rule:nonzero;stroke:none"
           id="path30" />
        <path
           d="m 674.442,331.309 h 14.294 v -67.138 h -14.294 z"
           style="fill:#575756;fill-opacity:1;fill-rule:nonzero;stroke:none"
           id="path32" />
        <g
           id="g34"
           transform="translate(696.0845,271.2177)">
          <path
             d="m 0,0 c 0,4.429 3.725,8.153 8.152,8.153 4.429,0 8.153,-3.724 8.153,-8.153 0,-4.429 -3.724,-8.152 -8.153,-8.152 C 3.725,-8.152 0,-4.429 0,0"
             style="fill:#575756;fill-opacity:1;fill-rule:nonzero;stroke:none"
             id="path36" />
        </g>
        <g
           id="g38"
           transform="translate(470.7017,331.3094)">
          <path
             d="m 0,0 h -17.918 l -25.868,-67.138 h 16.206 l 18.622,52.845 18.62,-52.845 h 16.206 z"
             style="fill:#575756;fill-opacity:1;fill-rule:nonzero;stroke:none"
             id="path40" />
        </g>
        <g
           id="g42"
           transform="translate(712.3892,316.2372)">
          <path
             d="M 0,0 V 2.147 L 7.688,12.753 H 0 v 2.329 H 11.147 V 12.956 L 3.415,2.329 h 7.892 V 0 Z"
             style="fill:#1d1d1b;fill-opacity:1;fill-rule:nonzero;stroke:none"
             id="path44" />
        </g>
        <g
           id="g46"
           transform="translate(735.1617,326.6151)">
          <path
             d="m 0,0 c 0,1.447 -1.086,2.375 -2.578,2.375 h -3.641 v -4.794 h 3.641 C -1.086,-2.419 0,-1.47 0,0 m -0.249,-10.378 -3.324,5.63 h -2.646 v -5.63 H -8.864 V 4.704 h 6.625 c 2.984,0 4.952,-1.922 4.952,-4.726 0,-2.668 -1.764,-4.138 -3.595,-4.432 l 3.708,-5.924 z"
             style="fill:#1d1d1b;fill-opacity:1;fill-rule:nonzero;stroke:none"
             id="path48" />
        </g>
        <g
           id="g50"
           transform="translate(743.5084,316.2372)">
          <path
             d="m 0,0 v 12.753 h -4.568 v 2.329 H 7.213 V 12.753 H 2.645 V 0 Z"
             style="fill:#1d1d1b;fill-opacity:1;fill-rule:nonzero;stroke:none"
             id="path52" />
        </g>
        <g
           id="g54"
           transform="translate(750.315,317.5936)">
          <path
             d="M 0,0 C 0,0.836 0.725,1.56 1.584,1.56 2.443,1.56 3.167,0.836 3.167,0 3.167,-0.859 2.443,-1.605 1.584,-1.605 0.725,-1.605 0,-0.859 0,0"
             style="fill:#1d1d1b;fill-opacity:1;fill-rule:nonzero;stroke:none"
             id="path56" />
        </g>
      </g>
    </g>
    <g
       id="g58">
      <g
         id="g60">
        <g
           id="g66">
          <g
             id="g68">
            <path
               d="M 88.409,405.847 V 299.117 264.84 155.157 l 29.684,17.138 v 109.683 l 122.114,70.503 -20.539,11.859 -131.259,75.782 z m 29.684,-17.138 62.747,-36.228 -62.747,-36.226 z"
               style="fill:url(#linearGradient78);stroke:none"
               id="path80" />
          </g>
        </g>
      </g>
    </g>
    <g
       id="g82">
      <g
         id="g84">
        <g
           id="g90">
          <g
             id="g92">
            <path
               d="M 88.409,244.275 V 209.999 L 287.702,325.06 258.017,342.199 Z"
               style="fill:url(#linearGradient102);stroke:none"
               id="path104" />
          </g>
        </g>
      </g>
    </g>
    <g
       id="g106">
      <g
         id="g108">
        <g
           id="g114">
          <g
             id="g116">
            <path
               d="M 88.409,189.434 V 155.157 L 335.196,297.64 305.512,314.779 Z"
               style="fill:url(#linearGradient126);stroke:none"
               id="path128" />
          </g>
        </g>
      </g>
    </g>
  </g>
</svg>
