<svg width="2000" height="400" viewBox="0 0 2000 400" fill="none" xmlns="http://www.w3.org/2000/svg">
<rect width="2000" height="400" rx="40" fill="white"/>
<path d="M290.968 117.175C299.165 117.175 307.384 116.988 315.578 117.208C318.691 117.29 321.798 117.539 324.884 117.954L322.613 117.64C328.779 118.484 334.848 120.027 340.594 122.444L338.553 121.579C343.043 123.463 347.274 125.917 351.144 128.88L349.414 127.538C352.736 130.106 355.72 133.088 358.293 136.412L356.955 134.675C359.305 137.734 361.257 141.082 362.762 144.638L361.901 142.587C363.358 146.054 364.355 149.7 364.867 153.429C364.762 152.667 364.658 151.906 364.554 151.146C365.035 154.771 365.035 158.445 364.554 162.071C364.658 161.31 364.762 160.549 364.867 159.788C364.387 163.306 363.452 166.745 362.086 170.02L362.948 167.968C361.557 171.263 359.751 174.367 357.577 177.202L358.913 175.464C356.549 178.516 353.811 181.255 350.763 183.617L352.492 182.274C348.802 185.102 344.766 187.442 340.484 189.237L342.525 188.372C336.672 190.84 330.474 192.379 324.191 193.232L326.464 192.919C321.369 193.596 316.261 193.739 311.13 193.739H290.968C286.307 193.739 282.419 197.646 282.419 202.326C282.419 207.006 286.307 210.913 290.968 210.913C298.898 210.913 306.831 210.979 314.76 210.913C328.821 210.788 343.24 207.992 355.525 200.869C364.96 195.399 373.26 187.02 377.604 176.881C378.761 174.181 379.827 171.491 380.536 168.635C381.245 165.78 381.64 162.875 381.883 159.97C382.309 154.879 381.746 149.631 380.57 144.675C378.102 134.269 372.038 124.588 364.086 117.527C354.547 109.061 342.586 103.714 330.084 101.535C324.165 100.506 318.168 99.9921 312.161 100H290.968C286.309 100 282.419 103.907 282.419 108.587C282.419 113.267 286.309 117.175 290.968 117.175Z" fill="black"/>
<path d="M239.383 193.949C222.782 194.004 206.566 198.976 192.764 208.241C178.923 217.614 167.796 230.495 160.509 245.579C153.624 259.867 150.039 275.533 150.022 291.406C150.022 296.087 153.917 299.994 158.573 299.994C163.23 299.994 167.123 296.087 167.123 291.406C167.126 286.997 167.42 282.594 168.003 278.224L167.699 280.507C168.825 272.188 171.037 264.055 174.28 256.317L173.418 258.368C176.43 251.227 180.337 244.5 185.043 238.351L183.705 240.09C188.115 234.357 193.23 229.209 198.928 224.768L197.197 226.112C202.538 221.975 208.383 218.538 214.588 215.883L212.548 216.749C218.676 214.156 225.118 212.386 231.706 211.484L229.433 211.797C232.733 211.359 236.058 211.137 239.386 211.133C244.046 211.133 247.936 207.232 247.936 202.545C247.936 197.859 244.046 193.95 239.385 193.957L239.383 193.949Z" fill="black"/>
<path d="M256.52 108.587V291.402C256.52 296.082 260.41 299.989 265.07 299.989C269.729 299.989 273.621 296.082 273.621 291.402V108.587C273.621 103.907 269.731 100 265.07 100C260.408 100 256.52 103.906 256.52 108.587Z" fill="black"/>
<path d="M150 108.591C150.022 126.676 154.233 144.602 162.488 160.687C170.059 175.45 181.395 188.281 195.235 197.383C208.367 205.981 223.692 210.588 239.368 210.652C244.029 210.652 247.919 206.732 247.919 202.065C247.919 197.397 244.029 193.485 239.368 193.477C236.203 193.475 233.042 193.265 229.905 192.85L232.178 193.164C225.886 192.302 219.733 190.615 213.878 188.147L215.921 189.012C209.74 186.375 203.923 182.947 198.616 178.813L200.347 180.157C194.63 175.675 189.494 170.492 185.06 164.727L186.396 166.464C181.372 159.898 177.209 152.71 174.011 145.077L174.875 147.129C171.37 138.715 168.98 129.875 167.767 120.836L168.059 123.105C167.42 118.293 167.097 113.445 167.093 108.591C167.095 103.909 163.22 100 158.55 100C153.879 100 149.995 103.906 150 108.588V108.591Z" fill="#F15A29"/>
<path d="M383.962 291.407C383.939 273.937 379.413 256.561 370.778 241.391C362.565 226.967 350.516 214.645 336.23 206.252C322.483 198.215 306.867 193.964 290.961 193.93C286.299 193.93 282.411 197.842 282.411 202.517C282.411 207.193 286.301 211.098 290.961 211.105C294.608 211.109 298.251 211.356 301.866 211.842L299.593 211.528C306.703 212.507 313.653 214.423 320.264 217.227L318.228 216.365C324.801 219.179 330.991 222.821 336.648 227.205L334.917 225.862C340.763 230.419 346.013 235.7 350.541 241.58L349.203 239.842C353.938 246.013 357.861 252.77 360.877 259.947L360.015 257.896C363.136 265.377 365.263 273.238 366.342 281.277C366.238 280.516 366.133 279.755 366.029 278.994C366.571 283.111 366.846 287.26 366.85 291.413C366.85 296.093 370.734 300 375.4 300C380.066 300 383.956 296.093 383.95 291.413L383.962 291.407Z" fill="#F15A29"/>
<path d="M506.981 100L506.981 300" stroke="#777777" stroke-opacity="0.5" stroke-width="4" stroke-linecap="round"/>
<path d="M641.449 247.5V152.955H673.395C680.812 152.955 686.875 154.293 691.584 156.971C696.323 159.618 699.832 163.203 702.109 167.727C704.387 172.251 705.526 177.299 705.526 182.869C705.526 188.44 704.387 193.503 702.109 198.058C699.863 202.612 696.385 206.244 691.676 208.952C686.967 211.63 680.935 212.969 673.58 212.969H650.682V202.812H673.21C678.288 202.812 682.366 201.935 685.444 200.181C688.522 198.427 690.753 196.057 692.138 193.072C693.554 190.056 694.261 186.655 694.261 182.869C694.261 179.084 693.554 175.698 692.138 172.713C690.753 169.728 688.506 167.389 685.398 165.696C682.289 163.973 678.165 163.111 673.026 163.111H652.898V247.5H641.449ZM750.536 248.977C744.135 248.977 738.518 247.454 733.686 244.407C728.885 241.36 725.13 237.098 722.422 231.619C719.744 226.141 718.406 219.74 718.406 212.415C718.406 205.028 719.744 198.581 722.422 193.072C725.13 187.563 728.885 183.285 733.686 180.238C738.518 177.191 744.135 175.668 750.536 175.668C756.938 175.668 762.539 177.191 767.34 180.238C772.172 183.285 775.927 187.563 778.604 193.072C781.313 198.581 782.667 205.028 782.667 212.415C782.667 219.74 781.313 226.141 778.604 231.619C775.927 237.098 772.172 241.36 767.34 244.407C762.539 247.454 756.938 248.977 750.536 248.977ZM750.536 239.19C755.399 239.19 759.4 237.944 762.539 235.451C765.678 232.958 768.002 229.68 769.51 225.618C771.018 221.555 771.772 217.154 771.772 212.415C771.772 207.675 771.018 203.259 769.51 199.165C768.002 195.072 765.678 191.764 762.539 189.24C759.4 186.716 755.399 185.455 750.536 185.455C745.674 185.455 741.673 186.716 738.533 189.24C735.394 191.764 733.071 195.072 731.562 199.165C730.054 203.259 729.3 207.675 729.3 212.415C729.3 217.154 730.054 221.555 731.562 225.618C733.071 229.68 735.394 232.958 738.533 235.451C741.673 237.944 745.674 239.19 750.536 239.19ZM812.951 247.5L791.346 176.591H802.795L818.121 230.881H818.86L834.002 176.591H845.636L860.593 230.696H861.332L876.658 176.591H888.107L866.502 247.5H855.792L840.281 193.026H839.173L823.661 247.5H812.951ZM929.829 248.977C922.996 248.977 917.103 247.469 912.148 244.453C907.223 241.406 903.422 237.159 900.745 231.712C898.098 226.233 896.775 219.863 896.775 212.599C896.775 205.336 898.098 198.935 900.745 193.395C903.422 187.824 907.146 183.485 911.917 180.376C916.718 177.237 922.319 175.668 928.721 175.668C932.414 175.668 936.061 176.283 939.662 177.514C943.263 178.745 946.54 180.746 949.495 183.516C952.449 186.255 954.804 189.886 956.558 194.411C958.312 198.935 959.189 204.505 959.189 211.122V215.739H904.53V206.321H948.11C948.11 202.32 947.31 198.75 945.709 195.611C944.14 192.472 941.893 189.994 938.969 188.178C936.076 186.362 932.66 185.455 928.721 185.455C924.381 185.455 920.626 186.532 917.456 188.686C914.317 190.81 911.901 193.58 910.209 196.996C908.516 200.412 907.67 204.074 907.67 207.983V214.261C907.67 219.616 908.593 224.156 910.439 227.88C912.317 231.573 914.917 234.389 918.241 236.328C921.565 238.236 925.428 239.19 929.829 239.19C932.691 239.19 935.276 238.79 937.584 237.99C939.923 237.159 941.939 235.928 943.632 234.297C945.325 232.635 946.633 230.573 947.556 228.111L958.082 231.065C956.974 234.635 955.112 237.775 952.496 240.483C949.88 243.161 946.648 245.253 942.801 246.761C938.954 248.239 934.63 248.977 929.829 248.977ZM975.763 247.5V176.591H986.288V187.301H987.027C988.319 183.793 990.658 180.946 994.044 178.761C997.429 176.576 1001.25 175.483 1005.49 175.483C1006.29 175.483 1007.29 175.498 1008.49 175.529C1009.69 175.56 1010.6 175.606 1011.22 175.668V186.747C1010.85 186.655 1010 186.516 1008.68 186.332C1007.39 186.116 1006.02 186.009 1004.57 186.009C1001.12 186.009 998.045 186.732 995.336 188.178C992.659 189.594 990.535 191.564 988.966 194.087C987.427 196.58 986.657 199.427 986.657 202.628V247.5H975.763ZM1051.7 248.977C1044.87 248.977 1038.98 247.469 1034.02 244.453C1029.1 241.406 1025.3 237.159 1022.62 231.712C1019.97 226.233 1018.65 219.863 1018.65 212.599C1018.65 205.336 1019.97 198.935 1022.62 193.395C1025.3 187.824 1029.02 183.485 1033.79 180.376C1038.59 177.237 1044.19 175.668 1050.6 175.668C1054.29 175.668 1057.94 176.283 1061.54 177.514C1065.14 178.745 1068.42 180.746 1071.37 183.516C1074.32 186.255 1076.68 189.886 1078.43 194.411C1080.19 198.935 1081.06 204.505 1081.06 211.122V215.739H1026.41V206.321H1069.98C1069.98 202.32 1069.18 198.75 1067.58 195.611C1066.01 192.472 1063.77 189.994 1060.84 188.178C1057.95 186.362 1054.54 185.455 1050.6 185.455C1046.26 185.455 1042.5 186.532 1039.33 188.686C1036.19 190.81 1033.78 193.58 1032.08 196.996C1030.39 200.412 1029.54 204.074 1029.54 207.983V214.261C1029.54 219.616 1030.47 224.156 1032.31 227.88C1034.19 231.573 1036.79 234.389 1040.12 236.328C1043.44 238.236 1047.3 239.19 1051.7 239.19C1054.57 239.19 1057.15 238.79 1059.46 237.99C1061.8 237.159 1063.81 235.928 1065.51 234.297C1067.2 232.635 1068.51 230.573 1069.43 228.111L1079.96 231.065C1078.85 234.635 1076.99 237.775 1074.37 240.483C1071.75 243.161 1068.52 245.253 1064.68 246.761C1060.83 248.239 1056.5 248.977 1051.7 248.977ZM1124.41 248.977C1118.5 248.977 1113.29 247.485 1108.76 244.499C1104.24 241.483 1100.7 237.236 1098.15 231.758C1095.59 226.249 1094.31 219.74 1094.31 212.23C1094.31 204.782 1095.59 198.319 1098.15 192.841C1100.7 187.363 1104.25 183.131 1108.81 180.146C1113.36 177.16 1118.63 175.668 1124.6 175.668C1129.21 175.668 1132.86 176.437 1135.54 177.976C1138.25 179.484 1140.31 181.207 1141.72 183.146C1143.17 185.054 1144.29 186.624 1145.09 187.855H1146.02V152.955H1156.91V247.5H1146.39V236.605H1145.09C1144.29 237.898 1143.16 239.529 1141.68 241.499C1140.2 243.437 1138.09 245.176 1135.35 246.715C1132.62 248.223 1128.97 248.977 1124.41 248.977ZM1125.89 239.19C1130.26 239.19 1133.95 238.052 1136.97 235.774C1139.99 233.466 1142.28 230.281 1143.85 226.218C1145.42 222.125 1146.2 217.401 1146.2 212.045C1146.2 206.752 1145.43 202.12 1143.89 198.15C1142.36 194.149 1140.08 191.04 1137.06 188.825C1134.05 186.578 1130.32 185.455 1125.89 185.455C1121.27 185.455 1117.43 186.639 1114.35 189.009C1111.3 191.348 1109.01 194.534 1107.47 198.565C1105.96 202.566 1105.21 207.06 1105.21 212.045C1105.21 217.093 1105.98 221.679 1107.52 225.803C1109.09 229.896 1111.39 233.158 1114.44 235.589C1117.52 237.99 1121.34 239.19 1125.89 239.19ZM1216.42 247.5V152.955H1227.31V187.855H1228.24C1229.04 186.624 1230.15 185.054 1231.56 183.146C1233.01 181.207 1235.07 179.484 1237.75 177.976C1240.46 176.437 1244.12 175.668 1248.73 175.668C1254.71 175.668 1259.97 177.16 1264.52 180.146C1269.08 183.131 1272.63 187.363 1275.19 192.841C1277.74 198.319 1279.02 204.782 1279.02 212.23C1279.02 219.74 1277.74 226.249 1275.19 231.758C1272.63 237.236 1269.09 241.483 1264.57 244.499C1260.05 247.485 1254.83 248.977 1248.92 248.977C1244.36 248.977 1240.72 248.223 1237.98 246.715C1235.24 245.176 1233.13 243.437 1231.65 241.499C1230.18 239.529 1229.04 237.898 1228.24 236.605H1226.95V247.5H1216.42ZM1227.13 212.045C1227.13 217.401 1227.91 222.125 1229.48 226.218C1231.05 230.281 1233.35 233.466 1236.36 235.774C1239.38 238.052 1243.07 239.19 1247.44 239.19C1252 239.19 1255.8 237.99 1258.84 235.589C1261.92 233.158 1264.23 229.896 1265.77 225.803C1267.34 221.679 1268.12 217.093 1268.12 212.045C1268.12 207.06 1267.35 202.566 1265.82 198.565C1264.31 194.534 1262.01 191.348 1258.94 189.009C1255.89 186.639 1252.06 185.455 1247.44 185.455C1243.01 185.455 1239.29 186.578 1236.27 188.825C1233.25 191.04 1230.98 194.149 1229.44 198.15C1227.9 202.12 1227.13 206.752 1227.13 212.045ZM1300.16 274.091C1298.32 274.091 1296.67 273.937 1295.22 273.629C1293.78 273.352 1292.78 273.075 1292.22 272.798L1294.99 263.196C1297.64 263.873 1299.98 264.119 1302.01 263.935C1304.04 263.75 1305.84 262.842 1307.41 261.211C1309.01 259.611 1310.47 257.01 1311.8 253.409L1313.83 247.869L1287.61 176.591H1299.42L1319 233.097H1319.74L1339.31 176.591H1351.13L1321.03 257.841C1319.67 261.503 1318 264.535 1316 266.935C1314 269.367 1311.67 271.167 1309.03 272.337C1306.41 273.506 1303.46 274.091 1300.16 274.091ZM1417.77 227.095L1417.81 203.505H1420.68L1443.39 176.591H1465.96L1435.45 212.23H1430.79L1417.77 227.095ZM1399.95 247.5V152.955H1419.61V247.5H1399.95ZM1444.27 247.5L1423.4 216.616L1436.51 202.72L1467.3 247.5H1444.27ZM1475.61 247.5V176.591H1495.28V247.5H1475.61ZM1485.49 167.45C1482.57 167.45 1480.06 166.481 1477.97 164.542C1475.9 162.572 1474.87 160.218 1474.87 157.479C1474.87 154.77 1475.9 152.447 1477.97 150.508C1480.06 148.538 1482.57 147.553 1485.49 147.553C1488.41 147.553 1490.91 148.538 1492.97 150.508C1495.06 152.447 1496.11 154.77 1496.11 157.479C1496.11 160.218 1495.06 162.572 1492.97 164.542C1490.91 166.481 1488.41 167.45 1485.49 167.45ZM1511.03 247.5V176.591H1530.1V188.963H1530.84C1532.13 184.562 1534.3 181.238 1537.35 178.991C1540.39 176.714 1543.9 175.575 1547.87 175.575C1548.86 175.575 1549.92 175.637 1551.06 175.76C1552.2 175.883 1553.2 176.052 1554.06 176.268V193.718C1553.13 193.441 1551.86 193.195 1550.23 192.979C1548.59 192.764 1547.1 192.656 1545.75 192.656C1542.85 192.656 1540.27 193.287 1537.99 194.549C1535.75 195.78 1533.96 197.504 1532.64 199.719C1531.34 201.935 1530.7 204.49 1530.7 207.383V247.5H1511.03ZM1606.25 200.874V216.477H1563.13V200.874H1606.25ZM1649.13 248.654C1643.75 248.654 1638.87 247.269 1634.5 244.499C1630.16 241.699 1626.71 237.59 1624.16 232.173C1621.63 226.726 1620.37 220.047 1620.37 212.138C1620.37 204.013 1621.68 197.257 1624.3 191.871C1626.91 186.455 1630.39 182.408 1634.73 179.73C1639.1 177.022 1643.89 175.668 1649.09 175.668C1653.06 175.668 1656.37 176.345 1659.01 177.699C1661.69 179.022 1663.84 180.684 1665.48 182.685C1667.14 184.654 1668.4 186.593 1669.26 188.501H1669.86V152.955H1689.48V247.5H1670.09V236.143H1669.26C1668.34 238.113 1667.03 240.067 1665.34 242.006C1663.68 243.915 1661.51 245.5 1658.83 246.761C1656.18 248.023 1652.95 248.654 1649.13 248.654ZM1655.37 233.004C1658.54 233.004 1661.21 232.143 1663.4 230.419C1665.61 228.665 1667.31 226.218 1668.48 223.079C1669.68 219.94 1670.28 216.262 1670.28 212.045C1670.28 207.829 1669.69 204.167 1668.52 201.058C1667.35 197.95 1665.66 195.549 1663.44 193.857C1661.23 192.164 1658.54 191.317 1655.37 191.317C1652.13 191.317 1649.41 192.195 1647.19 193.949C1644.98 195.703 1643.3 198.134 1642.16 201.243C1641.02 204.351 1640.45 207.952 1640.45 212.045C1640.45 216.17 1641.02 219.817 1642.16 222.987C1643.33 226.126 1645.01 228.588 1647.19 230.373C1649.41 232.127 1652.13 233.004 1655.37 233.004ZM1737.97 248.885C1730.67 248.885 1724.39 247.408 1719.13 244.453C1713.9 241.468 1709.87 237.251 1707.04 231.804C1704.2 226.326 1702.79 219.847 1702.79 212.369C1702.79 205.075 1704.2 198.673 1707.04 193.164C1709.87 187.655 1713.85 183.362 1718.99 180.284C1724.16 177.206 1730.23 175.668 1737.18 175.668C1741.86 175.668 1746.21 176.422 1750.25 177.93C1754.31 179.407 1757.85 181.638 1760.86 184.624C1763.91 187.609 1766.28 191.364 1767.97 195.888C1769.67 200.381 1770.51 205.644 1770.51 211.676V217.077H1710.64V204.89H1752C1752 202.058 1751.38 199.55 1750.15 197.365C1748.92 195.18 1747.21 193.472 1745.03 192.241C1742.87 190.979 1740.37 190.348 1737.5 190.348C1734.52 190.348 1731.87 191.04 1729.56 192.425C1727.29 193.78 1725.5 195.611 1724.21 197.919C1722.92 200.196 1722.25 202.736 1722.22 205.536V217.124C1722.22 220.632 1722.87 223.664 1724.16 226.218C1725.49 228.772 1727.35 230.742 1729.75 232.127C1732.15 233.512 1735 234.205 1738.29 234.205C1740.47 234.205 1742.47 233.897 1744.29 233.281C1746.11 232.666 1747.66 231.742 1748.95 230.511C1750.25 229.28 1751.23 227.772 1751.91 225.987L1770.1 227.188C1769.17 231.558 1767.28 235.374 1764.42 238.636C1761.59 241.868 1757.92 244.392 1753.43 246.207C1748.97 247.992 1743.81 248.885 1737.97 248.885ZM1847.55 176.591L1822.76 247.5H1800.6L1775.81 176.591H1796.58L1811.31 227.326H1812.05L1826.73 176.591H1847.55Z" fill="black"/>
</svg>
