<svg width="2000" height="536" viewBox="0 0 2000 536" fill="none" xmlns="http://www.w3.org/2000/svg">
<path d="M824.939 303.961C805.943 303.961 788.739 296.273 776.277 283.835C772.525 280.092 769.203 275.916 766.389 271.392C759.836 260.846 756.049 248.402 756.049 235.073C756.049 221.787 759.811 209.379 766.326 198.857C769.144 194.306 772.476 190.108 776.242 186.345C788.707 173.887 805.924 166.183 824.939 166.183C843.943 166.183 861.148 173.878 873.611 186.322C877.402 190.105 880.751 194.325 883.579 198.903C889.691 208.788 893.37 220.332 893.788 232.704C893.815 233.49 893.827 234.281 893.827 235.073C893.827 235.865 893.815 236.654 893.788 237.44C893.368 249.882 889.648 261.488 883.476 271.409C880.668 275.924 877.351 280.09 873.608 283.827C861.145 296.268 843.94 303.961 824.939 303.961ZM893.922 0V148.046C893.878 148.011 893.834 147.974 893.788 147.939C874.852 132.991 850.936 124.068 824.939 124.068C794.3 124.068 766.553 136.462 746.44 156.505C740.367 162.558 734.988 169.31 730.436 176.63C720.487 192.626 714.488 211.332 713.801 231.387V238.957C714.488 258.987 720.473 277.672 730.398 293.656C734.942 300.974 740.314 307.728 746.382 313.784C766.5 333.863 794.27 346.278 824.939 346.278C850.936 346.278 874.852 337.355 893.788 322.406C893.834 322.372 893.878 322.337 893.922 322.3C897.283 319.64 900.484 316.792 903.512 313.767C909.562 307.726 914.921 300.99 919.456 293.692C929.846 276.976 935.924 257.302 936.137 236.223V208.701H936.077V123.8H936.021L936.036 123.786H936.305V0H893.922Z" fill="white"/>
<path d="M1502.41 124.703H1460.35V346.328H1502.41V124.703Z" fill="white"/>
<path d="M1983.44 176.49C1978.87 169.116 1973.47 162.317 1967.37 156.224C1964.3 153.161 1961.06 150.277 1957.65 147.587C1938.71 132.64 1914.8 123.718 1888.8 123.718C1862.83 123.718 1838.93 132.621 1820.01 147.546C1816.57 150.257 1813.3 153.166 1810.2 156.254C1804.13 162.323 1798.75 169.088 1794.21 176.424C1784.31 192.389 1778.35 211.042 1777.66 231.037V238.957C1778.67 268.159 1790.93 294.504 1810.24 313.783C1813.32 316.857 1816.58 319.752 1820.01 322.448V238.546C1819.94 237.346 1819.91 236.137 1819.91 234.922C1819.91 233.708 1819.94 232.499 1820.01 231.299C1820.62 219.382 1824.27 208.266 1830.19 198.707C1833.01 194.156 1836.34 189.959 1840.11 186.194C1852.57 173.737 1869.79 166.034 1888.8 166.034C1907.8 166.034 1925.01 173.727 1937.47 186.172C1941.26 189.954 1944.61 194.175 1947.44 198.755C1953.55 208.639 1957.23 220.182 1957.65 232.553C1957.68 233.339 1957.69 234.13 1957.69 234.922C1957.69 235.715 1957.68 236.504 1957.65 237.29V346.179H2000V233.773C1999.79 212.773 1993.75 193.167 1983.44 176.49Z" fill="white"/>
<path d="M1008.38 213.784C1011.78 203.335 1017.61 193.986 1025.2 186.395C1037.67 173.94 1054.88 166.235 1073.9 166.235C1104.5 166.235 1130.44 186.184 1139.42 213.784H1008.38ZM1183.06 213.784C1173.1 162.577 1128.02 123.921 1073.9 123.921C1043.21 123.921 1015.42 136.352 995.301 156.457C979.941 171.803 969.048 191.618 964.742 213.784C963.638 219.461 962.965 225.291 962.762 231.24V239.011C962.965 244.95 963.635 250.769 964.735 256.437C974.676 307.66 1019.77 346.33 1073.9 346.33C1104.58 346.33 1132.35 333.908 1152.47 313.819L1122.57 283.879C1110.11 296.32 1092.9 304.014 1073.9 304.014C1043.29 304.014 1017.34 284.052 1008.37 256.437H1183.06C1184.33 249.902 1185.03 243.163 1185.1 236.275V233.976C1185.03 227.076 1184.33 220.329 1183.06 213.784Z" fill="white"/>
<path d="M1639.99 303.744C1620.99 303.744 1603.79 296.054 1591.33 283.617C1587.58 279.873 1584.25 275.698 1581.44 271.174C1575.48 261.591 1571.81 250.438 1571.19 238.477C1571.13 237.279 1571.1 236.069 1571.1 234.854C1571.1 233.639 1571.13 232.431 1571.19 231.23C1571.81 219.315 1575.46 208.199 1581.38 198.64C1584.2 194.089 1587.53 189.891 1591.29 186.126C1603.76 173.67 1620.97 165.965 1639.99 165.965C1658.99 165.965 1676.2 173.66 1688.66 186.105C1692.45 189.887 1695.8 194.108 1698.63 198.686C1704.74 208.571 1708.42 220.115 1708.84 232.486C1708.87 233.272 1708.88 234.061 1708.88 234.854C1708.88 235.648 1708.87 236.437 1708.84 237.223C1708.42 249.664 1704.7 261.27 1698.53 271.192C1695.72 275.706 1692.4 279.871 1688.66 283.609C1676.2 296.05 1658.99 303.744 1639.99 303.744ZM1734.62 176.422C1730.06 169.049 1724.66 162.25 1718.56 156.157C1715.49 153.092 1712.24 150.21 1708.84 147.52C1689.9 132.572 1665.99 123.649 1639.99 123.649C1614.02 123.649 1590.12 132.554 1571.19 147.477C1567.76 150.188 1564.48 153.097 1561.39 156.187C1555.32 162.254 1549.94 169.021 1545.4 176.357C1536.94 189.997 1531.36 205.601 1529.48 222.327C1529.16 225.175 1528.95 228.058 1528.85 230.968V238.739C1529.54 258.769 1535.52 277.454 1545.45 293.437C1549.99 300.757 1555.36 307.51 1561.43 313.567C1564.51 316.641 1567.77 319.534 1571.19 322.232C1590.12 337.155 1614.02 346.058 1639.99 346.058C1665.99 346.058 1689.9 337.138 1708.84 322.189C1712.25 319.499 1715.49 316.612 1718.56 313.548C1724.61 307.509 1729.97 300.773 1734.51 293.475C1744.9 276.759 1750.98 257.085 1751.19 236.005V233.706C1750.98 212.704 1744.94 193.098 1734.62 176.422Z" fill="white"/>
<path d="M1751.21 424.57C1751.21 446.084 1745.1 466.171 1734.52 483.191C1729.98 490.487 1724.63 497.223 1718.58 503.263C1715.51 506.328 1712.26 509.215 1708.85 511.905C1689.91 526.852 1666 535.774 1640 535.774C1614.03 535.774 1590.13 526.869 1571.21 511.946C1567.79 509.25 1564.53 506.355 1561.45 503.281L1571.21 493.502L1591.34 473.331C1603.8 485.769 1621 493.458 1640 493.458C1659 493.458 1676.21 485.765 1688.67 473.323C1692.41 469.587 1695.73 465.422 1698.54 460.907C1704.71 450.985 1708.43 439.378 1708.85 426.937C1708.88 426.151 1708.89 425.362 1708.89 424.57C1708.89 423.776 1708.88 422.986 1708.85 422.2C1708.43 409.829 1704.75 398.285 1698.64 388.402C1695.81 383.822 1692.46 379.602 1688.68 375.819L1708.85 355.607L1718.57 345.871C1724.67 351.964 1730.08 358.763 1734.64 366.138C1745.14 383.117 1751.21 403.134 1751.21 424.57Z" fill="white"/>
<path d="M438.506 313.818C418.387 333.908 390.61 346.328 359.933 346.328C329.264 346.328 301.495 333.914 281.376 313.835C262.059 294.556 249.798 268.213 248.795 239.009V231.238C249.797 202.057 262.041 175.73 281.334 156.456C301.455 136.351 329.242 123.919 359.933 123.919C390.607 123.919 418.382 136.34 438.501 156.425L408.606 186.375C396.142 173.929 378.937 166.235 359.933 166.235C340.918 166.235 323.702 173.94 311.236 186.396C298.762 198.864 291.043 216.093 291.043 235.124C291.043 254.172 298.774 271.416 311.273 283.885C323.733 296.324 340.937 304.014 359.933 304.014C378.934 304.014 396.139 296.319 408.602 283.879L438.506 313.818Z" fill="white"/>
<path d="M654.707 156.375C651.631 153.302 648.378 150.412 644.96 147.716C626.029 132.781 602.125 123.867 576.139 123.867C550.167 123.867 526.27 132.772 507.344 147.697V0.000244141H464.961V137.577L465.001 137.617V238.959C466.004 268.16 478.266 294.504 497.583 313.783C500.662 316.857 503.922 319.752 507.344 322.448V238.695C507.282 237.495 507.25 236.288 507.25 235.073C507.25 233.857 507.282 232.65 507.344 231.45C507.962 219.532 511.606 208.417 517.527 198.856C520.344 194.307 523.677 190.108 527.444 186.345C539.909 173.888 557.125 166.183 576.139 166.183C595.143 166.183 612.349 173.878 624.813 186.323C636.627 198.118 644.179 214.181 644.96 232.002C645.006 233.02 645.029 234.043 645.029 235.073C645.029 236.101 645.006 237.126 644.96 238.143V346.33H687.343V235.073C687.343 204.331 674.87 176.503 654.707 156.375Z" fill="white"/>
<path d="M111.154 235.219L110.898 235.378L111.094 235.181L111.13 235.144L111.187 235.198L111.292 235.306L111.154 235.219ZM220.296 213.784H45.6191C47.3325 208.52 49.662 203.532 52.525 198.91C55.3435 194.359 58.675 190.162 62.4415 186.395C74.9066 173.94 92.1228 166.235 111.138 166.235C130.142 166.235 147.347 173.93 159.811 186.375L189.705 156.427C169.588 136.34 141.812 123.921 111.138 123.921C85.1645 123.921 61.2696 132.824 42.3433 147.749C38.9039 150.459 35.6312 153.367 32.5395 156.457C26.4657 162.524 21.0907 169.29 16.5445 176.627C9.59417 187.842 4.58272 200.383 1.98013 213.784C0.87653 219.461 0.203253 225.291 0 231.24V239.011C0.203253 244.95 0.873346 250.769 1.97377 256.437H176.666C174.937 261.759 172.578 266.796 169.675 271.463C166.866 275.976 163.55 280.143 159.808 283.879C147.344 296.32 130.139 304.014 111.138 304.014C92.1402 304.014 74.9384 296.325 62.4764 283.887L42.3433 304.058L32.5808 313.837C35.6613 316.911 38.9213 319.805 42.3433 322.502C61.2696 337.425 85.1645 346.33 111.138 346.33C141.815 346.33 169.591 333.908 189.711 313.819C195.761 307.779 201.119 301.043 205.655 293.745C212.65 282.491 217.69 269.897 220.302 256.437C221.571 249.902 222.268 243.163 222.336 236.275V233.976C222.268 227.076 221.569 220.329 220.296 213.784Z" fill="white"/>
<path d="M1501.65 21.1653C1501.65 32.8539 1492.17 42.3306 1480.49 42.3306C1468.8 42.3306 1459.32 32.8539 1459.32 21.1653C1459.32 9.47667 1468.8 7.78202e-06 1480.49 7.78202e-06C1492.17 7.78202e-06 1501.65 9.47667 1501.65 21.1653Z" fill="white"/>
<path d="M1322.71 235.219L1322.45 235.378L1322.65 235.181L1322.69 235.144L1322.74 235.198L1322.85 235.306L1322.71 235.219ZM1431.85 213.784H1257.17C1258.89 208.52 1261.22 203.532 1264.08 198.91C1266.9 194.359 1270.23 190.162 1274 186.395C1286.46 173.94 1303.68 166.235 1322.69 166.235C1341.7 166.235 1358.9 173.93 1371.37 186.375L1401.26 156.427C1381.14 136.34 1353.37 123.921 1322.69 123.921C1296.72 123.921 1272.82 132.824 1253.9 147.749C1250.46 150.459 1247.19 153.367 1244.09 156.457C1238.02 162.524 1232.65 169.29 1228.1 176.627C1221.15 187.842 1216.14 200.383 1213.53 213.784C1212.43 219.461 1211.76 225.291 1211.55 231.24V239.011C1211.76 244.95 1212.43 250.769 1213.53 256.437H1388.22C1386.49 261.759 1384.13 266.796 1381.23 271.463C1378.42 275.976 1375.1 280.143 1371.36 283.879C1358.9 296.32 1341.69 304.014 1322.69 304.014C1303.69 304.014 1286.49 296.325 1274.03 283.887L1253.9 304.058L1244.14 313.837C1247.22 316.911 1250.48 319.805 1253.9 322.502C1272.82 337.425 1296.72 346.33 1322.69 346.33C1353.37 346.33 1381.15 333.908 1401.27 313.819C1407.32 307.779 1412.67 301.043 1417.21 293.745C1424.2 282.491 1429.24 269.897 1431.86 256.437C1433.13 249.902 1433.82 243.163 1433.89 236.275V233.976C1433.82 227.076 1433.12 220.329 1431.85 213.784Z" fill="white"/>
</svg>
