<?xml version="1.0" encoding="UTF-8" standalone="no"?>
<!-- Created with Inkscape (http://www.inkscape.org/) -->

<svg
   version="1.1"
   id="svg2"
   width="480"
   height="266.66666"
   viewBox="0 0 480 266.66666"
   sodipodi:docname="ESET_logo_DS_PP_centered_color_CMYK.eps"
   xmlns:inkscape="http://www.inkscape.org/namespaces/inkscape"
   xmlns:sodipodi="http://sodipodi.sourceforge.net/DTD/sodipodi-0.dtd"
   xmlns="http://www.w3.org/2000/svg"
   xmlns:svg="http://www.w3.org/2000/svg">
  <defs
     id="defs6" />
  <sodipodi:namedview
     id="namedview4"
     pagecolor="#ffffff"
     bordercolor="#000000"
     borderopacity="0.25"
     inkscape:showpageshadow="2"
     inkscape:pageopacity="0.0"
     inkscape:pagecheckerboard="0"
     inkscape:deskcolor="#d1d1d1" />
  <g
     id="g8"
     inkscape:groupmode="layer"
     inkscape:label="ink_ext_XXXXXX"
     transform="matrix(1.3333333,0,0,-1.3333333,0,266.66667)">
    <g
       id="g10"
       transform="scale(0.1)">
      <path
         d="m 2524.15,1800 c 99.32,0 184.03,-51.31 228.22,-124.03 38.98,-67.68 47.63,-177.93 47.63,-250.93 0,-73.08 -8.65,-183.34 -47.63,-251 C 2708.18,1101.33 2623.47,1050 2524.15,1050 H 1075.86 c -99.36,0 -184.051,51.33 -228.239,124.04 C 808.605,1241.7 800,1351.93 800,1424.99 c 0,73.05 8.605,183.3 47.621,250.98 C 891.809,1748.69 976.5,1800 1075.86,1800 h 1448.29"
         style="fill:#1f939f;fill-opacity:1;fill-rule:nonzero;stroke:none"
         id="path12" />
      <path
         d="m 933.578,1182.25 c 35.188,-37.86 102.802,-66.19 160.702,-66.3 h 746.85 v 618.14 h -746.85 c -57.9,-0.11 -125.514,-28.45 -160.702,-66.29 -55.586,-59.77 -67.726,-153.59 -67.726,-242.81 0,-89.2 12.14,-182.97 67.726,-242.74 m 997.492,243.13 c 0,-130.92 32.44,-177.54 169.88,-177.54 51.37,0 93.72,4.1 123.17,20.48 28.22,16.36 45.18,44.35 46.02,94.38 h -106.68 c -1.63,-37.47 -27.98,-41.29 -62.51,-41.29 -51.32,0 -61.22,21.46 -61.22,84.34 v 3.84 h 230.44 v 15.79 c 0,142.82 -38.27,178.24 -169.22,178.24 -140.13,0 -169.88,-43.23 -169.88,-178.24 m 408.39,96.93 h 81.08 v -274.2 h 110.87 v 274.2 h 80.99 v 79.89 h -272.94 z m -909.92,-33.81 c 0,111.48 71.84,113.7 171.01,113.7 66.07,0 154.09,-1.14 154.09,-85.26 v -14.26 h -104.48 c -5.06,27.78 -27.29,29.79 -49.61,29.79 -60.88,0 -63.5,-7.55 -63.5,-31.13 0,-19.86 3.53,-32.43 63.45,-33.78 120.67,-2.72 171.06,-9.62 171.06,-106.28 0,-101.47 -77.56,-117.09 -171.01,-117.09 -22.9,0 -45.2,-0.14 -65.71,1.46 -67.78,5.4 -104.45,30.74 -105.3,108.2 h 110.93 c 1.33,-39.3 30.96,-39.94 60.08,-39.94 52.33,0 63.5,3.29 63.5,33.79 0,18.22 -5.32,28.28 -16.8,33.28 -12.37,5.38 -33.43,4.65 -46.7,4.65 -146.83,0 -171.01,32.77 -171.01,102.87 m -414.75,-65.64 c 0,135.48 30.17,179.34 171.02,179.34 131.56,0 170.31,-35.91 170.31,-179.34 v -16.95 h -230.47 v -2.68 c 0,-62.69 9.82,-83.2 60.16,-83.2 34.89,0 60.25,3.84 61.42,41.3 h 108.89 c -0.58,-51.14 -17.74,-79.79 -46.59,-96.55 -29.77,-16.52 -72.34,-20.59 -123.72,-20.59 -138.17,0 -171.02,47.24 -171.02,178.67 m 168.99,103.5 c -47.29,0 -56.82,-14.56 -58.14,-61.48 h 119.59 v 2.65 c 0,54.89 -21.52,58.83 -61.45,58.83 m 855.83,-60.1 c 1.37,47.92 10.49,63.76 59.34,63.76 40.21,0 62.57,-4.19 62.57,-59.97 v -3.79 h -121.91"
         style="fill:#ffffff;fill-opacity:1;fill-rule:nonzero;stroke:none"
         id="path14" />
      <path
         d="m 2758.74,1904.61 c 16.67,0.34 32.71,-6.32 44.25,-18.35 12.1,-11.83 18.81,-28.11 18.59,-45.03 0.28,-16.93 -6.44,-33.22 -18.59,-45.02 -11.47,-12.17 -27.53,-18.97 -44.25,-18.73 -16.85,-0.27 -33.03,6.53 -44.64,18.73 -12.07,11.84 -18.74,28.12 -18.45,45.02 -0.21,16.9 6.45,33.15 18.45,45.03 11.67,12.06 27.85,18.71 44.64,18.35 z m -81.14,-63.38 c -0.39,-21.66 8.29,-42.5 23.95,-57.47 31.62,-31.35 82.61,-31.35 114.23,0 15.48,14.98 24.13,35.65 23.95,57.19 v 0.24 c 0.16,21.42 -8.5,41.96 -23.95,56.8 -14.76,15.54 -35.32,24.23 -56.76,24 v 0 c -21.68,0.51 -42.57,-8.19 -57.47,-23.95 -15.56,-14.77 -24.24,-35.36 -23.95,-56.81"
         style="fill:#1f939f;fill-opacity:1;fill-rule:nonzero;stroke:none"
         id="path16" />
      <path
         d="m 2746.09,1869.49 h 6.37 c 2.37,0.08 4.75,-0.06 7.09,-0.43 1.81,-0.08 3.59,-0.54 5.22,-1.34 1.61,-0.79 2.88,-2.13 3.59,-3.78 0.77,-1.29 1.16,-2.76 1.15,-4.26 0.06,-2.04 -0.26,-4.07 -0.95,-5.99 -0.75,-1.51 -1.81,-2.83 -3.12,-3.88 -1.81,-1.15 -3.8,-1.99 -5.89,-2.49 -2.83,-0.35 -5.68,-0.51 -8.53,-0.48 h -4.78 z m 0,-36.97 h 8.14 l 23.95,-29.75 h 25.58 l -30.37,34.82 c 4.97,1.89 9.39,4.96 12.89,8.96 3.35,4.01 5.06,9.15 4.79,14.37 0.18,3.86 -0.68,7.7 -2.49,11.11 -2.03,3.15 -4.86,5.69 -8.19,7.38 -3.14,1.8 -6.61,2.92 -10.21,3.3 -4.5,0.59 -9.05,0.84 -13.6,0.72 h -30.51 v -80.66 h 19.59 l 0.43,29.75"
         style="fill:#1f939f;fill-opacity:1;fill-rule:nonzero;stroke:none"
         id="path18" />
      <path
         d="m 3203.72,295.852 h 42.83 V 257.32 h -42.83 z m -88.53,0.57 v 87.359 c -5.72,1.43 -12.85,3.141 -23.99,3.141 -30.82,0 -43.1,-21.992 -43.1,-51.094 0,-37.117 16.27,-49.406 36.54,-49.406 11.14,0 23.69,6.289 30.55,10 z m -105.06,40.258 c 0,53.66 35.97,80.5 80.51,80.5 10.84,0 17.41,-1.129 24.55,-2.559 v 57.949 h 37.96 V 257.32 h -37.96 v 12.559 c -7.71,-6.578 -18.27,-15.129 -37.12,-15.129 -29.97,0 -67.94,13.699 -67.94,81.93 z m -63.98,13.422 c 0.29,23.398 -9.14,39.687 -27.97,39.687 -19.13,0 -31.98,-14 -33.69,-39.687 z m -100.49,-17.411 c 0,63.661 32.26,84.207 76.22,84.207 45.11,0 63.38,-29.699 63.38,-78.507 v -13.692 h -101.63 c 0,-34.277 21.41,-39.988 49.1,-39.988 10.85,0 29.41,3.719 42.26,6.289 l 5.99,-29.41 c -12.84,-3.988 -33.69,-7.711 -55.1,-7.711 -49.1,0 -80.22,17.711 -80.22,78.812 z m -112.5,-28.851 v 80.219 h -22.84 v 29.132 h 22.84 v 31.957 h 37.68 v -31.957 h 48.53 v -29.132 h -48.53 v -79.918 c 0,-15.711 5.14,-17.719 21.98,-17.719 9.72,0 28.84,3.137 30.26,3.437 l 4.29,-30.257 c -8.85,-2.864 -23.13,-5.422 -33.98,-5.422 -29.68,0 -60.23,-0.578 -60.23,49.66 z m -164.18,32.269 c 0,49.379 30.83,81.071 80.51,81.071 22.26,0 36.25,-4.27 47.1,-10 l -10.28,-28.25 c -11.14,4.269 -19.13,6.84 -35.69,6.84 -23.4,0 -42.81,-13.981 -42.81,-49.661 0,-34.558 9.7,-50.82 49.95,-50.82 12.85,0 21.7,2.289 31.98,4 l 5.42,-29.41 c -12.56,-2.859 -22.84,-5.43 -39.97,-5.43 -61.95,0 -86.21,23.981 -86.21,81.66 z M 2505,350.102 c 0.29,23.398 -9.14,39.687 -27.98,39.687 -19.13,0 -31.97,-14 -33.68,-39.687 z m -100.49,-17.411 c 0,63.661 32.26,84.207 76.22,84.207 45.11,0 63.38,-29.699 63.38,-78.507 v -13.692 h -101.63 c 0,-34.277 21.41,-39.988 49.1,-39.988 10.85,0 29.41,3.719 42.25,6.289 l 6,-29.41 c -12.85,-3.988 -33.69,-7.711 -55.1,-7.711 -49.1,0 -80.22,17.711 -80.22,78.812 z M 2292,303.84 v 80.219 h -22.83 v 29.132 H 2292 v 31.957 h 37.69 v -31.957 h 48.53 v -29.132 h -48.53 v -79.918 c 0,-15.711 5.14,-17.719 21.98,-17.719 9.7,0 28.84,3.137 30.26,3.437 l 4.29,-30.257 c -8.86,-2.864 -23.13,-5.422 -33.98,-5.422 -29.69,0 -60.24,-0.578 -60.24,49.66 z m -79.39,31.41 c 0,26.539 -7.42,51.672 -38.26,51.672 -30.26,0 -38.54,-25.133 -38.54,-51.953 0,-28.84 9.42,-50.528 39.11,-50.528 30.27,0 37.69,22.539 37.69,50.809 z m -115.05,-1.43 c 0,52.532 31.4,83.36 77.65,83.36 51.95,0 75.94,-30.539 75.94,-81.93 0,-53.68 -33.12,-81.371 -78.23,-81.371 -48.24,0 -75.36,30.281 -75.36,79.941 z m -105.37,79.371 h 37.97 v -20.839 c 7.42,10.558 22.55,23.976 41.96,23.976 8.86,0 15.13,-0.859 20.27,-2.566 l -5.42,-31.41 c -7.43,1.429 -11.13,1.707 -19.99,1.707 -15.7,0 -29.97,-9.129 -36.82,-17.688 V 257.32 h -37.97 z m -113.95,-62.23 c 30.84,0 45.97,14.828 45.97,38.527 0,24.274 -10.85,38.832 -39.11,38.832 h -28.26 v -77.359 z m -60.51,108.187 h 73.65 c 43.39,0 73.08,-24.828 73.08,-68.507 0,-38.27 -29.69,-70.243 -87.92,-70.243 h -19.7 V 257.32 h -39.11 z M 1665.25,295.852 h 42.82 V 257.32 h -42.82 z m -157.33,-35.391 4.57,29.398 c 16.27,-2.578 32.26,-5.148 44.25,-5.148 24.27,0 31.4,7.437 31.4,15.988 0,24 -78.51,14.571 -78.51,69.66 0,31.411 28.55,46.821 61.1,46.821 18.27,0 34.83,-3.719 46.82,-7.989 l -6.28,-28.269 c -12.28,2.859 -23.99,5.719 -40.54,5.719 -17.42,0 -23.12,-7.711 -23.12,-14.27 0,-24.851 77.93,-17.992 77.93,-69.66 0,-39.109 -39.11,-48.832 -65.09,-48.832 -21.98,0 -39.39,2.859 -52.53,6.582 z m -141.05,0 4.57,29.398 c 16.27,-2.578 32.25,-5.148 44.24,-5.148 24.27,0 31.4,7.437 31.4,15.988 0,24 -78.5,14.571 -78.5,69.66 0,31.411 28.55,46.821 61.09,46.821 18.28,0 34.83,-3.719 46.82,-7.989 l -6.28,-28.269 c -12.27,2.859 -23.98,5.719 -40.54,5.719 -17.41,0 -23.12,-7.711 -23.12,-14.27 0,-24.851 77.94,-17.992 77.94,-69.66 0,-39.109 -39.11,-48.832 -65.09,-48.832 -21.99,0 -39.4,2.859 -52.53,6.582 z m -63.13,89.641 c 0.29,23.398 -9.13,39.687 -27.97,39.687 -19.13,0 -31.98,-14 -33.69,-39.687 z m -100.48,-17.411 c 0,63.661 32.26,84.207 76.22,84.207 45.1,0 63.38,-29.699 63.38,-78.507 v -13.692 h -101.64 c 0,-34.277 21.42,-39.988 49.11,-39.988 10.84,0 29.4,3.719 42.25,6.289 l 5.99,-29.41 c -12.84,-3.988 -33.68,-7.711 -55.09,-7.711 -49.11,0 -80.22,17.711 -80.22,78.812 z m -106.8,80.5 h 37.97 v -20.839 c 7.43,10.558 22.55,23.976 41.97,23.976 8.85,0 15.13,-0.859 20.27,-2.566 l -5.43,-31.41 c -7.42,1.429 -11.13,1.707 -19.98,1.707 -15.7,0 -29.98,-9.129 -36.83,-17.688 V 257.32 h -37.97 z m -82.25,-121.902 v 91.359 c -6.28,1.411 -12.85,3.122 -23.409,3.122 -31.121,0 -43.68,-21.391 -43.68,-51.668 0,-37.102 15.129,-49.661 40.254,-49.661 10.848,0 19.695,3.411 26.835,6.848 z m -93.636,-89.937 6.278,30.839 c 14.277,-3.14 35.398,-6.293 47.39,-6.293 23.981,0 40.248,3.442 40.248,30.84 v 8.274 c -7.7,-5.981 -17.978,-10.262 -29.4,-10.262 -35.684,0 -75.938,9.129 -75.938,79.648 0,54.512 37.114,82.782 81.934,82.782 21.984,0 39.114,-2.86 61.094,-7.141 V 252.738 c 0,-42.816 -37.11,-59.379 -72.231,-59.379 -23.691,0 -45.676,4.571 -59.375,7.993 z M 844.887,335.25 c 0,26.539 -7.422,51.672 -38.258,51.672 -30.262,0 -38.539,-25.133 -38.539,-51.953 0,-28.84 9.422,-50.528 39.109,-50.528 30.266,0 37.688,22.539 37.688,50.809 z M 729.84,333.82 c 0,52.532 31.398,83.36 77.648,83.36 51.953,0 75.938,-30.539 75.938,-81.93 0,-53.68 -33.117,-81.371 -78.223,-81.371 -48.25,0 -75.363,30.281 -75.363,79.941 z m -105.375,79.371 h 37.969 v -20.839 c 7.425,10.558 22.554,23.976 41.968,23.976 8.848,0 15.129,-0.859 20.27,-2.566 l -5.422,-31.41 c -7.426,1.429 -11.141,1.707 -19.988,1.707 -15.699,0 -29.977,-9.129 -36.828,-17.688 V 257.32 h -37.969 z m -113.942,-62.23 c 30.832,0 45.965,14.828 45.965,38.527 0,24.274 -10.847,38.832 -39.109,38.832 h -28.27 V 350.961 Z M 450,459.148 h 73.656 c 43.395,0 73.082,-24.828 73.082,-68.507 0,-38.27 -29.687,-70.243 -87.929,-70.243 h -19.7 V 257.32 H 450 Z m 2256.48,153.454 h -10.07 l -48.2,148.668 h 23.42 l 32.4,-106.18 8.17,-26.692 8.72,26.133 36.75,106.739 h 22.05 l -72.69,-208.579 h -20.97 z M 2561.07,654 v 89.02 h -21.78 v 18.25 h 21.78 v 30.5 h 20.97 v -30.5 h 46.56 v -18.25 h -46.29 v -88.77 c 0,-21.77 5.99,-25.852 28.32,-25.852 8.44,0 20.15,2.993 23.41,4.082 l 3.82,-17.968 c -4.9,-1.653 -17.16,-4.903 -26.41,-4.903 -27.78,0 -50.38,0.821 -50.38,44.391 z m -77.88,166.082 h 21.51 v -25.043 h -21.51 z m -0.27,-58.812 h 21.78 V 612.602 h -21.78 z m -106.21,0 h 21.52 v -19.872 c 6.53,11.153 21.51,23.141 42.47,23.141 8.72,0 14.71,-1.641 17.43,-2.461 l -3.81,-18.246 c -4.63,1.09 -8.72,1.93 -17.43,1.93 -17.97,0 -31.58,-12.801 -38.66,-23.703 V 612.602 h -21.52 z m -168.83,-94.75 v 94.75 h 21.51 v -90.391 c 0,-23.418 1.63,-41.949 28.59,-41.949 18.79,0 40.84,14.449 47.65,18.531 V 761.27 h 20.69 V 612.602 h -20.69 v 17.418 c -11.71,-7.348 -29.13,-20.68 -53.09,-20.68 -41.67,0 -44.66,31.582 -44.66,57.18 z m -144.87,20.41 c 0,48.211 27.23,78.152 69.71,78.152 20.14,0 32.94,-4.344 40.57,-8.453 l -6.54,-16.879 c -7.89,3.27 -17.97,7.352 -34.58,7.352 -28.32,0 -47.11,-21.493 -47.11,-59.34 0,-40.301 12.8,-59.09 55.83,-59.09 11.97,0 22.87,3 28.59,3.808 l 3.54,-17.441 c -5.45,-1.617 -19.07,-4.891 -34.31,-4.891 -52.83,0 -75.7,22.614 -75.7,76.782 z m -50.39,11.992 c 0,29.957 -10.89,50.109 -34.31,50.109 -22.32,0 -38.39,-16.883 -41.11,-50.109 z m -97.48,-14.711 c 0,60.18 29.14,80.871 66.44,80.871 36.76,0 53.65,-25.051 53.65,-74.332 v -7.898 h -98.3 c 0.81,-47.383 24.23,-55.012 55,-55.012 10.89,0 30.22,4.359 36.76,6.262 l 3.81,-17.692 c -4.9,-1.898 -22.88,-7.07 -47.11,-7.07 -43.02,0 -70.25,17.969 -70.25,74.871 z m -151.4,-63.16 7.62,17.969 c 14.16,-6.258 27.23,-10.09 45.48,-10.09 21.5,0 46.29,7.351 46.29,32.14 0,48.192 -94.22,37.032 -94.22,99.918 0,31.332 26.14,46.571 56.91,46.571 22.05,0 35.4,-4.36 46.83,-9.25 l -6.26,-16.61 c -11.44,4.082 -22.33,7.352 -40.02,7.352 -20.7,0 -36.22,-8.18 -36.22,-27.242 0,-43.02 95.03,-37.571 95.03,-99.118 0,-36.75 -30.5,-53.351 -67.8,-53.351 -28.05,0 -42.75,5.98 -53.64,11.711 z m -119.28,196.847 h 21.51 V 612.602 h -21.51 z m -76.52,-173.707 v 38.661 l -35.68,-1.352 c -23.14,-0.828 -35.94,-11.988 -35.94,-26.969 0,-19.871 10.62,-26.691 26.96,-26.691 18.79,0 40.85,14.172 44.66,16.351 z m -92.31,8.438 c 0,36.223 32.67,44.109 56.91,44.66 l 35.4,0.543 v 19.867 c 0,23.699 -11.71,28.313 -38.12,28.313 -13.62,0 -30.5,-4.891 -36.76,-6.793 l -4.64,16.883 c 6.54,2.707 25.6,8.718 47.66,8.718 32.94,0 52.82,-10.621 52.82,-40.031 v -82.5 c 0,-11.18 7.35,-13.617 13.89,-14.449 l -1.36,-16.879 h -3.81 c -12.26,0 -26.42,5.449 -28.05,18.801 -7.08,-4.633 -22.33,-19.332 -51.74,-19.332 -26.68,0 -42.2,14.699 -42.2,42.199 z M 1381.41,654 v 89.02 h -21.78 v 18.25 h 21.78 v 30.5 h 20.97 v -30.5 h 46.56 v -18.25 h -46.29 v -88.77 c 0,-21.77 5.99,-25.852 28.32,-25.852 8.44,0 20.14,2.993 23.41,4.082 l 3.82,-17.968 c -4.91,-1.653 -17.16,-4.903 -26.41,-4.903 -27.78,0 -50.38,0.821 -50.38,44.391 z m -77.88,166.082 h 21.51 v -25.043 h -21.51 z m -0.28,-58.812 h 21.79 V 612.602 h -21.79 z m -71.62,-119.821 v 102.383 c -7.35,1.367 -14.98,3.02 -28.87,3.02 -36.21,0 -49.28,-27.5 -49.28,-61.274 0,-41.387 15.79,-57.457 46.02,-57.457 14.97,0 26.14,8.438 32.13,13.328 z m -87.68,-85.5 4.09,18.813 c 6.26,-1.371 27.77,-5.192 39.48,-5.192 25.32,0 44.38,4.629 44.38,38.121 v 15.539 c -8.71,-7.91 -19.33,-12.8 -34.04,-12.8 -31.03,0 -65.62,9.531 -65.62,75.961 0,53.109 31.86,78.691 70.8,78.691 18.79,0 34.58,-2.723 50.1,-5.711 V 603.352 c 0,-36.223 -25.59,-52.821 -60.72,-52.821 -22.06,0 -42.21,3.797 -48.47,5.418 z m -74.34,264.133 h 21.51 v -25.043 h -21.51 z m -0.27,-58.812 h 21.78 V 612.602 h -21.78 z M 926.367,631.109 c 50.102,0 80.053,25.321 80.053,75.43 0,54.449 -34.037,80.051 -85.502,80.051 H 892.059 V 631.109 Z M 870,805.102 h 51.734 c 62.086,0 106.746,-32.93 106.746,-95.563 0,-67.527 -40.847,-96.937 -105.109,-96.937 H 870 v 192.5"
         style="fill:#1f939f;fill-opacity:1;fill-rule:nonzero;stroke:none"
         id="path20" />
    </g>
  </g>
</svg>
