<svg width="2000" height="426" viewBox="0 0 2000 426" fill="none" xmlns="http://www.w3.org/2000/svg">
<path d="M645.216 202.433C626.811 218.023 602.126 218.24 595.197 218.24C586.103 218.24 556.87 217.807 535.651 195.503C533.054 192.687 530.237 189.01 528.289 185.544L552.324 168.871C559.037 178.831 571.595 191.824 599.745 191.824C601.044 191.824 606.456 191.824 611.004 190.741C614.251 190.089 629.192 185.976 629.192 171.685C629.192 170.169 628.976 166.057 626.378 162.591C621.18 155.661 607.324 153.713 599.745 151.981L581.555 147.866C573.762 146.134 565.315 144.403 558.385 140.72C551.242 137.04 536.517 127.294 536.517 105.21C536.517 101.746 536.95 91.7864 542.364 82.6896C549.291 70.998 565.967 57.572 596.929 57.572C610.571 57.572 637.42 59.7366 658.642 88.5367L635.039 106.075C630.277 98.4966 619.449 83.3389 595.413 83.3389C593.898 83.3389 574.628 83.1253 568.348 95.0333C567.046 97.4143 566.616 99.5789 566.616 101.963C566.616 104.56 567.266 106.725 568.564 108.892C572.244 115.169 580.689 117.118 594.764 120.151L610.571 123.614C625.079 126.864 641.103 131.193 651.279 143.104C655.608 147.866 660.157 154.795 660.157 168.871C660.157 182.727 655.825 193.339 645.216 202.433Z" fill="white"/>
<path d="M681.809 106.075H707.576V214.341H681.809V106.075ZM681.809 62.9863H707.576V89.1862H681.809V62.9863Z" fill="white"/>
<path d="M872.135 214.342V148.083C872.135 143.968 871.269 127.078 853.946 127.078C849.831 127.078 840.52 128.596 834.676 138.123C829.695 145.918 829.478 154.796 829.478 163.457V214.342H803.711V153.714C803.711 151.33 803.495 148.949 803.495 146.568C803.495 144.403 803.495 136.824 797.648 131.41C793.319 127.511 787.904 127.295 785.956 127.295C783.356 127.295 777.728 127.947 772.314 132.492C761.705 141.587 761.488 156.744 761.488 168.869V214.342H735.502V106.076H761.488L761.705 118.201C763.436 115.82 764.086 115.17 765.168 114.304C768.85 110.841 780.542 102.829 795.7 102.829C808.041 102.829 819.735 108.457 825.799 119.286C827.747 116.902 829.911 113.872 835.758 109.972C840.304 106.942 847.883 102.829 860.659 102.829C877.116 102.829 891.841 109.972 896.386 126.862C897.685 131.843 897.904 136.172 897.904 145.918V214.342H872.135Z" fill="white"/>
<path d="M973.902 126.214C971.518 126.214 965.025 126.647 959.178 130.327C953.547 134.01 945.968 142.887 945.968 159.127C945.968 164.325 946.404 168.871 948.135 173.849C949.867 179.047 957.446 193.772 975.201 193.772C994.907 193.772 1003.78 176.45 1003.13 159.344C1002.7 142.454 992.956 126.214 973.902 126.214ZM1025.87 184.028C1021.54 195.071 1007.46 217.591 975.201 217.591C970.655 217.591 961.342 217.374 950.733 212.609C939.474 207.631 918.902 192.473 918.902 159.777C918.902 148.082 922.152 139.421 923.667 135.525C928.213 124.699 942.072 102.829 974.335 102.829C978.448 102.829 987.978 103.262 998.154 107.81C1009.85 112.788 1029.98 127.297 1030.2 159.777C1030.2 163.673 1029.98 173.849 1025.87 184.028Z" fill="white"/>
<path d="M1120.27 214.342V159.125C1120.27 150.681 1120.27 146.568 1119.19 142.453C1116.16 129.895 1106.41 128.164 1101.21 128.164C1098.4 128.164 1092.99 128.596 1087.57 133.142C1079.78 139.639 1077.4 148.733 1077.4 167.354V214.342H1051.2V106.076H1077.4V118.85C1077.83 118.201 1079.99 115.387 1082.16 113.222C1092.33 103.695 1107.06 102.83 1110.74 102.83C1126.77 102.83 1136.07 111.055 1139.54 116.036C1146.47 125.996 1145.82 139.639 1145.82 150.681V214.342H1120.27Z" fill="white"/>
<path d="M1233.51 200.484C1229.61 213.907 1223.98 236.86 1213.81 245.088C1207.09 250.503 1200.16 251.585 1191.72 251.585C1183.49 251.585 1180.46 250.936 1176.35 250.07V227.55C1186.74 228.851 1192.59 227.55 1196.48 224.303C1199.73 221.272 1200.6 218.023 1201.03 216.508L1161.84 106.078H1189.77L1214.02 186.842L1234.38 106.078H1261.01L1233.51 200.484Z" fill="white"/>
<path d="M1277.03 106.075H1302.79V214.341H1277.03V106.075ZM1277.03 62.9863H1302.79V89.1862H1277.03V62.9863Z" fill="white"/>
<path d="M1490.75 214.342L1450.04 142.453L1425.14 171.036V214.342H1396.77V61.4692H1425.14V131.627L1486.41 61.4692H1519.98L1469.96 119.067L1523.44 214.342H1490.75Z" fill="white"/>
<path d="M1590.77 90.2685H1571.29L1582.11 61.4684H1614.16L1590.77 90.2685ZM1601.38 160.426C1597.05 162.591 1591.42 164.755 1580.81 166.487C1574.97 167.572 1568.69 167.788 1563.28 171.035C1559.59 173.419 1557 177.099 1557 181.864C1557 188.358 1561.76 194.635 1574.75 194.635C1589.04 194.635 1597.49 187.275 1599.87 182.294C1601.6 178.828 1601.38 175.797 1601.38 172.334V160.426ZM1601.38 214.341L1600.74 205.896C1596.62 209.362 1592.94 211.094 1590.77 211.96C1583.63 215.21 1576.91 216.938 1568.91 216.938C1563.71 216.938 1544.22 216.292 1534.26 200.266C1532.53 197.452 1529.28 191.604 1529.5 182.943C1529.5 176.883 1531.01 164.755 1544.22 155.878C1553.1 149.814 1561.54 148.515 1571.51 146.567C1587.53 143.32 1593.37 142.022 1601.38 139.205C1601.38 136.391 1601.17 132.925 1599.87 130.327C1597.7 126.215 1592.29 122.965 1582.76 122.965C1572.8 122.965 1566.52 125.995 1563.71 129.678C1560.68 133.36 1560.89 137.69 1560.89 139.205L1534.48 137.69C1534.69 132.925 1535.56 121.45 1546.17 112.789C1552.88 107.158 1563.06 102.829 1581.9 102.829C1599.65 102.829 1610.04 106.508 1616.76 111.273C1621.31 114.52 1623.69 118.203 1624.56 119.934C1627.37 125.562 1627.37 133.141 1627.37 139.205V196.802C1627.37 205.03 1627.8 207.412 1632.13 214.341H1601.38Z" fill="white"/>
<path d="M1682.14 150.248C1680.2 156.312 1680.2 161.726 1680.2 168.003V214.342H1655.08V106.077H1680.2V121.448C1681.93 118.201 1684.09 114.954 1686.69 112.573C1695.35 104.126 1709.43 103.693 1712.46 103.693H1714.63V130.329C1709.21 130.329 1688.42 130.329 1682.14 150.248Z" fill="white"/>
<path d="M1780.45 126.214C1778.06 126.214 1771.57 126.647 1765.72 130.327C1760.09 134.01 1752.51 142.887 1752.51 159.127C1752.51 164.325 1752.95 168.871 1754.68 173.849C1756.41 179.047 1763.99 193.772 1781.75 193.772C1801.45 193.772 1810.33 176.45 1809.68 159.344C1809.24 142.454 1799.5 126.214 1780.45 126.214ZM1832.41 184.028C1828.08 195.071 1814.01 217.591 1781.75 217.591C1777.2 217.591 1767.89 217.374 1757.28 212.609C1746.02 207.631 1725.45 192.473 1725.45 159.777C1725.45 148.082 1728.7 139.421 1730.21 135.525C1734.76 124.699 1748.62 102.829 1780.88 102.829C1784.99 102.829 1794.52 103.262 1804.7 107.81C1816.39 112.788 1836.53 127.297 1836.74 159.777C1836.74 163.673 1836.53 173.849 1832.41 184.028Z" fill="white"/>
<path d="M1884.59 61.4685H1858.18V214.341H1884.59V61.4685Z" fill="white"/>
<path d="M1972.5 200.484C1968.6 213.907 1962.97 236.86 1952.79 245.088C1946.08 250.503 1939.16 251.585 1930.71 251.585C1922.48 251.585 1919.45 250.936 1915.34 250.07V227.55C1925.73 228.851 1931.58 227.55 1935.47 224.303C1938.72 221.272 1939.59 218.023 1940.02 216.508L1900.83 106.078H1928.76L1953.01 186.842L1973.37 106.078H2000L1972.5 200.484Z" fill="white"/>
<path d="M590.342 356.863C581.122 364.672 568.753 364.779 565.281 364.779C560.727 364.779 546.081 364.563 535.452 353.391C534.148 351.98 532.739 350.136 531.764 348.399L543.804 340.049C547.166 345.036 553.457 351.544 567.561 351.544C568.21 351.544 570.923 351.544 573.203 351.004C574.827 350.678 582.314 348.615 582.314 341.458C582.314 340.699 582.204 338.638 580.905 336.901C578.299 333.429 571.359 332.454 567.561 331.588L558.447 329.525C554.542 328.659 550.312 327.787 546.84 325.946C543.261 324.102 535.885 319.219 535.885 308.154C535.885 306.42 536.101 301.427 538.814 296.87C542.286 291.015 550.638 284.291 566.152 284.291C572.986 284.291 586.435 285.373 597.069 299.8L585.243 308.587C582.856 304.792 577.433 297.196 565.391 297.196C564.631 297.196 554.975 297.09 551.832 303.055C551.18 304.25 550.964 305.335 550.964 306.527C550.964 307.831 551.287 308.913 551.939 309.998C553.783 313.144 558.014 314.12 565.064 315.64L572.986 317.375C580.253 319.002 588.282 321.173 593.378 327.138C595.548 329.525 597.828 332.996 597.828 340.049C597.828 346.99 595.658 352.306 590.342 356.863Z" fill="white"/>
<path d="M652.068 362.828V351.111L693.943 299.043H655.647V286.241H711.842V298.391L671.595 349.919H711.842V362.828H652.068Z" fill="white"/>
<path d="M797.759 300.016L787.128 335.273H808.282L797.759 300.016ZM816.527 362.828L812.079 347.859H783.333L778.886 362.828H763.48L789.408 286.241H805.678L831.822 362.828H816.527Z" fill="white"/>
<path d="M936.503 362.828L916.108 326.812L903.635 341.132V362.828H889.422V286.241H903.635V321.389L934.333 286.241H951.146L926.088 315.098L952.883 362.828H936.503Z" fill="white"/>
<path d="M1056.7 362.828L1036.31 326.812L1023.83 341.132V362.828H1009.62V286.241H1023.83V321.389L1054.53 286.241H1071.34L1046.28 315.098L1073.08 362.828H1056.7Z" fill="white"/>
<path d="M1180.8 307.502C1176.79 300.994 1170.71 297.413 1163.01 297.413C1158.24 297.413 1154.77 298.931 1153.25 299.693C1147.83 302.622 1141.1 309.782 1141.1 324.099C1141.1 327.028 1141.21 341.132 1151.94 348.182C1156.61 351.221 1161.28 351.437 1163.23 351.437C1164.75 351.437 1168.22 351.328 1172.02 349.593C1177.66 346.99 1185.03 340.479 1185.36 326.053C1185.47 319.759 1184.27 313.034 1180.8 307.502ZM1189.15 353.824C1187.42 355.668 1182.97 360.115 1176.14 362.612C1173.75 363.477 1169.3 364.779 1162.79 364.779C1151.94 364.779 1143.7 361.2 1136.54 352.955C1129.38 344.817 1126.35 335.273 1126.35 324.642C1126.35 322.148 1126.45 316.29 1128.62 309.782C1133.61 294.484 1146.74 284.288 1163.12 284.288C1177.87 284.288 1186.66 292.316 1190.24 296.435C1194.25 300.994 1199.89 309.889 1199.79 324.535C1199.79 329.308 1199.24 342.866 1189.15 353.824Z" fill="white"/>
<path d="M1261.51 362.828V286.242H1275.94V349.81H1306.31V362.828H1261.51Z" fill="white"/>
<path d="M1365.87 362.828V286.242H1380.3V349.81H1410.67V362.828H1365.87Z" fill="white"/>
<path d="M1498.86 278.753H1489.21L1494.96 265.737H1510.58L1498.86 278.753ZM1469.79 362.825V286.239H1524.25V299.041H1483.89V317.046H1520.88V329.412H1483.89V349.917H1526.96V362.825H1469.79Z" fill="white"/>
<path d="M1639.02 362.828L1638.91 356.32C1632.73 362.066 1626.44 364.779 1617.87 364.779C1613.2 364.779 1602.57 364.13 1593.35 355.126C1588.9 350.679 1581.96 341.132 1581.96 325.294C1581.96 315.531 1584.89 305.335 1590.97 297.632C1594.44 293.292 1603.55 284.291 1619.06 284.291C1621.23 284.291 1626.11 284.507 1631.64 286.568C1636.63 288.519 1646.29 293.618 1651.28 306.853L1637.61 312.278C1636.31 308.587 1632.29 297.197 1618.95 297.197C1616.35 297.197 1610.27 297.632 1605.18 302.729C1601.49 306.527 1597.58 313.035 1597.58 324.861C1597.58 328.004 1597.58 339.504 1606.37 346.881C1610.17 350.026 1614.4 351.221 1619.28 351.221C1626.87 351.221 1633.6 347.533 1636.53 340.373C1637.18 338.855 1637.72 337.008 1638.15 333.539H1619.06V320.954H1651.28V362.828H1639.02Z" fill="white"/>
<path d="M1728.95 286.241H1714.85V362.828H1728.95V286.241Z" fill="white"/>
<path d="M1854.79 347.207C1852.29 354.906 1843.5 364.779 1824.74 364.779C1815.73 364.779 1806.73 362.609 1800.44 355.668C1799.46 354.69 1796.86 351.544 1795.56 347.423C1794.36 343.518 1794.36 339.937 1794.36 331.804V286.241H1808.79V333.322C1808.79 337.876 1808.79 339.504 1809.55 341.781C1810.96 346.338 1815.08 350.895 1825.28 350.895C1827.12 350.895 1837.65 350.895 1840.79 342.217C1841.66 339.721 1841.77 337.66 1841.77 332.561V286.241H1856.09V330.393C1856.09 339.181 1856.2 342.866 1854.79 347.207Z" fill="white"/>
<path d="M1978.13 362.828L1979.54 299.909L1962.94 362.828H1950.03L1933.44 299.909L1934.85 362.828H1920.85V286.241H1941.68L1956.65 343.086L1971.4 286.241H1992.13V362.828H1978.13Z" fill="white"/>
<path d="M212.62 0C95.3819 0 0 95.3819 0 212.621C0 329.862 95.3819 425.244 212.62 425.244C329.862 425.244 425.244 329.862 425.244 212.621C425.244 95.3819 329.862 0 212.62 0ZM212.62 22.7814C317.467 22.7814 402.462 107.776 402.462 212.621C402.462 317.468 317.467 402.462 212.62 402.462C107.776 402.462 22.7815 317.468 22.7815 212.621C22.7815 107.776 107.776 22.7814 212.62 22.7814Z" fill="white"/>
<path d="M151.037 104.628C176.829 104.628 197.814 125.613 197.814 151.405C197.814 177.197 176.829 198.182 151.037 198.182C125.245 198.182 104.26 177.197 104.26 151.405C104.26 125.613 125.245 104.628 151.037 104.628ZM151.037 127.409C137.785 127.409 127.041 138.153 127.041 151.405C127.041 164.657 137.785 175.401 151.037 175.401C164.289 175.401 175.033 164.657 175.033 151.405C175.033 138.153 164.289 127.409 151.037 127.409ZM397.164 162.36H186.803C180.751 162.36 175.848 157.457 175.848 151.408C175.848 145.355 180.751 140.453 186.803 140.453H397.164C403.213 140.453 408.119 145.355 408.119 151.408C408.119 157.457 403.213 162.36 397.164 162.36Z" fill="white"/>
<path d="M232.76 288.985H34.7944C29.442 288.985 25.1016 284.648 25.1016 279.295C25.1016 273.94 29.442 269.602 34.7944 269.602H232.76C238.113 269.602 242.45 273.94 242.45 279.295C242.45 284.648 238.113 288.985 232.76 288.985Z" fill="white"/>
<path d="M268.266 231.584C242.473 231.584 221.488 252.567 221.488 278.362C221.488 304.151 242.473 325.136 268.266 325.136C294.058 325.136 315.043 304.151 315.043 278.362C315.043 252.567 294.058 231.584 268.266 231.584ZM268.266 254.366C281.517 254.366 292.262 265.107 292.262 278.362C292.262 291.614 281.517 302.358 268.266 302.358C255.014 302.358 244.27 291.614 244.27 278.362C244.27 265.107 255.014 254.366 268.266 254.366Z" fill="white"/>
</svg>
