<?xml version="1.0" encoding="utf-8"?>
<!-- Generator: Adobe Illustrator 25.4.1, SVG Export Plug-In . SVG Version: 6.00 Build 0)  -->
<svg version="1.1" id="Layer_1" xmlns="http://www.w3.org/2000/svg" xmlns:xlink="http://www.w3.org/1999/xlink" x="0px" y="0px"
	 viewBox="0 0 126.9 62.9" style="enable-background:new 0 0 126.9 62.9;" xml:space="preserve">
<style type="text/css">
	.st0{fill:#D91E2A;}
</style>
<g>
	<path class="st0" d="M64.8,24.1c10,0.4,10.5,1,13.1,2.1c-8.8,1.7-24.4,3.5-39.9,2c-2.6-0.3-9.3-1.6-12.4-3.3
		c-1.3-0.7-4.3-2.4-4.1-5.6c0.2-3.1,4.6-6.4,6.3-7.4C40,4.7,52.9,2.4,66.6,0.2C56.2,1.4,49,2.9,42.5,4.6C26.1,8.7,9.1,16.3,2.9,24.1
		c-2.6,3.3-3.9,7-2.1,10.5c3.2,6.1,12.6,9.1,23,10.6c-3.5-1.1-7.8-2.2-9.7-4.8c-0.6-0.9-0.9-2.8,1.2-4.6c5.2-4.2,9.3-5.7,9.3-5.7
		L35,32.5l-1.9,1.4c-0.9,0.6-1.3,1.5-0.9,2.5c1.1,1.5,2.5,2.1,3.7,2.7c12.3,5,35.3,0.6,42.8-4.9c2.1-1.5,4.2-2.9,4.4-5.6
		c0.1-1.5-1.2-2.7-1.9-3.3c-4.3-3.1-11.6-3.4-16.5-3.5c-9-0.2-11.2-1.2-13.7-2.7c16.5-3,31.8-3.7,46.6-0.7c3.5,0.9,7.9,2.4,9.4,5.3
		c1.1,2.2,0.1,4.7-2,6.8c-4.7,4.5-12.8,7.4-18.1,9.3c10.9-3.5,17.6-5.4,27.8-11.5c5.3-3.2,12.6-9.4,11.2-15.8
		c-1.8-7.8-16-10.8-16-10.8s3.2,1.1,4.7,3c1.4,1.7,1.4,3.1,1.2,3.7c-1.3,4.7-7.4,5.3-11.5,6.8l-11.4-1.7c0,0,2-1.1,3-1.7
		c1.1-0.8,1.8-1.9,1.3-3.2c-1-1.9-2.6-2.8-4.8-3.5C79.9,1.3,63.9,3.4,52.8,9.8c-2.7,1.6-6.2,3.9-6.5,7.2c-0.1,1.5,1.1,3.3,2.9,4.3
		C54.9,24.2,59.5,24,64.8,24.1z"/>
	<path d="M123.5,5.6c-1.5,0-2.8-1.3-2.8-2.8S122,0,123.5,0s2.8,1.3,2.8,2.8S125,5.6,123.5,5.6z M123.5,0.6c-1.2,0-2.2,1-2.2,2.2
		s1,2.2,2.2,2.2s2.2-1,2.2-2.2S124.7,0.6,123.5,0.6z"/>
	<path d="M122.4,4.3V1.3h1.3c0.3,0,0.4,0,0.6,0.1c0.1,0.1,0.2,0.1,0.3,0.3c0.1,0.1,0.1,0.3,0.1,0.4c0,0.2-0.1,0.4-0.2,0.5
		c-0.1,0.1-0.3,0.2-0.6,0.3c0.1,0,0.2,0.1,0.2,0.1c0.1,0.1,0.2,0.2,0.3,0.4l0.5,0.8h-0.5L124,3.7c-0.1-0.2-0.2-0.3-0.3-0.4
		c-0.1-0.1-0.1-0.2-0.2-0.2c-0.1,0-0.1-0.1-0.2-0.1c0,0-0.1,0-0.2,0h-0.4v1.3H122.4z M122.7,2.6h0.8c0.2,0,0.3,0,0.4-0.1
		c0.1,0,0.2-0.1,0.2-0.2c0.1-0.1,0.1-0.2,0.1-0.3c0-0.1,0-0.3-0.1-0.3c-0.1-0.1-0.3-0.1-0.5-0.1h-0.9V2.6z"/>
	<rect x="13" y="48.2" width="2" height="14"/>
	<polygon points="27,62.2 27,60.2 22,60.2 22,48.2 20,48.2 20,62.2 	"/>
	<rect x="30" y="48.2" width="2" height="14"/>
	<path d="M43,58.2v2h-4v-10h4l0,1.6h2v-1.6c0-1-1-2-2-2h-4c-1,0-2,1-2,2v10.1c0,1,1,2,2,2h4c1,0,2-1,2-2v-2H43z"/>
	<polygon points="63,53.2 67,62.2 69,62.2 69,48.2 67,48.2 67,57.2 63,48.2 61,48.2 61,62.2 63,62.2 	"/>
	<polygon points="91,62.2 91,60.2 86,60.2 86,48.2 84,48.2 84,62.2 	"/>
	<path d="M55,62.2c1,0,2-1,2-2v-10c0-1-1-2-2-2h-4c-1,0-2,1-2,2v10.1c0,1,1,2,2,2H55z M55,60.2h-4v-10h4V60.2z"/>
	<path d="M97.5,48.2l-4,14h2l0.9-3h4.2l0.8,3h2.1l-4-14H97.5z M98.5,51.5l1.5,5.7l-3.1,0L98.5,51.5z"/>
	<path d="M107,62.2h6c1,0,2-1,2-2v-3.5l-1.5-1.5l1.5-1.5v-3.5c0-1-1-2-2-2h-6V62.2z M109,50.2h4v4h-4V50.2z M109,56.2h4v4h-4V56.2z"
		/>
	<path d="M2,51.3c0,1.1,0,1.2,0.8,1.6l3.9,1.9C7.6,55.3,8,56,8,56.8v3.4c0,1-1,2-2,2H2c-1,0-2-1-2-2v-2h2v2h4v-1.9
		c0-1.3,0-1.3-0.8-1.8l-3.1-1.6c-1.3-0.6-2-1.3-2.1-2.3v-2.5c0-1,1-2,2-2l4,0c1.4,0,2,0.8,2,2l0,1.6H6l0-1.6H2L2,51.3z"/>
	<path d="M120,51.3c0,1.1,0,1.2,0.8,1.6l3.9,1.9c1,0.5,1.3,1.2,1.4,2v3.4c0,1-1,2-2,2h-4c-1,0-2-1-2-2v-2h2v2h4v-1.9
		c0-1.3,0-1.3-0.8-1.8l-3.1-1.6c-1.3-0.6-2-1.3-2.1-2.3v-2.5c0-1,1-2,2-2h4c1.4,0,2,0.8,2,2v1.6h-2v-1.6h-4V51.3z"/>
</g>
</svg>
