<?xml version="1.0" encoding="UTF-8" standalone="no"?>
<!DOCTYPE svg PUBLIC "-//W3C//DTD SVG 1.1//EN" "http://www.w3.org/Graphics/SVG/1.1/DTD/svg11.dtd">
<svg width="100%" height="100%" viewBox="0 0 459 222" version="1.1" xmlns="http://www.w3.org/2000/svg" xmlns:xlink="http://www.w3.org/1999/xlink" xml:space="preserve" xmlns:serif="http://www.serif.com/" style="fill-rule:evenodd;clip-rule:evenodd;stroke-linejoin:round;stroke-miterlimit:2;">
    <g id="SVK" transform="matrix(4.16667,0,0,4.16667,0,0)">
        <g transform="matrix(1,0,0,1,89.2808,41.8349)">
            <path d="M0,-30.214C-1.331,-30.188 -2.663,-30.21 -3.994,-30.207C-5.061,-30.204 -5.062,-30.2 -5.063,-29.156C-5.064,-22.527 -5.063,-15.897 -5.064,-9.266L-5.064,-8.035L-5.29,-7.979C-5.523,-8.319 -5.771,-8.65 -5.989,-9C-9.713,-14.961 -13.435,-20.923 -17.152,-26.888C-18.464,-28.992 -20.36,-30.152 -22.829,-30.187C-26.902,-30.245 -30.978,-30.252 -35.05,-30.186C-38.7,-30.127 -41.692,-27.726 -42.606,-24.28C-43.528,-20.808 -42.096,-16.996 -39.018,-15.211C-37.963,-14.599 -36.69,-14.329 -35.488,-14.016C-33.635,-13.534 -31.735,-13.224 -29.894,-12.706C-26.659,-11.795 -25.787,-8.056 -28.232,-5.764C-29.138,-4.916 -30.251,-4.632 -31.467,-4.635C-34.369,-4.642 -37.271,-4.646 -40.173,-4.622C-40.513,-4.619 -41.004,-4.531 -41.165,-4.301C-42.073,-2.997 -42.902,-1.636 -43.856,-0.14C-43.446,-0.078 -43.246,-0.02 -43.045,-0.021C-38.625,-0.03 -34.204,0.038 -29.786,-0.083C-25.146,-0.21 -21.374,-4.185 -21.269,-8.816C-21.195,-12.028 -23.346,-16.546 -28.465,-17.579C-30.499,-17.989 -32.524,-18.45 -34.55,-18.901C-35.498,-19.112 -36.393,-19.405 -36.943,-20.322C-38.388,-22.728 -36.972,-25.495 -34.201,-25.561C-31.753,-25.618 -29.302,-25.59 -26.853,-25.568C-24.354,-25.545 -22.499,-24.407 -21.192,-22.285C-19.685,-19.837 -18.132,-17.417 -16.598,-14.985C-13.616,-10.256 -10.643,-5.521 -7.638,-0.807C-7.423,-0.471 -6.991,-0.073 -6.645,-0.057C-5.051,0.012 -3.449,0.012 -1.855,-0.07C-0.31,-0.15 0.818,-1.365 0.821,-2.922C0.838,-11.735 0.827,-20.548 0.838,-29.362C0.839,-29.974 0.624,-30.226 0,-30.214" style="fill:rgb(35,31,32);fill-rule:nonzero;"/>
        </g>
        <g transform="matrix(1,0,0,1,109.681,12.7951)">
            <path d="M0,27.838C-2.787,23.397 -5.567,18.95 -8.382,14.526C-8.779,13.901 -8.785,13.438 -8.386,12.812C-5.664,8.549 -2.978,4.264 -0.283,-0.015C-0.103,-0.302 0.052,-0.606 0.314,-1.073C-0.117,-1.117 -0.371,-1.163 -0.625,-1.165C-2.089,-1.172 -3.554,-1.144 -5.018,-1.18C-5.65,-1.195 -6.046,-0.972 -6.383,-0.434C-9.002,3.736 -11.629,7.901 -14.288,12.046C-14.932,13.048 -15.025,14.008 -14.457,15.043C-14.266,15.393 -14.097,15.756 -13.883,16.093C-11.63,19.644 -9.374,23.193 -7.109,26.736C-6.219,28.129 -4.951,28.926 -3.283,28.991C-2.193,29.033 -1.101,29.019 -0.01,29.015C0.156,29.014 0.322,28.933 0.579,28.864C0.358,28.472 0.193,28.146 0,27.838" style="fill:rgb(35,31,32);fill-rule:nonzero;"/>
        </g>
        <g transform="matrix(1,0,0,1,25.2208,38.5045)">
            <path d="M0,-23.264C0,-18.514 -0.006,-13.763 0.007,-9.012C0.009,-8.48 -0.112,-8.06 -0.509,-7.677C-0.698,-7.494 -0.815,-7.154 -0.822,-6.88C-0.854,-5.602 -0.855,-4.321 -0.821,-3.041C-0.812,-2.718 -0.697,-2.355 -0.517,-2.086C0.208,-1.006 1.001,0.029 1.718,1.114C1.931,1.436 2.082,1.867 2.085,2.25C2.112,5.829 2.093,9.408 2.111,12.988C2.113,13.538 1.902,13.798 1.386,13.958C-2.779,15.249 -6.936,15.247 -11.103,13.962C-11.654,13.792 -11.845,13.5 -11.842,12.93C-11.822,9.374 -11.843,5.815 -11.815,2.258C-11.813,1.876 -11.661,1.445 -11.449,1.123C-10.731,0.038 -9.938,-0.996 -9.215,-2.078C-9.024,-2.365 -8.903,-2.75 -8.893,-3.094C-8.855,-4.329 -8.854,-5.568 -8.895,-6.803C-8.905,-7.115 -9.049,-7.489 -9.26,-7.712C-9.619,-8.093 -9.744,-8.491 -9.744,-8.997C-9.735,-18.543 -9.732,-28.087 -9.748,-37.632C-9.75,-38.268 -9.582,-38.513 -8.908,-38.504C-6.196,-38.472 -3.484,-38.478 -0.773,-38.501C-0.179,-38.506 0.013,-38.306 0.01,-37.712C-0.008,-32.896 0,-28.08 0,-23.264" style="fill:rgb(35,31,32);fill-rule:nonzero;"/>
        </g>
        <g transform="matrix(1,0,0,1,29.6182,3.442)">
            <path d="M0,47.571C-0.02,47.299 -0.056,47.027 -0.056,46.755C-0.06,43.415 -0.042,40.074 -0.079,36.735C-0.084,36.273 -0.266,35.759 -0.517,35.366C-1.156,34.361 -1.912,33.43 -2.555,32.426C-2.795,32.051 -2.917,31.566 -2.978,31.115C-3.048,30.583 -2.968,30.032 -3.001,29.491C-3.036,28.915 -2.875,28.468 -2.471,28.028C-2.248,27.786 -2.184,27.324 -2.183,26.962C-2.167,19.891 -2.171,12.82 -2.171,5.749C-2.17,4.448 -2.15,3.146 -2.178,1.845C-2.193,1.138 -1.873,0.613 -1.34,-0.032C-0.541,1.356 0.211,2.662 1.025,4.076C0.158,4.111 0.146,4.585 0.146,5.148C0.159,13.694 0.159,22.239 0.146,30.785C0.146,31.359 0.275,31.834 0.656,32.27C1.068,32.743 1.393,33.297 1.828,33.747C2.672,34.62 2.92,35.628 2.884,36.827C2.813,39.232 2.876,41.641 2.856,44.049C2.842,45.692 1.809,47.07 0.259,47.585C0.204,47.603 0.134,47.579 0,47.571" style="fill:rgb(35,31,32);fill-rule:nonzero;"/>
        </g>
        <g transform="matrix(1,0,0,1,10.0284,46.8523)">
            <path d="M0,-39.249C0.865,-40.756 1.607,-42.05 2.389,-43.412C2.99,-42.789 3.25,-42.222 3.247,-41.5C3.23,-38.095 3.24,-34.69 3.24,-31.285C3.24,-26.383 3.245,-21.481 3.234,-16.58C3.232,-15.994 3.263,-15.455 3.786,-15.075C3.854,-15.025 3.937,-14.945 3.943,-14.873C4.061,-13.618 4.413,-12.31 3.732,-11.145C3.09,-10.044 2.242,-9.065 1.548,-7.992C1.306,-7.618 1.135,-7.123 1.13,-6.68C1.096,-3.34 1.112,0 1.109,3.339C1.108,3.612 1.084,3.884 1.071,4.163C-0.422,3.94 -1.683,2.503 -1.775,0.896C-1.839,-0.228 -1.803,-1.358 -1.805,-2.486C-1.808,-4.134 -1.847,-5.785 -1.78,-7.43C-1.758,-7.956 -1.538,-8.527 -1.249,-8.975C-0.734,-9.774 -0.062,-10.47 0.472,-11.259C0.709,-11.61 0.893,-12.079 0.894,-12.495C0.917,-21.127 0.911,-29.759 0.914,-38.391C0.914,-38.874 0.947,-39.355 0,-39.249" style="fill:rgb(35,31,32);fill-rule:nonzero;"/>
        </g>
        <g transform="matrix(1,0,0,1,32.1724,47.3013)">
            <path d="M0,-32.034C0.089,-31.921 0.201,-31.819 0.265,-31.694C0.956,-30.345 1.949,-29.241 2.988,-28.151C10.246,-20.53 10.4,-8.498 3.373,-0.679C3.174,-0.458 3.053,-0.168 2.78,0C2.471,-1.307 2.548,-2.485 2.922,-3.62C3.159,-4.336 3.473,-5.036 3.828,-5.702C7.527,-12.642 6.466,-20.786 1.066,-26.492C0.219,-27.388 -0.181,-28.396 -0.179,-29.598C-0.178,-30.393 -0.179,-31.188 -0.179,-31.983C-0.119,-32 -0.06,-32.017 0,-32.034" style="fill:rgb(35,31,32);fill-rule:nonzero;"/>
        </g>
        <g transform="matrix(1,0,0,1,8.6993,47.2476)">
            <path d="M0,-31.929C0,-31.013 0.015,-30.098 -0.004,-29.183C-0.025,-28.141 -0.435,-27.277 -1.159,-26.51C-6.649,-20.698 -7.714,-12.626 -3.921,-5.566C-3.111,-4.058 -2.659,-2.484 -2.73,-0.769C-2.739,-0.562 -2.758,-0.355 -2.784,0.023C-3.121,-0.299 -3.357,-0.501 -3.565,-0.73C-10.509,-8.378 -10.401,-20.294 -3.292,-27.937C-2.21,-29.101 -1.121,-30.24 -0.399,-31.675C-0.346,-31.781 -0.244,-31.861 -0.165,-31.952C-0.11,-31.945 -0.055,-31.937 0,-31.929" style="fill:rgb(35,31,32);fill-rule:nonzero;"/>
        </g>
    </g>
</svg>
