<svg width="144" height="33" viewBox="0 0 144 33" fill="none" xmlns="http://www.w3.org/2000/svg">
<g id="vercel-logotype-light 1" clip-path="url(#clip0_460_3407)">
<path id="Vector" d="M72.1524 8.39844C66.6175 8.39844 62.6266 11.9984 62.6266 17.3984C62.6266 22.7984 67.1139 26.3984 72.6539 26.3984C75.9977 26.3984 78.9458 25.0784 80.7705 22.8534L76.9352 20.6434C75.9226 21.7485 74.3834 22.3934 72.6539 22.3934C70.2522 22.3934 68.2119 21.1434 67.4546 19.1434H81.5027C81.6128 18.5834 81.6782 18.0034 81.6782 17.3934C81.6782 11.9984 77.6925 8.39844 72.1524 8.39844ZM67.4145 15.6484C68.0412 13.6534 69.7559 12.3984 72.1524 12.3984C74.5538 12.3984 76.2685 13.6534 76.8903 15.6484H67.4145ZM66.2815 2.89844L52.389 26.8984L38.4917 2.89844H43.7006L52.3842 17.8984L61.0675 2.89844H66.2815ZM19.325 0.398438L37.85 32.3984H0.800003L19.325 0.398438ZM101.832 17.3984C101.832 20.3984 103.798 22.3984 106.846 22.3984C108.912 22.3984 110.461 21.4634 111.258 19.9384L115.108 22.1534C113.514 24.8034 110.526 26.3984 106.846 26.3984C101.306 26.3984 97.3204 22.7984 97.3204 17.3984C97.3204 11.9984 101.311 8.39844 106.846 8.39844C110.526 8.39844 113.509 9.99345 115.108 12.6434L111.258 14.8584C110.461 13.3334 108.912 12.3984 106.846 12.3984C103.803 12.3984 101.832 14.3984 101.832 17.3984ZM143.184 2.89844V25.8984H138.672V2.89844H143.184ZM126.138 8.39844C120.603 8.39844 116.612 11.9984 116.612 17.3984C116.612 22.7984 121.105 26.3984 126.639 26.3984C129.983 26.3984 132.931 25.0784 134.756 22.8534L130.921 20.6434C129.908 21.7485 128.369 22.3934 126.639 22.3934C124.238 22.3934 122.197 21.1434 121.44 19.1434H135.488C135.598 18.5834 135.664 18.0034 135.664 17.3934C135.664 11.9984 131.678 8.39844 126.138 8.39844ZM121.4 15.6484C122.027 13.6534 123.737 12.3984 126.138 12.3984C128.539 12.3984 130.254 13.6534 130.876 15.6484H121.4ZM95.8162 8.89844V13.7434C95.315 13.5984 94.7833 13.4984 94.2119 13.4984C91.2991 13.4984 89.1984 15.4984 89.1984 18.4984V25.8984H84.6864V8.89844H89.1984V13.4984C89.1984 10.9584 92.1612 8.89844 95.8162 8.89844Z" fill="white"/>
</g>
<defs>
<clipPath id="clip0_460_3407">
<rect width="142.4" height="32" fill="white" transform="translate(0.800003 0.398438)"/>
</clipPath>
</defs>
</svg>
