<svg width="996" height="1003" viewBox="0 0 996 1003" fill="none" xmlns="http://www.w3.org/2000/svg">
<path d="M492.422 284.364C505.085 264.985 517.363 247.1 528.672 231.61C516.995 230.1 505.114 229.238 493.025 229.238C340.841 229.238 217.473 352.607 217.473 504.789C217.473 599.936 265.698 683.818 339.037 733.33C345.329 714.397 351.858 696.341 358.432 679.316C306.235 639.002 272.584 575.843 272.584 504.789C272.584 383.245 370.955 284.691 492.422 284.364Z" fill="white"/>
<path d="M493.024 725.231C479.954 725.231 467.172 724.028 454.727 721.847C441.661 741.874 430.965 758.982 423.338 771.433C445.598 777.235 468.946 780.341 493.024 780.341C645.207 780.341 768.576 656.973 768.576 504.79C768.576 430.291 738.96 362.746 690.924 313.149C677.101 326.614 664.202 339.724 652.162 352.336C690.106 391.933 713.465 445.617 713.465 504.79C713.465 626.536 614.771 725.231 493.024 725.231Z" fill="white"/>
<path d="M614.971 493.064C614.971 493.064 590.348 476.648 539.928 461.405C539.928 461.405 632.56 334.769 774.44 219.858C774.44 219.858 647.392 190.543 582.14 190.543C548.135 216.34 439.087 385.189 388.668 497.754C388.668 497.754 430.88 517.688 443.778 530.586C443.778 530.586 383.977 631.426 342.938 767.443L306.588 741.647L331.212 867.111L444.364 797.93L398.048 786.204C398.048 786.204 502.992 605.043 614.971 493.064Z" fill="white"/>
<path d="M405.483 956.404L396.239 954.281C392.337 953.388 389.496 951.842 387.709 949.636C385.923 947.431 385.373 944.828 386.06 941.832C386.778 938.699 388.451 936.48 391.079 935.181C393.704 933.876 396.967 933.67 400.866 934.563L410.007 936.659L405.483 956.404ZM398.541 986.696L392.22 985.254C384.003 983.364 380.523 979.675 381.783 974.172C382.46 971.21 383.996 969.115 386.387 967.884C388.774 966.655 391.711 966.442 395.191 967.239L402.611 968.936L398.541 986.696ZM379.454 922.918C373.621 925.817 369.921 930.695 368.348 937.558C367.27 942.258 367.95 946.607 370.385 950.612C372.824 954.618 376.63 957.558 381.804 959.441L381.756 959.654C377.239 959.86 373.264 961.173 369.836 963.57C366.407 965.974 364.23 969.197 363.305 973.237C362.027 978.809 363.285 983.638 367.074 987.733C370.863 991.829 376.94 994.831 385.294 996.748L412.563 1003L429.729 928.091L400.949 921.496C392.453 919.551 385.287 920.025 379.454 922.918Z" fill="white"/>
<path d="M349.74 906.827L332.114 945.494C329.744 950.695 327.201 956.837 324.481 963.928L324.041 963.722C325.419 958.033 326.171 954.446 326.291 952.97L331.066 898.314L318.191 892.447L280.136 932.522C278.628 934.109 276.487 936.865 273.719 940.788L273.327 940.609C276.209 935.326 278.679 930.42 280.737 925.906L299.809 884.065L284.254 876.974L252.379 946.902L274.859 957.146L307.995 922.313C310.273 919.894 312.736 916.954 315.374 913.484L315.67 913.615C314.663 917.201 313.972 920.912 313.598 924.745L308.991 972.708L332.055 983.22L363.931 913.292L349.74 906.827Z" fill="white"/>
<path d="M235.272 841.386L227.179 852.86L250.693 869.446L240.559 883.812L220.023 869.322L211.93 880.795L232.465 895.285L222.613 909.253L200.542 893.677L192.418 905.199L228.632 930.743L272.929 867.954L235.272 841.386Z" fill="white"/>
<path d="M98.6797 810.517L110.538 824.21L161.222 801.366C163.946 800.136 166.292 798.837 168.264 797.463L168.474 797.704C166.918 799.291 165.327 801.352 163.699 803.894L133.767 851.026L145.976 865.117L186.938 795.038L174.097 780.211L98.6797 810.517Z" fill="white"/>
<path d="M101.446 789.384L142.974 761.442L146.564 766.78L157.681 759.298L140.838 734.269L129.721 741.743L133.311 747.082L91.7861 775.025L88.1931 769.686L77.0801 777.168L93.9231 802.197L105.039 794.722L101.446 789.384Z" fill="white"/>
<path d="M114.628 686.495L102.237 693.1L115.621 718.212L60.1934 747.755L68.3354 763.028L136.153 726.883L114.628 686.495Z" fill="white"/>
<path d="M32.4109 614.266C30.0959 614.033 27.8179 614.06 25.5819 614.355L25.4889 613.936C28.0579 613.132 30.2229 612.232 31.9819 611.236L55.5199 597.766L59.6279 617L32.4109 614.266ZM95.7289 636.733L94.9739 637.019L91.2459 619.563L73.3969 617.842L67.6869 591.113L83.2629 582.198L79.3229 563.75L9.87891 606.53L14.1659 626.602L93.3179 637.647L82.5999 641.71L92.6929 668.316L33.9669 690.59L40.1059 706.781L111.961 679.522L95.7289 636.733Z" fill="white"/>
<path d="M78.3985 542.627L35.9075 543.317C30.1915 543.41 23.5515 543.75 15.9865 544.334L15.9765 543.854C21.7105 542.654 25.2695 541.792 26.6535 541.271L78.0655 522.106L77.8355 507.959L25.2995 490.803C23.2185 490.123 19.8105 489.374 15.0805 488.557L15.0735 488.127C21.0815 488.46 26.5705 488.584 31.5345 488.505L77.5085 487.76L77.2305 470.666L0.394531 471.913L0.793526 496.612L46.4845 511.576C49.6485 512.597 53.3625 513.555 57.6285 514.451L57.6325 514.771C53.9635 515.403 50.3155 516.375 46.6905 517.684L1.40053 534.121L1.81353 559.467L78.6525 558.22L78.3985 542.627Z" fill="white"/>
<path d="M25.2207 411.714C26.4407 405.946 29.5667 401.861 34.6027 399.454C39.6387 397.049 46.0527 396.671 53.8467 398.317C61.3287 399.897 66.8147 402.844 70.3017 407.159C73.7917 411.473 74.9187 416.551 73.6847 422.387C72.4897 428.048 69.3567 432.171 64.2827 434.751C59.2127 437.334 52.9497 437.836 45.5057 436.262C38.1647 434.713 32.6337 431.721 28.9167 427.282C25.1967 422.847 23.9667 417.657 25.2207 411.714ZM42.6337 454.28C53.8877 456.657 63.7367 455.193 72.1777 449.893C80.6167 444.592 85.9767 436.558 88.2467 425.792C90.5797 414.744 88.8547 405.022 83.0707 396.627C77.2847 388.231 68.4837 382.786 56.6667 380.288C45.1697 377.86 35.2067 379.216 26.7807 384.356C18.3577 389.498 13.0127 397.434 10.7447 408.165C8.34672 419.526 10.0887 429.422 15.9767 437.86C21.8617 446.297 30.7477 451.769 42.6337 454.28Z" fill="white"/>
<path d="M37.1025 357.087C39.1945 359.636 42.1045 361.638 45.8285 363.095C50.5855 364.961 55.1825 365.177 59.6175 363.748C64.0525 362.318 68.5285 359.268 73.0455 354.589C74.8015 352.748 76.4845 351.047 78.0915 349.488C79.6995 347.932 81.2425 346.647 82.7125 345.63C84.1855 344.613 85.6255 343.923 87.0375 343.552C88.4455 343.185 89.8505 343.274 91.2485 343.82C92.2795 344.225 93.1385 344.851 93.8255 345.692C94.5085 346.537 94.9795 347.595 95.2305 348.863C95.4805 350.13 95.4955 351.594 95.2685 353.25C95.0415 354.909 94.5295 356.75 93.7325 358.78C92.3785 362.24 90.4315 365.427 87.8855 368.348C85.3435 371.264 82.2905 373.693 78.7275 375.637L94.6975 381.893C97.0435 379.818 99.2425 377.138 101.297 373.858C103.348 370.573 105.145 366.973 106.684 363.047C108.182 359.22 109.236 355.441 109.854 351.714C110.473 347.983 110.449 344.493 109.786 341.24C109.123 337.987 107.731 335.074 105.612 332.498C103.493 329.921 100.438 327.853 96.4465 326.29C93.5505 325.156 90.8475 324.596 88.3295 324.607C85.8105 324.617 83.3855 325.105 81.0495 326.07C78.7135 327.039 76.4255 328.396 74.1855 330.148C71.9465 331.896 69.6685 333.968 67.3505 336.362C65.6635 338.117 64.0895 339.667 62.6235 341.013C61.1565 342.357 59.7685 343.445 58.4665 344.277C57.1615 345.108 55.9105 345.654 54.7155 345.916C53.5195 346.176 52.3245 346.073 51.1255 345.603C50.0295 345.173 49.1495 344.504 48.4905 343.593C47.8315 342.683 47.3845 341.587 47.1575 340.306C46.9275 339.028 46.9345 337.571 47.1715 335.94C47.4085 334.304 47.8825 332.573 48.6005 330.742C49.1225 329.413 49.7715 328.045 50.5515 326.644C51.3315 325.242 52.2215 323.875 53.2245 322.539C54.2275 321.206 55.3195 319.955 56.5045 318.791C57.6895 317.623 58.9365 316.603 60.2355 315.733L45.3165 309.89C43.4345 311.951 41.7025 314.336 40.1295 317.035C38.5525 319.739 37.0345 322.951 35.5745 326.678C34.0895 330.471 33.0905 334.222 32.5755 337.935C32.0635 341.646 32.1665 345.132 32.8845 348.385C33.6055 351.642 35.0105 354.541 37.1025 357.087Z" fill="white"/>
<path d="M127.608 312.075L91.6786 289.382C86.8446 286.328 81.1016 282.979 74.4506 279.324L74.7086 278.918C80.1636 281.052 83.6126 282.282 85.0586 282.601L138.57 294.721L146.124 282.759L111.562 239.633C110.191 237.922 107.753 235.431 104.242 232.158L104.472 231.794C109.316 235.363 113.839 238.472 118.038 241.124L156.914 265.679L166.042 251.223L101.067 210.186L87.8756 231.076L117.914 268.616C119.999 271.203 122.582 274.037 125.66 277.125L125.488 277.396C122.074 275.916 118.491 274.731 114.74 273.841L67.8446 262.793L54.3066 284.222L119.281 325.26L127.608 312.075Z" fill="white"/>
<path d="M131.219 166.586L129.934 142.519L119.693 153.56L122.912 175.545L131.219 166.586Z" fill="white"/>
<path d="M176.138 241.646L207.477 207.857L197.182 198.307L177.612 219.406L164.726 207.455L181.816 189.025L171.521 179.479L154.43 197.909L141.895 186.284L160.263 166.48L149.93 156.896L119.793 189.39L176.138 241.646Z" fill="white"/>
<path d="M206.98 152.752L201.13 157.448L187.743 140.777L193.844 135.878C200.109 130.846 205.348 130.949 209.553 136.184C211.566 138.692 212.363 141.512 211.944 144.642C211.532 147.723 209.876 150.426 206.98 152.752ZM227.736 190.588L209.316 167.644L212.95 164.728C213.789 164.054 214.699 163.607 215.688 163.388C216.681 163.165 217.767 163.12 218.945 163.247C220.126 163.377 221.404 163.642 222.786 164.047C224.163 164.453 225.671 164.961 227.306 165.572L249.007 173.508L264.506 161.062L238.959 152.436C237.636 151.986 236.231 151.567 234.751 151.175C233.27 150.784 231.799 150.485 230.35 150.275C228.9 150.066 227.505 149.983 226.166 150.028C224.826 150.073 223.6 150.313 222.483 150.75L222.349 150.581C223.912 148.365 225.111 146.074 225.942 143.714C226.771 141.351 227.2 138.991 227.23 136.63C227.258 134.271 226.884 131.948 226.104 129.664C225.324 127.383 224.094 125.195 222.418 123.106C213.696 112.24 202.061 112.646 187.52 124.322L166.125 141.502L214.239 201.422L227.736 190.588Z" fill="white"/>
<path d="M282.055 151.443L261.914 114.329C259.255 109.43 257.153 105.858 255.604 103.608L255.792 103.504C257.101 104.418 259.248 105.675 262.227 107.269L313.096 134.597L328.448 126.263L291.79 58.7234L277.428 66.5214L297.699 103.868C300.203 108.485 302.007 111.512 303.11 112.944L302.924 113.044C300.897 111.787 298.771 110.564 296.541 109.375L247.424 82.8034L231.035 91.6974L267.692 159.241L282.055 151.443Z" fill="white"/>
<path d="M342.272 61.6016C344.319 56.1876 348.242 52.5736 354.038 50.7566C359.665 48.9946 364.759 49.7226 369.321 52.9346C373.883 56.1496 377.356 61.5576 379.736 69.1596C382.021 76.4556 382.138 82.6806 380.084 87.8366C378.026 92.9896 374.154 96.4586 368.459 98.2416C362.935 99.9696 357.806 99.2556 353.076 96.0946C348.342 92.9376 344.838 87.7266 342.564 80.4646C340.321 73.3026 340.225 67.0156 342.272 61.6016ZM343.739 110.393C352.492 115.157 362.121 115.896 372.622 112.605C383.395 109.231 391.024 102.969 395.515 93.8136C400.004 84.6556 400.444 74.3186 396.837 62.7936C393.323 51.5776 387.263 43.5526 378.658 38.7236C370.049 33.8936 360.513 33.1206 350.046 36.3976C338.967 39.8666 331.19 46.2326 326.713 55.4936C322.241 64.7586 321.818 75.1876 325.449 86.7786C328.885 97.7576 334.982 105.628 343.739 110.393Z" fill="white"/>
<path d="M329.36 34.5356C331.249 35.4216 333.352 35.5046 335.671 34.7756C337.989 34.0516 339.669 32.8146 340.714 31.0656C341.757 29.3136 341.953 27.4006 341.301 25.3226C340.662 23.2746 339.411 21.8256 337.549 20.9626C335.691 20.1076 333.599 20.0386 331.283 20.7636C329.033 21.4716 327.364 22.7146 326.275 24.4936C325.183 26.2776 324.959 28.1906 325.602 30.2376C326.22 32.2166 327.474 33.6486 329.36 34.5356Z" fill="white"/>
<path d="M352.842 27.208C354.725 28.081 356.806 28.16 359.091 27.442C361.41 26.717 363.096 25.466 364.151 23.697C365.206 21.925 365.415 20.015 364.773 17.971C364.134 15.923 362.866 14.477 360.97 13.628C359.077 12.78 356.988 12.715 354.704 13.429C352.42 14.144 350.747 15.38 349.689 17.136C348.627 18.892 348.421 20.808 349.074 22.887C349.702 24.899 350.96 26.339 352.842 27.208Z" fill="white"/>
<path d="M434.831 96.744L430.046 59.431L430.31 59.396C431.509 61.44 432.361 62.752 432.87 63.336L459.338 93.601L479.337 91.035L479.359 92.354L509.527 91.863L509.307 78.469L502.876 78.572L502.065 28.527L508.496 28.421L508.283 15.027L478.112 15.515L478.331 28.912L484.762 28.809L485.573 78.853L479.142 78.956L479.304 88.987L447.047 54.656L468.957 14.889L448.493 17.514L431.523 52C430.767 53.972 430.242 55.48 429.943 56.528L429.675 56.558L425.051 20.523L407.885 22.725L417.665 98.946L434.831 96.744Z" fill="white"/>
<path d="M612.612 92.4673L584.443 86.5863L588.037 69.3793L612.639 74.5143L615.505 60.7703L590.901 55.6343L594.398 38.9023L620.836 44.4183L623.715 30.6223L580.328 21.5673L564.629 96.7953L609.747 106.211L612.612 92.4673Z" fill="white"/>
<path d="M625.715 6.07825L610.978 3.00025L593.801 17.0982L605.763 19.5956L625.715 6.07825Z" fill="white"/>
<path d="M617.092 105.236C619.236 107.521 621.977 109.644 625.316 111.598C628.655 113.553 632.31 115.243 636.281 116.665C640.15 118.049 643.955 118.998 647.7 119.506C651.451 120.014 654.935 119.887 658.171 119.128C661.4 118.369 664.272 116.895 666.786 114.7C669.301 112.508 671.28 109.396 672.722 105.36C673.774 102.433 674.254 99.7117 674.172 97.1937C674.082 94.6797 673.527 92.2677 672.488 89.9627C671.458 87.6537 670.036 85.4077 668.215 83.2227C666.402 81.0347 664.265 78.8157 661.805 76.5687C659.998 74.9367 658.405 73.4047 657.017 71.9797C655.628 70.5537 654.502 69.1997 653.636 67.9187C652.764 66.6407 652.18 65.4077 651.884 64.2187C651.589 63.0337 651.657 61.8357 652.09 60.6227C652.488 59.5127 653.135 58.6157 654.028 57.9287C654.914 57.2417 655.999 56.7647 657.271 56.5007C658.541 56.2357 659.998 56.1977 661.64 56.3867C663.276 56.5757 665.021 57.0017 666.875 57.6647C668.215 58.1457 669.603 58.7567 671.026 59.4957C672.447 60.2307 673.842 61.0827 675.209 62.0447C676.57 63.0097 677.855 64.0647 679.05 65.2147C680.252 66.3657 681.311 67.5827 682.217 68.8537L687.624 53.7697C685.501 51.9487 683.07 50.2897 680.328 48.7947C677.579 47.2977 674.323 45.8747 670.558 44.5247C666.725 43.1507 662.939 42.2607 659.215 41.8557C655.491 41.4507 652.008 41.6567 648.779 42.4707C645.543 43.2847 642.685 44.7757 640.204 46.9397C637.717 49.1077 635.8 52.0717 634.454 55.8377C632.73 60.6497 632.647 65.2497 634.206 69.6397C635.759 74.0297 638.941 78.4167 643.749 82.7937C645.646 84.4977 647.391 86.1297 648.998 87.6927C650.6 89.2557 651.932 90.7567 652.99 92.1957C654.048 93.6387 654.783 95.0577 655.189 96.4587C655.601 97.8567 655.553 99.2617 655.044 100.674C654.674 101.718 654.075 102.594 653.251 103.305C652.427 104.017 651.383 104.515 650.125 104.803C648.862 105.092 647.398 105.147 645.736 104.968C644.072 104.79 642.217 104.333 640.17 103.597C636.666 102.344 633.423 100.488 630.435 98.0317C627.446 95.5757 624.924 92.5977 622.877 89.0938L617.092 105.236Z" fill="white"/>
<path d="M741.345 152.81L735.897 149.392L762.498 106.994L767.948 110.409L775.065 99.0625L749.507 83.0275L742.389 94.3775L747.837 97.7955L721.235 140.192L715.786 136.774L708.668 148.124L734.227 164.157L741.345 152.81Z" fill="white"/>
<path d="M753.901 178.207L780.999 145.816C784.571 141.543 787.12 138.272 788.645 136.009L788.81 136.146C788.439 137.699 788.061 140.155 787.676 143.511L780.985 200.866L794.382 212.079L843.698 153.137L831.16 142.649L803.891 175.243C800.524 179.272 798.374 182.061 797.446 183.614L797.282 183.477C797.708 181.134 798.058 178.706 798.346 176.194L804.976 120.746L790.672 108.778L741.363 167.719L753.901 178.207Z" fill="white"/>
<path d="M814.761 235.754L837.338 216.228L853.642 235.074L864.256 225.891L847.959 207.042L862.223 194.703L879.962 215.211L890.625 205.991L861.563 172.391L803.439 222.662L814.761 235.754Z" fill="white"/>
<path d="M878.039 254.394C884.415 250.436 890.481 248.774 896.232 249.409C901.989 250.041 906.469 252.937 909.671 258.101C912.776 263.109 913.347 268.224 911.375 273.442C909.395 278.664 905.026 283.373 898.259 287.575C891.76 291.604 885.762 293.27 880.259 292.562C874.748 291.858 870.427 288.973 867.28 283.902C864.229 278.987 863.645 273.841 865.521 268.468C867.403 263.099 871.574 258.406 878.039 254.394ZM849.348 262.992C846.916 272.656 848.606 282.164 854.404 291.515C860.361 301.106 868.331 306.936 878.314 309C888.304 311.065 898.424 308.915 908.682 302.545C918.671 296.348 924.93 288.478 927.458 278.942C929.994 269.402 928.365 259.973 922.58 250.653C916.459 240.787 908.358 234.844 898.272 232.821C888.186 230.794 877.977 232.985 867.658 239.392C857.888 245.459 851.78 253.326 849.348 262.992Z" fill="white"/>
<path d="M944.504 323.789L947.41 331.055C950.392 338.519 948.764 343.5 942.532 345.991C939.544 347.186 936.617 347.124 933.745 345.809C930.914 344.514 928.812 342.143 927.438 338.694L924.649 331.728L944.504 323.789ZM885.191 347.499L912.509 336.579L914.239 340.907C914.638 341.903 914.796 342.906 914.721 343.919C914.646 344.929 914.37 345.98 913.903 347.073C913.436 348.165 912.811 349.31 912.021 350.512C911.231 351.71 910.303 353.006 909.238 354.39L895.312 372.827L902.691 391.288L918.403 369.371C919.221 368.237 920.031 367.018 920.835 365.712C921.64 364.411 922.354 363.095 922.979 361.769C923.605 360.443 924.092 359.131 924.442 357.839C924.786 356.544 924.916 355.3 924.827 354.108L925.026 354.026C926.689 356.169 928.53 357.983 930.543 359.467C932.564 360.951 934.693 362.051 936.94 362.768C939.193 363.486 941.523 363.803 943.934 363.724C946.346 363.644 948.791 363.109 951.285 362.116C964.223 356.946 967.232 345.699 960.307 328.382L950.124 302.903L878.768 331.425L885.191 347.499Z" fill="white"/>
<path d="M906.949 409.55L948.769 401.992C954.396 400.979 960.889 399.567 968.261 397.763L968.35 398.237C962.882 400.35 959.514 401.776 958.23 402.518L910.597 429.749L913.112 443.669L967.732 452.099C969.896 452.435 973.38 452.621 978.182 452.662L978.258 453.085C972.273 453.73 966.839 454.493 961.954 455.376L916.705 463.551L919.742 480.374L995.365 466.712L990.974 442.401L943.466 435.029C940.181 434.531 936.361 434.187 932.006 433.995L931.951 433.679C935.469 432.459 938.91 430.914 942.27 429.034L984.303 405.486L979.797 380.539L904.174 394.205L906.949 409.55Z" fill="white"/>
<path d="M981.632 525.042C978.945 525.225 976.631 525.592 974.687 526.151L948.654 533.736L949.162 514.077L974.982 523.105C977.18 523.874 979.4 524.379 981.646 524.616L981.632 525.042ZM919.503 485.438L919.022 504.187L935.971 510.037L935.271 537.361L918.039 542.383L917.551 561.242L995.077 535.897L995.607 515.379L919.503 485.438Z" fill="white"/>
<path d="M974.788 593.084L913.099 581.565L909.91 598.632L971.6 610.15L967.574 631.696L981.432 634.282L992.644 574.228L978.787 571.642L974.788 593.084Z" fill="white"/>
<path d="M963.625 645.585L915.751 630.978L917.627 624.829L904.813 620.92L896.006 649.775L908.819 653.685L910.701 647.536L958.575 662.143L956.699 668.291L969.513 672.201L978.313 643.345L965.5 639.436L963.625 645.585Z" fill="white"/>
<path d="M897.427 773.375C898.883 775.196 900.498 776.797 902.278 778.185L902.044 778.542C899.666 777.277 897.509 776.364 895.565 775.808L869.464 768.463L880.299 752.049L897.427 773.375ZM886.812 673.54L921.219 688.748L921.116 688.992C918.746 688.961 917.18 689.013 916.417 689.144L876.829 696.134L868.764 714.379L859.969 727.7L871.25 741.641L856.191 764.443L838.911 759.586L828.516 775.326L907.705 794.866L919.014 777.745L872.602 715.151L916.513 705.767L939.206 745.09L947.547 726.224L926.812 693.856C925.52 692.19 924.503 690.961 923.761 690.163L923.871 689.92L957.104 704.608L964.098 688.775L893.813 657.707L886.812 673.54Z" fill="white"/>
<path d="M871.134 820.912L833.154 788.311L837.345 783.433L827.176 774.701L807.527 797.6L817.696 806.326L821.879 801.441L859.86 834.048L855.675 838.927L865.836 847.652L885.492 824.76L875.324 816.034L871.134 820.912Z" fill="white"/>
<path d="M704.353 949.953C702.986 947.631 701.619 945.734 700.245 944.244L681.763 924.401L699.551 916.013L703.096 943.138C703.398 945.446 703.948 947.658 704.745 949.767L704.353 949.953ZM746.854 851.63L768.427 882.451L768.207 882.608C766.195 881.351 764.827 880.589 764.113 880.307L726.614 865.797L709.716 877.626L694.831 884.649L697.229 902.416L672.508 914.075L660.272 900.946L643.213 908.991L700.705 966.841L719.269 958.088L712.056 879.497L755.586 894.577L754.652 939.971L771.56 928.14L770.571 889.72C770.324 887.624 770.09 886.044 769.863 884.979L770.083 884.821L790.921 914.591L805.102 904.663L761.035 841.709L746.854 851.63Z" fill="white"/>
<path d="M629.431 978.727C621.681 980.871 616.912 978.706 615.119 972.228C614.268 969.129 614.653 966.223 616.274 963.516C617.868 960.85 620.457 959.023 624.044 958.034L631.272 956.034L636.967 976.645L629.431 978.727ZM619.95 915.072L627.788 943.433L623.295 944.67C622.258 944.958 621.248 945.007 620.251 944.822C619.248 944.629 618.239 944.245 617.202 943.661C616.17 943.077 615.099 942.321 613.993 941.407C612.887 940.486 611.704 939.428 610.448 938.219L593.657 922.341L574.494 927.638L594.549 945.673C595.586 946.608 596.706 947.549 597.909 948.49C599.119 949.438 600.348 950.297 601.598 951.06C602.849 951.83 604.092 952.455 605.343 952.942C606.586 953.437 607.809 953.698 609.012 953.739L609.067 953.946C606.751 955.361 604.745 956.989 603.048 958.831C601.351 960.671 600.025 962.67 599.063 964.829C598.101 966.986 597.531 969.266 597.338 971.671C597.154 974.076 597.421 976.57 598.129 979.153C601.846 992.578 612.687 996.81 630.66 991.843L657.112 984.533L636.631 910.462L619.95 915.072Z" fill="white"/>
<path d="M503.139 952.165C491.725 952.165 482.472 961.418 482.472 972.832C482.472 984.245 491.725 993.498 503.139 993.498C514.552 993.498 523.805 984.245 523.805 972.832C523.805 961.418 514.552 952.165 503.139 952.165Z" fill="white"/>
</svg>
