<svg width="253" height="123" viewBox="0 0 253 123" fill="none" xmlns="http://www.w3.org/2000/svg">
<g clip-path="url(#clip0_223_2006)">
<path d="M252.251 120.383C252.485 120.566 252.656 120.817 252.738 121.102C252.821 121.387 252.811 121.69 252.711 121.97C252.611 122.249 252.426 122.489 252.181 122.657C251.936 122.824 251.645 122.91 251.348 122.902H206.845C190.593 122.902 177.835 110.74 176.679 109.512C176.516 109.35 145.773 70.7873 126.415 46.5176L111.002 27.1956C106.488 22.3381 99.599 16.7401 92.0417 16.7401H85.8027L90.3172 11.0068C90.9673 10.3025 100.953 0.984642 126.433 0.000488281C151.858 0.984642 161.853 10.3025 162.549 11.0068L167.063 16.7401L241.1 109.512C244.372 113.567 248.115 117.216 252.251 120.383Z" fill="url(#paint0_linear_223_2006)"/>
<path d="M0.587784 2.51968C0.351519 2.34253 0.177344 2.09519 0.0901826 1.81305C0.00302149 1.5309 0.00734188 1.22842 0.102526 0.94888C0.197709 0.66934 0.378878 0.427073 0.620106 0.256746C0.861334 0.0864196 1.15026 -0.00323678 1.44553 0.0006069H45.9943C62.2554 0.0006069 74.9682 12.1626 76.16 13.3995C76.3225 13.544 107.057 52.1156 126.433 76.3854L141.827 95.7073C146.342 100.574 153.24 106.172 160.788 106.172H167.108L162.549 111.896C161.899 112.6 151.904 121.918 126.433 122.902C100.981 121.891 90.9855 112.6 90.3174 111.896L85.8029 106.172L11.7656 13.3995C8.48836 9.33879 4.73558 5.68605 0.587784 2.51968Z" fill="url(#paint1_linear_223_2006)"/>
<path d="M85.8027 106.172H92.123C99.6531 106.172 106.569 100.574 111.084 95.7072L126.433 76.3853C145.782 52.1155 176.525 13.5439 176.679 13.3994C177.835 12.1625 190.584 0.000490711 206.854 0.000490711H251.384C251.681 -0.00733553 251.972 0.0786232 252.217 0.246115C252.462 0.413608 252.647 0.654086 252.747 0.933275C252.848 1.21246 252.857 1.51612 252.774 1.80095C252.692 2.08579 252.521 2.33727 252.287 2.51956C248.136 5.68537 244.38 9.33814 241.1 13.3994L162.549 111.896C162.549 111.896 151.931 122.902 126.433 122.902C100.935 122.902 90.9583 112.627 90.3172 111.896C89.1434 110.506 85.8027 106.172 85.8027 106.172Z" fill="url(#paint2_linear_223_2006)"/>
<path d="M167.063 16.7404H160.743C153.204 16.7404 146.297 22.3384 141.782 27.1959L126.433 46.5179C107.075 70.7877 76.3317 109.35 76.1782 109.513C75.0225 110.741 62.2736 122.903 46.0035 122.903H1.44568C1.1492 122.91 0.857822 122.825 0.613064 122.657C0.368306 122.49 0.182664 122.249 0.0825959 121.97C-0.0174719 121.691 -0.0268582 121.387 0.0557748 121.102C0.138408 120.817 0.308843 120.566 0.542789 120.384C4.68009 117.228 8.42646 113.591 11.7026 109.549L90.2543 11.0432C90.2543 11.0432 100.945 0.000793457 126.433 0.000793457C151.922 0.000793457 161.872 10.2848 162.504 11.0071C163.687 12.3975 167.063 16.7404 167.063 16.7404Z" fill="url(#paint3_linear_223_2006)"/>
</g>
<defs>
<linearGradient id="paint0_linear_223_2006" x1="27.9182" y1="-22.1385" x2="248.576" y2="107.002" gradientUnits="userSpaceOnUse">
<stop/>
<stop offset="1" stop-color="white"/>
</linearGradient>
<linearGradient id="paint1_linear_223_2006" x1="5.30089" y1="16.5055" x2="225.959" y2="145.655" gradientUnits="userSpaceOnUse">
<stop stop-color="white"/>
<stop offset="1"/>
</linearGradient>
<linearGradient id="paint2_linear_223_2006" x1="87.9697" y1="152.319" x2="217.111" y2="-2.24771" gradientUnits="userSpaceOnUse">
<stop stop-color="white"/>
<stop offset="1" stop-color="white"/>
</linearGradient>
<linearGradient id="paint3_linear_223_2006" x1="43.8275" y1="115.445" x2="172.968" y2="-39.1216" gradientUnits="userSpaceOnUse">
<stop stop-color="white"/>
<stop offset="1" stop-color="white"/>
</linearGradient>
<clipPath id="clip0_223_2006">
<rect width="252.83" height="122.903" fill="white"/>
</clipPath>
</defs>
</svg>
